<?plantuml 1.2026.2?><svg xmlns="http://www.w3.org/2000/svg" xmlns:xlink="http://www.w3.org/1999/xlink" contentStyleType="text/css" data-diagram-type="CLASS" height="71px" preserveAspectRatio="none" style="width:319px;height:71px;background:#FFFFFF;" version="1.1" viewBox="0 0 319 71" width="319px" zoomAndPan="magnify"><defs/><g><path d="M8.5,6.602 L184.8809,6.602 A3.75,3.75 0 0 1 187.3809,9.102 L194.3809,31.6699 L198.8809,31.6699 A2.5,2.5 0 0 1 201.3809,34.1699 L201.3809,62.2378 A2.5,2.5 0 0 1 198.8809,64.7378 L8.5,64.7378 A2.5,2.5 0 0 1 6,62.2378 L6,9.102 A2.5,2.5 0 0 1 8.5,6.602" fill="#F1F1F1" style="stroke:#181818;stroke-width:0.5;"/><line style="stroke:#181818;stroke-width:0.5;" x1="6" x2="194.3809" y1="31.6699" y2="31.6699"/><text fill="#000000" font-family="sans-serif" font-size="14" font-weight="bold" lengthAdjust="spacing" textLength="175.3809" x="10" y="23.5679">scripts.extract_education</text><path d="M238.88,6.602 L296.4923,6.602 A3.75,3.75 0 0 1 298.9923,9.102 L305.9923,31.6699 L310.4923,31.6699 A2.5,2.5 0 0 1 312.9923,34.1699 L312.9923,62.2378 A2.5,2.5 0 0 1 310.4923,64.7378 L238.88,64.7378 A2.5,2.5 0 0 1 236.38,62.2378 L236.38,9.102 A2.5,2.5 0 0 1 238.88,6.602" fill="#F1F1F1" style="stroke:#181818;stroke-width:0.5;"/><line style="stroke:#181818;stroke-width:0.5;" x1="236.38" x2="305.9923" y1="31.6699" y2="31.6699"/><text fill="#000000" font-family="sans-serif" font-size="14" font-weight="bold" lengthAdjust="spacing" textLength="56.6123" x="240.38" y="23.5679">talkmap</text><?plantuml-src TOnB2e0m34JtFKNe0RoC1v2X1YdLD3GH1F7kVX1SkHlcpHjZ9y72faZSiwB1QoEfmk6g2YQcQAbbTUjuyuRa0uzhWkSgaM3qIsaFntVYcCi2VPGttuCJ?></g></svg>