<?plantuml 1.2026.2?><svg xmlns="http://www.w3.org/2000/svg" xmlns:xlink="http://www.w3.org/1999/xlink" contentStyleType="text/css" data-diagram-type="DESCRIPTION" height="921px" preserveAspectRatio="none" style="width:1455px;height:921px;background:#FFFFFF;" version="1.1" viewBox="0 0 1455 921" width="1455px" zoomAndPan="magnify"><title>casonk.github.io Repository Architecture</title><defs/><g><g class="title" data-source-line="2"><text fill="#000000" font-family="Monospace" font-size="14" font-weight="bold" lengthAdjust="spacing" textLength="283.772" x="578.114" y="24.9659">casonk.github.io&#160;Repository&#160;Architecture</text></g><!--cluster Jekyll Content Surface--><g class="cluster" data-qualified-name="Jekyll Content Surface" data-source-line="10" id="ent0003"><rect fill="#F8FAFC" height="172" rx="2.5" ry="2.5" style="stroke:#181818;stroke-width:1;" width="444" x="14" y="323.0679"/><text fill="#000000" font-family="Monospace" font-size="14" font-weight="bold" lengthAdjust="spacing" textLength="151.6194" x="160.1903" y="340.0339">Jekyll&#160;Content&#160;Surface</text></g><!--cluster Config And Data--><g class="cluster" data-qualified-name="Config And Data" data-source-line="16" id="ent0007"><rect fill="#F8FAFC" height="326" rx="2.5" ry="2.5" style="stroke:#181818;stroke-width:1;" width="420" x="589" y="332.5679"/><text fill="#000000" font-family="Monospace" font-size="14" font-weight="bold" lengthAdjust="spacing" textLength="113.1651" x="742.4175" y="349.5339">Config&#160;And&#160;Data</text></g><!--cluster Presentation Layer--><g class="cluster" data-qualified-name="Presentation Layer" data-source-line="22" id="ent0011"><rect fill="#F8FAFC" height="134" rx="2.5" ry="2.5" style="stroke:#181818;stroke-width:1;" width="432" x="1017" y="534.0679"/><text fill="#000000" font-family="Monospace" font-size="14" font-weight="bold" lengthAdjust="spacing" textLength="131.183" x="1167.4085" y="551.0339">Presentation&#160;Layer</text></g><!--cluster Offline Helper Lanes--><g class="cluster" data-qualified-name="Offline Helper Lanes" data-source-line="27" id="ent0014"><rect fill="#F8FAFC" height="134" rx="2.5" ry="2.5" style="stroke:#181818;stroke-width:1;" width="732" x="168" y="150.0679"/><text fill="#000000" font-family="Monospace" font-size="14" font-weight="bold" lengthAdjust="spacing" textLength="142.1065" x="462.9468" y="167.0339">Offline&#160;Helper&#160;Lanes</text></g><!--cluster Build And Publish Surface--><g class="cluster" data-qualified-name="Build And Publish Surface" data-source-line="33" id="ent0018"><rect fill="#F8FAFC" height="371.5" rx="2.5" ry="2.5" style="stroke:#181818;stroke-width:1;" width="200" x="381" y="543.5679"/><text fill="#000000" font-family="Monospace" font-size="14" font-weight="bold" lengthAdjust="spacing" textLength="178.0583" x="391.9708" y="560.5339">Build&#160;And&#160;Publish&#160;Surface</text></g><!--entity maintainer--><g class="entity" data-qualified-name="maintainer" data-source-line="8" id="ent0002"><ellipse cx="273.8329" cy="52.5679" fill="#F1F1F1" rx="8" ry="8" style="stroke:#181818;stroke-width:0.5;"/><path d="M273.8329,60.5679 L273.8329,87.5679 M260.8329,68.5679 L286.8329,68.5679 M273.8329,87.5679 L260.8329,102.5679 M273.8329,87.5679 L286.8329,102.5679" fill="none" style="stroke:#181818;stroke-width:0.5;"/><text fill="#000000" font-family="Monospace" font-size="14" lengthAdjust="spacing" textLength="71.6657" x="238" y="119.0339">Maintainer</text></g><!--entity pages--><g class="entity" data-qualified-name="Jekyll Content Surface.pages" data-source-line="11" id="ent0004"><rect fill="#DBEAFE" height="134.4075" rx="2.5" ry="2.5" style="stroke:#181818;stroke-width:0.5;" width="176.7154" x="22.5" y="353.0679"/><text fill="#000000" font-family="Monospace" font-size="14" lengthAdjust="spacing" textLength="94.9057" x="32.5" y="378.0339">Primary&#160;Pages</text><text fill="#000000" font-family="Monospace" font-size="14" lengthAdjust="spacing" textLength="115.1916" x="32.5" y="397.1018">_pages/about.md</text><text fill="#000000" font-family="Monospace" font-size="14" lengthAdjust="spacing" textLength="90.3837" x="32.5" y="416.1697">_pages/cv.md</text><text fill="#000000" font-family="Monospace" font-size="14" lengthAdjust="spacing" textLength="142.1555" x="32.5" y="435.2376">_pages/portfolio.html</text><text fill="#000000" font-family="Monospace" font-size="14" lengthAdjust="spacing" textLength="156.7154" x="32.5" y="454.3055">_pages/publications.md</text><text fill="#000000" font-family="Monospace" font-size="14" lengthAdjust="spacing" textLength="115.9616" x="32.5" y="473.3734">_pages/talks.html</text></g><!--entity collections--><g class="entity" data-qualified-name="Jekyll Content Surface.collections" data-source-line="12" id="ent0005"><rect fill="#DBEAFE" height="134.4075" rx="2.5" ry="2.5" style="stroke:#181818;stroke-width:0.5;" width="111.5876" x="218" y="353.0679"/><text fill="#000000" font-family="Monospace" font-size="14" lengthAdjust="spacing" textLength="71.6517" x="228" y="378.0339">Collections</text><text fill="#000000" font-family="Monospace" font-size="14" lengthAdjust="spacing" textLength="68.3197" x="228" y="397.1018">_portfolio/</text><text fill="#000000" font-family="Monospace" font-size="14" lengthAdjust="spacing" textLength="91.5876" x="228" y="416.1697">_publications/</text><text fill="#000000" font-family="Monospace" font-size="14" lengthAdjust="spacing" textLength="42.1258" x="228" y="435.2376">_talks/</text><text fill="#000000" font-family="Monospace" font-size="14" lengthAdjust="spacing" textLength="68.4737" x="228" y="454.3055">_teaching/</text><text fill="#000000" font-family="Monospace" font-size="14" lengthAdjust="spacing" textLength="46.9698" x="228" y="473.3734">_posts/</text></g><!--entity static_assets--><g class="entity" data-qualified-name="Jekyll Content Surface.static_assets" data-source-line="13" id="ent0006"><rect fill="#DBEAFE" height="77.2038" rx="2.5" ry="2.5" style="stroke:#181818;stroke-width:0.5;" width="101.6337" x="348" y="381.5679"/><text fill="#000000" font-family="Monospace" font-size="14" lengthAdjust="spacing" textLength="81.6337" x="358" y="406.5339">Static&#160;Assets</text><text fill="#000000" font-family="Monospace" font-size="14" lengthAdjust="spacing" textLength="52.9758" x="358" y="425.6018">images/</text><text fill="#000000" font-family="Monospace" font-size="14" lengthAdjust="spacing" textLength="31.8499" x="358" y="444.6697">files/</text></g><!--entity config--><g class="entity" data-qualified-name="Config And Data.config" data-source-line="17" id="ent0008"><rect fill="#E0F2FE" height="77.2038" rx="2.5" ry="2.5" style="stroke:#181818;stroke-width:0.5;" width="122.0596" x="626" y="573.5679"/><text fill="#000000" font-family="Monospace" font-size="14" lengthAdjust="spacing" textLength="85.9877" x="636" y="598.5339">Active&#160;Config</text><text fill="#000000" font-family="Monospace" font-size="14" lengthAdjust="spacing" textLength="74.6897" x="636" y="617.6018">_config.yml</text><text fill="#000000" font-family="Monospace" font-size="14" lengthAdjust="spacing" textLength="102.0596" x="636" y="636.6697">_config.dev.yml</text></g><!--entity data_files--><g class="entity" data-qualified-name="Config And Data.data_files" data-source-line="18" id="ent0009"><rect fill="#E0F2FE" height="115.3396" rx="2.5" ry="2.5" style="stroke:#181818;stroke-width:0.5;" width="157.8715" x="597" y="362.5679"/><text fill="#000000" font-family="Monospace" font-size="14" lengthAdjust="spacing" textLength="104.5096" x="607" y="387.5339">Structured&#160;Data</text><text fill="#000000" font-family="Monospace" font-size="14" lengthAdjust="spacing" textLength="137.8715" x="607" y="406.6018">_data/navigation.yml</text><text fill="#000000" font-family="Monospace" font-size="14" lengthAdjust="spacing" textLength="119.5596" x="607" y="425.6697">_data/authors.yml</text><text fill="#000000" font-family="Monospace" font-size="14" lengthAdjust="spacing" textLength="133.9095" x="607" y="444.7376">_data/education.yml</text><text fill="#000000" font-family="Monospace" font-size="14" lengthAdjust="spacing" textLength="110.5716" x="607" y="463.8055">_data/ui-text.yml</text></g><!--entity references--><g class="entity" data-qualified-name="Config And Data.references" data-source-line="19" id="ent0010"><rect fill="#E2E8F0" height="96.2717" rx="2.5" ry="2.5" style="stroke:#181818;stroke-width:0.5;" width="227.4232" x="773.5" y="372.0679"/><text fill="#000000" font-family="Monospace" font-size="14" lengthAdjust="spacing" textLength="167.7053" x="783.5" y="397.0339">Reference-Only&#160;Examples</text><text fill="#000000" font-family="Monospace" font-size="14" lengthAdjust="spacing" textLength="141.7774" x="783.5" y="416.1018">_config.reference.yml</text><text fill="#000000" font-family="Monospace" font-size="14" lengthAdjust="spacing" textLength="207.4232" x="783.5" y="435.1697">_data/navigation_reference.yml</text><text fill="#000000" font-family="Monospace" font-size="14" lengthAdjust="spacing" textLength="189.1113" x="783.5" y="454.2376">_data/authors_reference.yml</text></g><!--entity templates--><g class="entity" data-qualified-name="Presentation Layer.templates" data-source-line="23" id="ent0012"><rect fill="#DCFCE7" height="77.2038" rx="2.5" ry="2.5" style="stroke:#181818;stroke-width:0.5;" width="160.2935" x="1281" y="573.5679"/><text fill="#000000" font-family="Monospace" font-size="14" lengthAdjust="spacing" textLength="140.2935" x="1291" y="598.5339">Layouts&#160;And&#160;Includes</text><text fill="#000000" font-family="Monospace" font-size="14" lengthAdjust="spacing" textLength="58.9118" x="1291" y="617.6018">_layouts/</text><text fill="#000000" font-family="Monospace" font-size="14" lengthAdjust="spacing" textLength="65.8837" x="1291" y="636.6697">_includes/</text></g><!--entity theme_assets--><g class="entity" data-qualified-name="Presentation Layer.theme_assets" data-source-line="24" id="ent0013"><rect fill="#DCFCE7" height="96.2717" rx="2.5" ry="2.5" style="stroke:#181818;stroke-width:0.5;" width="236.5652" x="1025.5" y="564.0679"/><text fill="#000000" font-family="Monospace" font-size="14" lengthAdjust="spacing" textLength="184.8413" x="1035.5" y="589.0339">Theme&#160;And&#160;Frontend&#160;Assets</text><text fill="#000000" font-family="Monospace" font-size="14" lengthAdjust="spacing" textLength="39.3959" x="1035.5" y="608.1018">_sass/</text><text fill="#000000" font-family="Monospace" font-size="14" lengthAdjust="spacing" textLength="46.1298" x="1035.5" y="627.1697">assets/</text><text fill="#000000" font-family="Monospace" font-size="14" lengthAdjust="spacing" textLength="216.5652" x="1035.5" y="646.2376">package.json&#160;JS&#160;minification&#160;path</text></g><!--entity publication_gen--><g class="entity" data-qualified-name="Offline Helper Lanes.publication_gen" data-source-line="28" id="ent0015"><rect fill="#FEF3C7" height="96.2717" rx="2.5" ry="2.5" style="stroke:#181818;stroke-width:0.5;" width="195.5733" x="176" y="180.0679"/><text fill="#000000" font-family="Monospace" font-size="14" lengthAdjust="spacing" textLength="151.2414" x="186" y="205.0339">Publication&#160;Generators</text><text fill="#000000" font-family="Monospace" font-size="14" lengthAdjust="spacing" textLength="175.5733" x="186" y="224.1018">markdown_generator/*.py</text><text fill="#000000" font-family="Monospace" font-size="14" lengthAdjust="spacing" textLength="144.3814" x="186" y="243.1697">TSV&#160;/&#160;notebook&#160;inputs</text><text fill="#000000" font-family="Monospace" font-size="14" lengthAdjust="spacing" textLength="148.7494" x="186" y="262.2376">manual&#160;source&#160;refresh</text></g><!--entity education_gen--><g class="entity" data-qualified-name="Offline Helper Lanes.education_gen" data-source-line="29" id="ent0016"><rect fill="#FEF3C7" height="77.2038" rx="2.5" ry="2.5" style="stroke:#181818;stroke-width:0.5;" width="225.6312" x="666" y="189.5679"/><text fill="#000000" font-family="Monospace" font-size="14" lengthAdjust="spacing" textLength="128.9535" x="676" y="214.5339">Education&#160;Extractor</text><text fill="#000000" font-family="Monospace" font-size="14" lengthAdjust="spacing" textLength="185.4013" x="676" y="233.6018">scripts/extract_education.py</text><text fill="#000000" font-family="Monospace" font-size="14" lengthAdjust="spacing" textLength="205.6312" x="676" y="252.6697">private_data/&#160;-&gt;&#160;sanitized&#160;YAML</text></g><!--entity talkmap_gen--><g class="entity" data-qualified-name="Offline Helper Lanes.talkmap_gen" data-source-line="30" id="ent0017"><rect fill="#FEF3C7" height="96.2717" rx="2.5" ry="2.5" style="stroke:#181818;stroke-width:0.5;" width="256.7531" x="390.5" y="180.0679"/><text fill="#000000" font-family="Monospace" font-size="14" lengthAdjust="spacing" textLength="130.7455" x="400.5" y="205.0339">Talk&#160;Map&#160;Generator</text><text fill="#000000" font-family="Monospace" font-size="14" lengthAdjust="spacing" textLength="73.0517" x="400.5" y="224.1018">talkmap.py</text><text fill="#000000" font-family="Monospace" font-size="14" lengthAdjust="spacing" textLength="120.6795" x="400.5" y="243.1697">_talks/&#160;-&gt;&#160;talkmap/</text><text fill="#000000" font-family="Monospace" font-size="14" lengthAdjust="spacing" textLength="236.7531" x="400.5" y="262.2376">currently&#160;excluded&#160;from&#160;active&#160;build</text></g><!--entity build--><g class="entity" data-qualified-name="Build And Publish Surface.build" data-source-line="34" id="ent0019"><rect fill="#FCE7F3" height="96.2717" rx="2.5" ry="2.5" style="stroke:#181818;stroke-width:0.5;" width="183.3233" x="389.5" y="697.0679"/><text fill="#000000" font-family="Monospace" font-size="14" lengthAdjust="spacing" textLength="118.2995" x="399.5" y="722.0339">Local&#160;And&#160;CI&#160;Build</text><text fill="#000000" font-family="Monospace" font-size="14" lengthAdjust="spacing" textLength="153.3134" x="399.5" y="741.1018">bundle&#160;exec&#160;jekyll&#160;build</text><text fill="#000000" font-family="Monospace" font-size="14" lengthAdjust="spacing" textLength="155.6094" x="399.5" y="760.1697">bundle&#160;exec&#160;jekyll&#160;serve</text><text fill="#000000" font-family="Monospace" font-size="14" lengthAdjust="spacing" textLength="163.3233" x="399.5" y="779.2376">bundle&#160;exec&#160;jekyll&#160;doctor</text></g><!--entity ci--><g class="entity" data-qualified-name="Build And Publish Surface.ci" data-source-line="35" id="ent0020"><rect fill="#DDD6FE" height="77.2038" rx="2.5" ry="2.5" style="stroke:#181818;stroke-width:0.5;" width="182.6234" x="389.5" y="573.5679"/><text fill="#000000" font-family="Monospace" font-size="14" lengthAdjust="spacing" textLength="79.8837" x="399.5" y="598.5339">CI&#160;Workflow</text><text fill="#000000" font-family="Monospace" font-size="14" lengthAdjust="spacing" textLength="162.6234" x="399.5" y="617.6018">.github/workflows/ci.yml</text><text fill="#000000" font-family="Monospace" font-size="14" lengthAdjust="spacing" textLength="159.2494" x="399.5" y="636.6697">Ruby&#160;setup&#160;+&#160;Jekyll&#160;build</text></g><!--entity site_output--><g class="entity" data-qualified-name="Build And Publish Surface.site_output" data-source-line="36" id="ent0021"><rect fill="#FBCFE8" height="77.2038" rx="2.5" ry="2.5" style="stroke:#181818;stroke-width:0.5;" width="184.1354" x="389" y="830.0679"/><text fill="#000000" font-family="Monospace" font-size="14" lengthAdjust="spacing" textLength="114.6456" x="399" y="855.0339">Rendered&#160;Output</text><text fill="#000000" font-family="Monospace" font-size="14" lengthAdjust="spacing" textLength="34.6919" x="399" y="874.1018">_site/</text><text fill="#000000" font-family="Monospace" font-size="14" lengthAdjust="spacing" textLength="164.1354" x="399" y="893.1697">published&#160;static&#160;portfolio</text></g><g class="link" data-entity-1="ent0002" data-entity-2="ent0004" data-link-type="dependency" id="lnk22"><polygon fill="#181818" points="101.333,352.902,104.5647,343.5984,100.914,347.9196,96.5928,344.2688,101.333,352.902" style="stroke:#181818;stroke-width:1;"/><path d="M237.7354,92.0115 C206.4573,100.462 162.8278,117.5289 140,150.0679 C98.5232,209.1892 95.904,288.346 100.8302,346.9231" fill="none" style="stroke:#181818;stroke-width:1;"/></g><g class="link" data-entity-1="ent0002" data-entity-2="ent0005" data-link-type="dependency" id="lnk23"><polygon fill="#181818" points="231.68,352.9119,229.6309,343.2786,228.7431,348.8653,223.1564,347.9776,231.68,352.9119" style="stroke:#181818;stroke-width:1;"/><path d="M237.8042,95.436 C212.1886,105.2362 179.7062,122.4359 164,150.0679 C134.5703,201.8439 139.5643,229.7562 164,284.0679 C174.7218,307.8987 190.6922,303.4898 208,323.0679 C216.1716,332.3113 220.672,337.7445 228.1557,348.056" fill="none" style="stroke:#181818;stroke-width:1;"/></g><g class="link" data-entity-1="ent0002" data-entity-2="ent0015" data-link-type="dependency" id="lnk24"><polygon fill="#181818" points="274,179.8309,278,170.8309,274,174.8309,270,170.8309,274,179.8309" style="stroke:#181818;stroke-width:1;"/><path d="M274,123.1305 C274,140.6047 274,155.428 274,173.8309" fill="none" style="stroke:#181818;stroke-width:1;"/></g><g class="link" data-entity-1="ent0002" data-entity-2="ent0016" data-link-type="dependency" id="lnk25"><polygon fill="#181818" points="729.4384,189.529,724.23,181.17,725.2987,186.725,719.7437,187.7936,729.4384,189.529" style="stroke:#181818;stroke-width:1;"/><path d="M310.0832,86.0461 C379.481,89.8945 535.4376,103.4498 657,150.0679 C682.3735,159.7984 703.1862,171.7476 724.4707,186.1642" fill="none" style="stroke:#181818;stroke-width:1;"/></g><g class="link" data-entity-1="ent0002" data-entity-2="ent0017" data-link-type="dependency" id="lnk26"><polygon fill="#181818" points="438.0776,180.0008,432.3089,172.0182,433.7555,177.4869,428.2867,178.9335,438.0776,180.0008" style="stroke:#181818;stroke-width:1;"/><path d="M310.1506,105.5943 C343.6936,125.104 389.6247,151.819 432.8911,176.9842" fill="none" style="stroke:#181818;stroke-width:1;"/></g><g class="link" data-entity-1="ent0015" data-entity-2="ent0005" data-link-type="dependency" id="lnk27"><polygon fill="#181818" points="274,352.8839,278,343.8839,274,347.8839,270,343.8839,274,352.8839" style="stroke:#181818;stroke-width:1;"/><path d="M274,276.5228 C274,299.6051 274,321.7327 274,346.8839" fill="none" style="stroke:#181818;stroke-width:1;"/><text fill="#000000" font-family="Monospace" font-size="13" lengthAdjust="spacing" textLength="156.6111" x="276" y="309.9649">refresh&#160;generated&#160;entries</text></g><g class="link" data-entity-1="ent0016" data-entity-2="ent0009" data-link-type="dependency" id="lnk28"><polygon fill="#181818" points="706.6648,362.5018,714.4705,356.496,709.0477,358.1061,707.4375,352.6833,706.6648,362.5018" style="stroke:#181818;stroke-width:1;"/><path d="M758.6505,266.6058 C743.8177,293.9673 726.3222,326.2406 709.5243,357.227" fill="none" style="stroke:#181818;stroke-width:1;"/><text fill="#000000" font-family="Monospace" font-size="13" lengthAdjust="spacing" textLength="131.7681" x="744" y="309.9649">update&#160;sanitized&#160;data</text></g><g class="link" data-entity-1="ent0017" data-entity-2="ent0006" data-link-type="dependency" id="lnk29"><polygon fill="#181818" points="422.7714,381.4298,430.9593,375.9564,425.4414,377.2024,424.1954,371.6844,422.7714,381.4298" style="stroke:#181818;stroke-width:1;"/><path d="M489.0285,276.5228 C468.5495,308.9479 444.9862,346.2564 425.9754,376.3569" fill="none" style="stroke:#181818;stroke-width:1;"/><text fill="#000000" font-family="Monospace" font-size="13" lengthAdjust="spacing" textLength="134.2901" x="479" y="309.9649">optional&#160;map&#160;artifacts</text></g><g class="link" data-entity-1="ent0004" data-entity-2="ent0019" data-link-type="dependency" id="lnk30"><polygon fill="#181818" points="389.2633,725.0679,381.7437,718.7073,384.4634,723.6675,379.5032,726.3872,389.2633,725.0679" style="stroke:#181818;stroke-width:1;"/><path d="M138.7644,487.1604 C165.1095,542.5357 209.6493,620.03 270,668.0679 C304.4236,695.4684 343.8089,711.8068 383.5034,723.3875" fill="none" style="stroke:#181818;stroke-width:1;"/></g><g class="link" data-entity-1="ent0005" data-entity-2="ent0019" data-link-type="dependency" id="lnk31"><polygon fill="#181818" points="389.1656,718.4235,382.5515,711.126,384.5925,716.4018,379.3167,718.4428,389.1656,718.4235" style="stroke:#181818;stroke-width:1;"/><path d="M270.6539,487.1518 C271.3166,541.0359 280.3732,616.4157 320,668.0679 C337.403,690.7522 357.7618,704.5399 383.6779,715.9974" fill="none" style="stroke:#181818;stroke-width:1;"/></g><g class="link" data-entity-1="ent0006" data-entity-2="ent0019" data-link-type="dependency" id="lnk32"><polygon fill="#181818" points="389.1756,716.621,383.225,708.7731,384.7969,714.2072,379.3628,715.7791,389.1756,716.621" style="stroke:#181818;stroke-width:1;"/><path d="M369.5576,458.669 C360.4753,472.4734 351.6461,488.7359 347,505.0679 C325.8401,579.4501 305.9491,613.5296 347,679.0679 C357.0881,695.1738 367.1749,704.4928 383.9211,713.7244" fill="none" style="stroke:#181818;stroke-width:1;"/></g><g class="link" data-entity-1="ent0008" data-entity-2="ent0019" data-link-type="dependency" id="lnk33"><polygon fill="#181818" points="555.0922,696.951,564.8331,695.4969,559.3113,694.268,560.5402,688.7462,555.0922,696.951" style="stroke:#181818;stroke-width:1;"/><path d="M627.9687,650.6073 C605.2603,665.048 584.1048,678.5013 560.1552,693.7314" fill="none" style="stroke:#181818;stroke-width:1;"/></g><g class="link" data-entity-1="ent0009" data-entity-2="ent0019" data-link-type="dependency" id="lnk34"><polygon fill="#181818" points="401.9493,697.0573,398.2543,687.9279,398.3527,693.5839,392.6967,693.6823,401.9493,697.0573" style="stroke:#181818;stroke-width:1;"/><path d="M596.6751,448.844 C511.2352,479.1339 386.532,524.5825 380,534.0679 C346.2223,583.1182 353.4081,614.7788 380,668.0679 C385.3891,678.8674 388.8086,684.3664 397.6334,692.8892" fill="none" style="stroke:#181818;stroke-width:1;"/></g><g class="link" data-entity-1="ent0012" data-entity-2="ent0019" data-link-type="dependency" id="lnk35"><polygon fill="#181818" points="572.6164,740.4875,581.7829,744.0895,577.6116,740.2685,581.4326,736.0972,572.6164,740.4875" style="stroke:#181818;stroke-width:1;"/><path d="M1308.8486,650.7177 C1297.2036,657.5486 1284.5668,663.8383 1272,668.0679 C1144.5171,710.9748 758.2902,732.3494 578.6106,740.2247" fill="none" style="stroke:#181818;stroke-width:1;"/></g><g class="link" data-entity-1="ent0013" data-entity-2="ent0019" data-link-type="dependency" id="lnk36"><polygon fill="#181818" points="572.8161,738.105,582.107,741.373,577.8001,737.7054,581.4676,733.3986,572.8161,738.105" style="stroke:#181818;stroke-width:1;"/><path d="M1038.2804,660.1221 C1029.8156,663.0684 1021.3211,665.7677 1013,668.0679 C861.924,709.8303 686.0028,729.0305 578.7969,737.6255" fill="none" style="stroke:#181818;stroke-width:1;"/></g><g class="link" data-entity-1="ent0020" data-entity-2="ent0019" data-link-type="dependency" id="lnk37"><polygon fill="#181818" points="481,696.7117,485,687.7117,481,691.7117,477,687.7117,481,696.7117" style="stroke:#181818;stroke-width:1;"/><path d="M481,650.6073 C481,664.9724 481,675.5464 481,690.7117" fill="none" style="stroke:#181818;stroke-width:1;"/></g><g class="link" data-entity-1="ent0019" data-entity-2="ent0021" data-link-type="dependency" id="lnk38"><polygon fill="#181818" points="481,829.9592,485,820.9592,481,824.9592,477,820.9592,481,829.9592" style="stroke:#181818;stroke-width:1;"/><path d="M481,793.3909 C481,805.5178 481,812.3961 481,823.9592" fill="none" style="stroke:#181818;stroke-width:1;"/></g><g class="link" data-entity-1="ent0010" data-entity-2="ent0008" data-link-type="dependency" id="lnk39"><polygon fill="#181818" points="726.7204,573.3335,736.0004,570.0348,730.3454,569.8898,730.4904,564.2348,726.7204,573.3335" style="stroke:#181818;stroke-width:1;"/><path d="M837.3048,468.2783 C803.1767,500.7001 762.8286,539.0307 731.0704,569.201" fill="none" style="stroke:#181818;stroke-width:1;"/><text fill="#000000" font-family="Monospace" font-size="13" lengthAdjust="spacing" textLength="224.1722" x="794" y="520.9649">keep&#160;examples&#160;outside&#160;runtime&#160;path</text></g><?plantuml-src XLLDRoCt3BtFhs2JMulOYrsW3N8eu3YUDa7I14dGee01GvxXs5fhf84-lF4M_U-bg8b7TXBqO7X4KUGJ-VZqGsV5gXMWnCu43wv5BxGelFGAeHBEwCre9VqwB4VIm2Dsnablx0ucjbfBZvKF5WktaReJLhJWrg8stwHUGIEKotTgR4HGlZJQ_o5QX3kZZUj4bVlGSYDM-EHtbDrISA5NAdTGKgFVTGZ6-hKf2b4H63Yv4r9x-g4z0U6WtI-BeWy99pUusIa5KygFsiDJi0qbFu7JyhoSb5Fufu0X9PmyMDaAkkS37NPplUZY_rWigKgZjjuRgcs-wWXMOvGqexLlrM0EIoKhuQNHBdVtGcqSkp9iDiBfrULiKiuEqKoDKhIA0UBfrpJZkCY2npK7vGyKr2AzOYVZl1jpbce8zNwk9q_1AfWuXvwoKHaYrhbkfC8-XcENXM2NVPH_isfJcHkvWeckuKfuyM6P9uHaYv3S2MZ57wCTLwzVrBYDXXuznpsTVIe_lmLk0_CnvQG0DVsDjTZA5TUd3yjM4OX0rkKch4FrnY_8CuylVWyW6XTSYlT1F6A35dM5P_TQxM3s8jfECOFwszXNXppBW77nxdwFzd2JyUmj4S_dsNdvwQ0F3nOTqPr3mwtOnGdve1MtB06EUtQjAnLgXfsKWHabUsiYWKUwcV1CsMavdVro6EvvZJJbCLXfUURgFQKMZfX30HD_wAE7E_fAUWCtJz1ABPkUr3GMVfqIneW3wLBE_BBtJHC50dv7rQ6bwsfq7m_uC3Vm6v9M298I0aTJlo49qulLgt7yuwZRpVNpqvym1cqyBetP04bIyEolWr3WJB1L5As6AfxmPfCPWn6GMVbbUbIcsIlfY2hUifxDjQkixAWoc4oBWPaHI6VbbkgUc05dlu8JMdhvdNZ_z-JkbdFlJtoS-Pc40kv4Dzn-hgDujABZDBsIn0IzcJfL1KjiyyHiV64orD1Oqu98SxmCKjMfMUd8GVgyLvVHa-d1ZN3h_rNaMrDHdUE9wJNmyRbU1btJ7hvW1L-Jm2y_t75ej_ZkJcrYtHat7oS8nAtoov48NyDVncuQPRxDTVygZh_r5deAP9hOnx3SKIuVElW9RZ9GIS0aKVVgwkUtkg5hZD9r7pmHAmu9FQznDb9vQ2UfBkpLFqanUIqCdo7KbzDoTXxhF3o1S4ODvAVbs9Yz16_y3wbxl7t0hkFDhFFKxwCPECeB5wyJ0_suqJs9NrOIt4CEnvEP-5v0w6Y96VdZRf7pBXuvVAekm7Gn8X69d41OBubptaLYniStdk1U5Jd8mNeOBVVcPsamP4W7uw2OcIqNjIoWp1Q9atoReTj5flofgWpX0ZQ87R4xlJiGjLlM94n1Uqc27DMq-0y0?></g></svg>
