<?xml version="1.0" encoding="UTF-8"?>
<!DOCTYPE svg PUBLIC "-//W3C//DTD SVG 1.1//EN" "http://www.w3.org/Graphics/SVG/1.1/DTD/svg11.dtd">
<svg xmlns="http://www.w3.org/2000/svg" xmlns:xlink="http://www.w3.org/1999/xlink" version="1.1" width="1605px" height="852px" viewBox="-0.5 -0.5 1605 852"><defs/><g><g data-cell-id="0"><g data-cell-id="1"><g data-cell-id="2"><g><rect x="44" y="0" width="1520" height="80" fill="#1f2937" stroke="#111827" pointer-events="all"/></g><g><g transform="translate(-0.5 -0.5)"><switch><foreignObject pointer-events="none" width="100%" height="100%" requiredFeatures="http://www.w3.org/TR/SVG11/feature#Extensibility" style="overflow: visible; text-align: left;"><div xmlns="http://www.w3.org/1999/xhtml" style="display: flex; align-items: unsafe center; justify-content: unsafe center; width: 1502px; height: 1px; padding-top: 40px; margin-left: 53px;"><div data-drawio-colors="color: #FFFFFF; " style="box-sizing: border-box; font-size: 0px; text-align: center;"><div style="display: inline-block; font-size: 26px; font-family: Helvetica; color: rgb(255, 255, 255); line-height: 1.2; pointer-events: all; font-weight: bold; white-space: normal; overflow-wrap: normal;">casonk.github.io Repository Architecture</div></div></div></foreignObject><text x="804" y="48" fill="#FFFFFF" font-family="&quot;Helvetica&quot;" font-size="26px" text-anchor="middle" font-weight="bold">casonk.github.io Repository Architecture</text></switch></g></g></g><g data-cell-id="10"><g><rect x="44" y="120" width="230" height="90" rx="13.5" ry="13.5" fill="#fce7f3" stroke="#db2777" pointer-events="all"/></g><g><g transform="translate(-0.5 -0.5)"><switch><foreignObject pointer-events="none" width="100%" height="100%" requiredFeatures="http://www.w3.org/TR/SVG11/feature#Extensibility" style="overflow: visible; text-align: left;"><div xmlns="http://www.w3.org/1999/xhtml" style="display: flex; align-items: unsafe center; justify-content: unsafe center; width: 216px; height: 1px; padding-top: 165px; margin-left: 51px;"><div data-drawio-colors="color: #111827; " style="box-sizing: border-box; font-size: 0px; text-align: center;"><div style="display: inline-block; font-size: 18px; font-family: Helvetica; color: rgb(17, 24, 39); line-height: 1.2; pointer-events: all; white-space: normal; overflow-wrap: normal;">Maintainer<br />edits site and helper inputs</div></div></div></foreignObject><text x="159" y="170" fill="#111827" font-family="&quot;Helvetica&quot;" font-size="18px" text-anchor="middle">Maintainer...</text></switch></g></g></g><g data-cell-id="20"><g><rect x="324" y="100" width="310" height="130" rx="19.5" ry="19.5" fill="#dbeafe" stroke="#2563eb" pointer-events="all"/></g><g><g transform="translate(-0.5 -0.5)"><switch><foreignObject pointer-events="none" width="100%" height="100%" requiredFeatures="http://www.w3.org/TR/SVG11/feature#Extensibility" style="overflow: visible; text-align: left;"><div xmlns="http://www.w3.org/1999/xhtml" style="display: flex; align-items: unsafe center; justify-content: unsafe center; width: 296px; height: 1px; padding-top: 165px; margin-left: 331px;"><div data-drawio-colors="color: #111827; " style="box-sizing: border-box; font-size: 0px; text-align: center;"><div style="display: inline-block; font-size: 17px; font-family: Helvetica; color: rgb(17, 24, 39); line-height: 1.2; pointer-events: all; white-space: normal; overflow-wrap: normal;">Primary Pages<br />_pages/about.md<br />_pages/cv.md<br />_pages/portfolio.html<br />_pages/publications.md<br />_pages/talks.html</div></div></div></foreignObject><text x="479" y="170" fill="#111827" font-family="&quot;Helvetica&quot;" font-size="17px" text-anchor="middle">Primary Pages...</text></switch></g></g></g><g data-cell-id="30"><g><rect x="684" y="100" width="250" height="130" rx="19.5" ry="19.5" fill="#dbeafe" stroke="#2563eb" pointer-events="all"/></g><g><g transform="translate(-0.5 -0.5)"><switch><foreignObject pointer-events="none" width="100%" height="100%" requiredFeatures="http://www.w3.org/TR/SVG11/feature#Extensibility" style="overflow: visible; text-align: left;"><div xmlns="http://www.w3.org/1999/xhtml" style="display: flex; align-items: unsafe center; justify-content: unsafe center; width: 236px; height: 1px; padding-top: 165px; margin-left: 691px;"><div data-drawio-colors="color: #111827; " style="box-sizing: border-box; font-size: 0px; text-align: center;"><div style="display: inline-block; font-size: 18px; font-family: Helvetica; color: rgb(17, 24, 39); line-height: 1.2; pointer-events: all; white-space: normal; overflow-wrap: normal;">Collections<br />_portfolio<br />_publications<br />_talks<br />_teaching<br />_posts</div></div></div></foreignObject><text x="809" y="170" fill="#111827" font-family="&quot;Helvetica&quot;" font-size="18px" text-anchor="middle">Collections...</text></switch></g></g></g><g data-cell-id="40"><g><rect x="984" y="120" width="220" height="90" rx="13.5" ry="13.5" fill="#dbeafe" stroke="#2563eb" pointer-events="all"/></g><g><g transform="translate(-0.5 -0.5)"><switch><foreignObject pointer-events="none" width="100%" height="100%" requiredFeatures="http://www.w3.org/TR/SVG11/feature#Extensibility" style="overflow: visible; text-align: left;"><div xmlns="http://www.w3.org/1999/xhtml" style="display: flex; align-items: unsafe center; justify-content: unsafe center; width: 206px; height: 1px; padding-top: 165px; margin-left: 991px;"><div data-drawio-colors="color: #111827; " style="box-sizing: border-box; font-size: 0px; text-align: center;"><div style="display: inline-block; font-size: 18px; font-family: Helvetica; color: rgb(17, 24, 39); line-height: 1.2; pointer-events: all; white-space: normal; overflow-wrap: normal;">Static Assets<br />images<br />files</div></div></div></foreignObject><text x="1094" y="170" fill="#111827" font-family="&quot;Helvetica&quot;" font-size="18px" text-anchor="middle">Static Assets...</text></switch></g></g></g><g data-cell-id="50"><g><rect x="1254" y="110" width="250" height="110" rx="16.5" ry="16.5" fill="#e0f2fe" stroke="#0284c7" pointer-events="all"/></g><g><g transform="translate(-0.5 -0.5)"><switch><foreignObject pointer-events="none" width="100%" height="100%" requiredFeatures="http://www.w3.org/TR/SVG11/feature#Extensibility" style="overflow: visible; text-align: left;"><div xmlns="http://www.w3.org/1999/xhtml" style="display: flex; align-items: unsafe center; justify-content: unsafe center; width: 236px; height: 1px; padding-top: 165px; margin-left: 1261px;"><div data-drawio-colors="color: #111827; " style="box-sizing: border-box; font-size: 0px; text-align: center;"><div style="display: inline-block; font-size: 18px; font-family: Helvetica; color: rgb(17, 24, 39); line-height: 1.2; pointer-events: all; white-space: normal; overflow-wrap: normal;">Active Config<br />_config.yml<br />_config.dev.yml</div></div></div></foreignObject><text x="1379" y="170" fill="#111827" font-family="&quot;Helvetica&quot;" font-size="18px" text-anchor="middle">Active Config...</text></switch></g></g></g><g data-cell-id="60"><g><rect x="44" y="310" width="300" height="130" rx="19.5" ry="19.5" fill="#e0f2fe" stroke="#0284c7" pointer-events="all"/></g><g><g transform="translate(-0.5 -0.5)"><switch><foreignObject pointer-events="none" width="100%" height="100%" requiredFeatures="http://www.w3.org/TR/SVG11/feature#Extensibility" style="overflow: visible; text-align: left;"><div xmlns="http://www.w3.org/1999/xhtml" style="display: flex; align-items: unsafe center; justify-content: unsafe center; width: 286px; height: 1px; padding-top: 375px; margin-left: 51px;"><div data-drawio-colors="color: #111827; " style="box-sizing: border-box; font-size: 0px; text-align: center;"><div style="display: inline-block; font-size: 17px; font-family: Helvetica; color: rgb(17, 24, 39); line-height: 1.2; pointer-events: all; white-space: normal; overflow-wrap: normal;">Structured Data<br />_data/navigation.yml<br />_data/authors.yml<br />_data/education.yml<br />_data/ui-text.yml</div></div></div></foreignObject><text x="194" y="380" fill="#111827" font-family="&quot;Helvetica&quot;" font-size="17px" text-anchor="middle">Structured Data...</text></switch></g></g></g><g data-cell-id="70"><g><rect x="394" y="320" width="290" height="110" rx="16.5" ry="16.5" fill="#e2e8f0" stroke="#64748b" pointer-events="all"/></g><g><g transform="translate(-0.5 -0.5)"><switch><foreignObject pointer-events="none" width="100%" height="100%" requiredFeatures="http://www.w3.org/TR/SVG11/feature#Extensibility" style="overflow: visible; text-align: left;"><div xmlns="http://www.w3.org/1999/xhtml" style="display: flex; align-items: unsafe center; justify-content: unsafe center; width: 276px; height: 1px; padding-top: 375px; margin-left: 401px;"><div data-drawio-colors="color: #111827; " style="box-sizing: border-box; font-size: 0px; text-align: center;"><div style="display: inline-block; font-size: 17px; font-family: Helvetica; color: rgb(17, 24, 39); line-height: 1.2; pointer-events: all; white-space: normal; overflow-wrap: normal;">Reference-Only Examples<br />_config.reference.yml<br />navigation_reference.yml<br />authors_reference.yml</div></div></div></foreignObject><text x="539" y="380" fill="#111827" font-family="&quot;Helvetica&quot;" font-size="17px" text-anchor="middle">Reference-Only Examples...</text></switch></g></g></g><g data-cell-id="80"><g><rect x="744" y="320" width="250" height="110" rx="16.5" ry="16.5" fill="#dcfce7" stroke="#16a34a" pointer-events="all"/></g><g><g transform="translate(-0.5 -0.5)"><switch><foreignObject pointer-events="none" width="100%" height="100%" requiredFeatures="http://www.w3.org/TR/SVG11/feature#Extensibility" style="overflow: visible; text-align: left;"><div xmlns="http://www.w3.org/1999/xhtml" style="display: flex; align-items: unsafe center; justify-content: unsafe center; width: 236px; height: 1px; padding-top: 375px; margin-left: 751px;"><div data-drawio-colors="color: #111827; " style="box-sizing: border-box; font-size: 0px; text-align: center;"><div style="display: inline-block; font-size: 18px; font-family: Helvetica; color: rgb(17, 24, 39); line-height: 1.2; pointer-events: all; white-space: normal; overflow-wrap: normal;">Layouts And Includes<br />_layouts<br />_includes</div></div></div></foreignObject><text x="869" y="380" fill="#111827" font-family="&quot;Helvetica&quot;" font-size="18px" text-anchor="middle">Layouts And Includes...</text></switch></g></g></g><g data-cell-id="90"><g><rect x="1054" y="310" width="300" height="130" rx="19.5" ry="19.5" fill="#dcfce7" stroke="#16a34a" pointer-events="all"/></g><g><g transform="translate(-0.5 -0.5)"><switch><foreignObject pointer-events="none" width="100%" height="100%" requiredFeatures="http://www.w3.org/TR/SVG11/feature#Extensibility" style="overflow: visible; text-align: left;"><div xmlns="http://www.w3.org/1999/xhtml" style="display: flex; align-items: unsafe center; justify-content: unsafe center; width: 286px; height: 1px; padding-top: 375px; margin-left: 1061px;"><div data-drawio-colors="color: #111827; " style="box-sizing: border-box; font-size: 0px; text-align: center;"><div style="display: inline-block; font-size: 17px; font-family: Helvetica; color: rgb(17, 24, 39); line-height: 1.2; pointer-events: all; white-space: normal; overflow-wrap: normal;">Theme And Frontend Assets<br />_sass<br />assets<br />package.json JS minification path</div></div></div></foreignObject><text x="1204" y="380" fill="#111827" font-family="&quot;Helvetica&quot;" font-size="17px" text-anchor="middle">Theme And Frontend Assets...</text></switch></g></g></g><g data-cell-id="100"><g><rect x="44" y="540" width="300" height="120" rx="18" ry="18" fill="#fef3c7" stroke="#d97706" pointer-events="all"/></g><g><g transform="translate(-0.5 -0.5)"><switch><foreignObject pointer-events="none" width="100%" height="100%" requiredFeatures="http://www.w3.org/TR/SVG11/feature#Extensibility" style="overflow: visible; text-align: left;"><div xmlns="http://www.w3.org/1999/xhtml" style="display: flex; align-items: unsafe center; justify-content: unsafe center; width: 286px; height: 1px; padding-top: 600px; margin-left: 51px;"><div data-drawio-colors="color: #111827; " style="box-sizing: border-box; font-size: 0px; text-align: center;"><div style="display: inline-block; font-size: 17px; font-family: Helvetica; color: rgb(17, 24, 39); line-height: 1.2; pointer-events: all; white-space: normal; overflow-wrap: normal;">Publication Generators<br />markdown_generator Python and notebooks<br />TSV-driven manual refresh</div></div></div></foreignObject><text x="194" y="605" fill="#111827" font-family="&quot;Helvetica&quot;" font-size="17px" text-anchor="middle">Publication Generators...</text></switch></g></g></g><g data-cell-id="110"><g><rect x="394" y="540" width="300" height="120" rx="18" ry="18" fill="#fef3c7" stroke="#d97706" pointer-events="all"/></g><g><g transform="translate(-0.5 -0.5)"><switch><foreignObject pointer-events="none" width="100%" height="100%" requiredFeatures="http://www.w3.org/TR/SVG11/feature#Extensibility" style="overflow: visible; text-align: left;"><div xmlns="http://www.w3.org/1999/xhtml" style="display: flex; align-items: unsafe center; justify-content: unsafe center; width: 286px; height: 1px; padding-top: 600px; margin-left: 401px;"><div data-drawio-colors="color: #111827; " style="box-sizing: border-box; font-size: 0px; text-align: center;"><div style="display: inline-block; font-size: 17px; font-family: Helvetica; color: rgb(17, 24, 39); line-height: 1.2; pointer-events: all; white-space: normal; overflow-wrap: normal;">Education Extractor<br />scripts/extract_education.py<br />private_data to sanitized YAML</div></div></div></foreignObject><text x="544" y="605" fill="#111827" font-family="&quot;Helvetica&quot;" font-size="17px" text-anchor="middle">Education Extractor...</text></switch></g></g></g><g data-cell-id="120"><g><rect x="744" y="540" width="310" height="120" rx="18" ry="18" fill="#fef3c7" stroke="#d97706" pointer-events="all"/></g><g><g transform="translate(-0.5 -0.5)"><switch><foreignObject pointer-events="none" width="100%" height="100%" requiredFeatures="http://www.w3.org/TR/SVG11/feature#Extensibility" style="overflow: visible; text-align: left;"><div xmlns="http://www.w3.org/1999/xhtml" style="display: flex; align-items: unsafe center; justify-content: unsafe center; width: 296px; height: 1px; padding-top: 600px; margin-left: 751px;"><div data-drawio-colors="color: #111827; " style="box-sizing: border-box; font-size: 0px; text-align: center;"><div style="display: inline-block; font-size: 17px; font-family: Helvetica; color: rgb(17, 24, 39); line-height: 1.2; pointer-events: all; white-space: normal; overflow-wrap: normal;">Talk Map Generator<br />talkmap.py<br />_talks to talkmap<br />currently excluded from active build</div></div></div></foreignObject><text x="899" y="605" fill="#111827" font-family="&quot;Helvetica&quot;" font-size="17px" text-anchor="middle">Talk Map Generator...</text></switch></g></g></g><g data-cell-id="130"><g><rect x="1104" y="530" width="280" height="130" rx="19.5" ry="19.5" fill="#fce7f3" stroke="#db2777" pointer-events="all"/></g><g><g transform="translate(-0.5 -0.5)"><switch><foreignObject pointer-events="none" width="100%" height="100%" requiredFeatures="http://www.w3.org/TR/SVG11/feature#Extensibility" style="overflow: visible; text-align: left;"><div xmlns="http://www.w3.org/1999/xhtml" style="display: flex; align-items: unsafe center; justify-content: unsafe center; width: 266px; height: 1px; padding-top: 595px; margin-left: 1111px;"><div data-drawio-colors="color: #111827; " style="box-sizing: border-box; font-size: 0px; text-align: center;"><div style="display: inline-block; font-size: 17px; font-family: Helvetica; color: rgb(17, 24, 39); line-height: 1.2; pointer-events: all; white-space: normal; overflow-wrap: normal;">Local And CI Build<br />bundle exec jekyll serve<br />bundle exec jekyll build<br />bundle exec jekyll doctor</div></div></div></foreignObject><text x="1244" y="600" fill="#111827" font-family="&quot;Helvetica&quot;" font-size="17px" text-anchor="middle">Local And CI Build...</text></switch></g></g></g><g data-cell-id="140"><g><rect x="44" y="740" width="290" height="110" rx="16.5" ry="16.5" fill="#ddd6fe" stroke="#7c3aed" pointer-events="all"/></g><g><g transform="translate(-0.5 -0.5)"><switch><foreignObject pointer-events="none" width="100%" height="100%" requiredFeatures="http://www.w3.org/TR/SVG11/feature#Extensibility" style="overflow: visible; text-align: left;"><div xmlns="http://www.w3.org/1999/xhtml" style="display: flex; align-items: unsafe center; justify-content: unsafe center; width: 276px; height: 1px; padding-top: 795px; margin-left: 51px;"><div data-drawio-colors="color: #111827; " style="box-sizing: border-box; font-size: 0px; text-align: center;"><div style="display: inline-block; font-size: 17px; font-family: Helvetica; color: rgb(17, 24, 39); line-height: 1.2; pointer-events: all; white-space: normal; overflow-wrap: normal;">CI Workflow<br />.github/workflows/ci.yml<br />Ruby setup and Jekyll build</div></div></div></foreignObject><text x="189" y="800" fill="#111827" font-family="&quot;Helvetica&quot;" font-size="17px" text-anchor="middle">CI Workflow...</text></switch></g></g></g><g data-cell-id="150"><g><rect x="1184" y="740" width="270" height="110" rx="16.5" ry="16.5" fill="#fbcfe8" stroke="#be185d" pointer-events="all"/></g><g><g transform="translate(-0.5 -0.5)"><switch><foreignObject pointer-events="none" width="100%" height="100%" requiredFeatures="http://www.w3.org/TR/SVG11/feature#Extensibility" style="overflow: visible; text-align: left;"><div xmlns="http://www.w3.org/1999/xhtml" style="display: flex; align-items: unsafe center; justify-content: unsafe center; width: 256px; height: 1px; padding-top: 795px; margin-left: 1191px;"><div data-drawio-colors="color: #111827; " style="box-sizing: border-box; font-size: 0px; text-align: center;"><div style="display: inline-block; font-size: 18px; font-family: Helvetica; color: rgb(17, 24, 39); line-height: 1.2; pointer-events: all; white-space: normal; overflow-wrap: normal;">Rendered Output<br />_site<br />published static portfolio</div></div></div></foreignObject><text x="1319" y="800" fill="#111827" font-family="&quot;Helvetica&quot;" font-size="18px" text-anchor="middle">Rendered Output...</text></switch></g></g></g><g data-cell-id="500"><g><path d="M 274 160 L 298 160 L 298 165 L 312.76 165" fill="none" stroke="#1f2937" stroke-width="2" stroke-miterlimit="10" pointer-events="stroke"/><path d="M 321.76 165 L 309.76 171 L 312.76 165 L 309.76 159 Z" fill="#1f2937" stroke="#1f2937" stroke-width="2" stroke-miterlimit="10" pointer-events="all"/></g></g><g data-cell-id="501"><g><path d="M 274 165 L 298 165 L 298 264.8 L 660 264.8 L 660 140 L 672.76 140" fill="none" stroke="#1f2937" stroke-width="2" stroke-miterlimit="10" pointer-events="stroke"/><path d="M 681.76 140 L 669.76 146 L 672.76 140 L 669.76 134 Z" fill="#1f2937" stroke="#1f2937" stroke-width="2" stroke-miterlimit="10" pointer-events="all"/></g></g><g data-cell-id="502"><g><path d="M 84 210 L 84 234 L 12 234 L 12 516 L 194 516 L 194 528.76" fill="none" stroke="#1f2937" stroke-width="2" stroke-miterlimit="10" pointer-events="stroke"/><path d="M 194 537.76 L 188 525.76 L 194 528.76 L 200 525.76 Z" fill="#1f2937" stroke="#1f2937" stroke-width="2" stroke-miterlimit="10" pointer-events="all"/></g></g><g data-cell-id="503"><g><path d="M 234 210 L 234 234 L 292 234 C 292 226.2 304 226.2 304 234 L 304 234 L 654 234 C 654 226.2 666 226.2 666 234 L 666 234 L 1018 234 L 1018 516 L 544 516 L 544 528.76" fill="none" stroke="#1f2937" stroke-width="2" stroke-miterlimit="10" pointer-events="stroke"/><path d="M 544 537.76 L 538 525.76 L 544 528.76 L 550 525.76 Z" fill="#1f2937" stroke="#1f2937" stroke-width="2" stroke-miterlimit="10" pointer-events="all"/></g></g><g data-cell-id="504"><g><path d="M 274 170 L 298 170 L 298 228 C 305.8 228 305.8 240 298 240 L 298 240 L 298 472 L 720 472 L 720 510 C 727.8 510 727.8 522 720 522 L 720 522 L 720 600 L 732.76 600" fill="none" stroke="#1f2937" stroke-width="2" stroke-miterlimit="10" pointer-events="stroke"/><path d="M 741.76 600 L 729.76 606 L 732.76 600 L 729.76 594 Z" fill="#1f2937" stroke="#1f2937" stroke-width="2" stroke-miterlimit="10" pointer-events="all"/></g></g><g data-cell-id="505"><g><path d="M 344 600 L 368 600 L 368 478 C 375.8 478 375.8 466 368 466 L 368 466 L 368 282.8 L 660 282.8 L 660 240 C 667.8 240 667.8 228 660 228 L 660 228 L 660 190 L 672.76 190" fill="none" stroke="#1f2937" stroke-width="2" stroke-miterlimit="10" pointer-events="stroke"/><path d="M 681.76 190 L 669.76 196 L 672.76 190 L 669.76 184 Z" fill="#1f2937" stroke="#1f2937" stroke-width="2" stroke-miterlimit="10" pointer-events="all"/></g><g><g fill="rgb(0, 0, 0)" font-family="&quot;Helvetica&quot;" text-anchor="middle" font-size="14px"><rect fill="rgb(255, 255, 255)" stroke="none" x="323" y="275" width="158" height="18" stroke-width="0"/><text x="401.3" y="288.3">refresh generated entries</text></g></g></g><g data-cell-id="506"><g><path d="M 544 540 L 544 478 C 551.8 478 551.8 466 544 466 L 544 466 L 544 464 L 374 464 C 374 456.2 362 456.2 362 464 L 362 464 L 304 464 C 304 456.2 292 456.2 292 464 L 292 464 L 194 464 L 194 451.24" fill="none" stroke="#1f2937" stroke-width="2" stroke-miterlimit="10" pointer-events="stroke"/><path d="M 194 442.24 L 200 454.24 L 194 451.24 L 188 454.24 Z" fill="#1f2937" stroke="#1f2937" stroke-width="2" stroke-miterlimit="10" pointer-events="all"/></g><g><g fill="rgb(0, 0, 0)" font-family="&quot;Helvetica&quot;" text-anchor="middle" font-size="14px"><rect fill="rgb(255, 255, 255)" stroke="none" x="328" y="456" width="135" height="18" stroke-width="0"/><text x="394.5" y="469.5">update sanitized data</text></g></g></g><g data-cell-id="507"><g><path d="M 899 540 L 899 516 L 1536 516 L 1536 234 L 1094 234 L 1094 221.24" fill="none" stroke="#1f2937" stroke-width="2" stroke-miterlimit="10" pointer-events="stroke"/><path d="M 1094 212.24 L 1100 224.24 L 1094 221.24 L 1088 224.24 Z" fill="#1f2937" stroke="#1f2937" stroke-width="2" stroke-miterlimit="10" pointer-events="all"/></g><g><g fill="rgb(0, 0, 0)" font-family="&quot;Helvetica&quot;" text-anchor="middle" font-size="14px"><rect fill="rgb(255, 255, 255)" stroke="none" x="1469" y="464" width="135" height="18" stroke-width="0"/><text x="1535.5" y="477.5">optional map artifacts</text></g></g></g><g data-cell-id="508"><g><path d="M 634 165 L 658 165 L 658 228 C 665.8 228 665.8 240 658 240 L 658 240 L 658 258.8 C 665.8 258.8 665.8 270.8 658 270.8 L 658 270.8 L 658 276.8 C 665.8 276.8 665.8 288.8 658 288.8 L 658 288.8 L 658 466 C 665.8 466 665.8 478 658 478 L 658 478 L 658 510 C 665.8 510 665.8 522 658 522 L 658 522 L 658 665 L 1080 665 L 1080 570 L 1092.76 570" fill="none" stroke="#1f2937" stroke-width="2" stroke-miterlimit="10" pointer-events="stroke"/><path d="M 1101.76 570 L 1089.76 576 L 1092.76 570 L 1089.76 564 Z" fill="#1f2937" stroke="#1f2937" stroke-width="2" stroke-miterlimit="10" pointer-events="all"/></g></g><g data-cell-id="509"><g><path d="M 809 230 L 809 234 L 809 254 L 1012 254 C 1012 246.2 1024 246.2 1024 254 L 1024 254 L 1217 254 L 1217 506 L 1144 506 L 1144 510 C 1151.8 510 1151.8 522 1144 522 L 1144 522 L 1144 518.76" fill="none" stroke="#1f2937" stroke-width="2" stroke-miterlimit="10" pointer-events="stroke"/><path d="M 1144 527.76 L 1138 515.76 L 1144 518.76 L 1150 515.76 Z" fill="#1f2937" stroke="#1f2937" stroke-width="2" stroke-miterlimit="10" pointer-events="all"/></g></g><g data-cell-id="510"><g><path d="M 1094 210 L 1094 234 L 1235 234 L 1235 506 L 1210.7 506 L 1210.7 510 C 1218.5 510 1218.5 522 1210.7 522 L 1210.7 522 L 1210.7 518.76" fill="none" stroke="#1f2937" stroke-width="2" stroke-miterlimit="10" pointer-events="stroke"/><path d="M 1210.7 527.76 L 1204.7 515.76 L 1210.7 518.76 L 1216.7 515.76 Z" fill="#1f2937" stroke="#1f2937" stroke-width="2" stroke-miterlimit="10" pointer-events="all"/></g></g><g data-cell-id="511"><g><path d="M 1379 220 L 1379 228 C 1386.8 228 1386.8 240 1379 240 L 1379 240 L 1379 244 L 1253 244 L 1253 506 L 1277.3 506 L 1277.3 510 C 1285.1 510 1285.1 522 1277.3 522 L 1277.3 522 L 1277.3 518.76" fill="none" stroke="#1f2937" stroke-width="2" stroke-miterlimit="10" pointer-events="stroke"/><path d="M 1277.3 527.76 L 1271.3 515.76 L 1277.3 518.76 L 1283.3 515.76 Z" fill="#1f2937" stroke="#1f2937" stroke-width="2" stroke-miterlimit="10" pointer-events="all"/></g></g><g data-cell-id="512"><g><path d="M 344 375 L 368 375 L 368 458 C 375.8 458 375.8 470 368 470 L 368 470 L 368 466 C 375.8 466 375.8 478 368 478 L 368 478 L 368 683 L 1080 683 L 1080 586.7 L 1092.76 586.7" fill="none" stroke="#1f2937" stroke-width="2" stroke-miterlimit="10" pointer-events="stroke"/><path d="M 1101.76 586.7 L 1089.76 592.7 L 1092.76 586.7 L 1089.76 580.7 Z" fill="#1f2937" stroke="#1f2937" stroke-width="2" stroke-miterlimit="10" pointer-events="all"/></g></g><g data-cell-id="513"><g><path d="M 684 375 L 708 375 L 708 466 C 715.8 466 715.8 478 708 478 L 708 478 L 708 499 L 714 499 C 714 491.2 726 491.2 726 499 L 726 499 L 1012 499 C 1012 491.2 1024 491.2 1024 499 L 1024 499 L 1211 499 C 1211 491.2 1223 491.2 1223 499 L 1223 499 L 1230 499 L 1230 240 C 1237.8 240 1237.8 228 1230 228 L 1230 228 L 1230 165 L 1242.76 165" fill="none" stroke="#1f2937" stroke-width="2" stroke-miterlimit="10" pointer-events="stroke"/><path d="M 1251.76 165 L 1239.76 171 L 1242.76 165 L 1239.76 159 Z" fill="#1f2937" stroke="#1f2937" stroke-width="2" stroke-miterlimit="10" pointer-events="all"/></g><g><g fill="rgb(0, 0, 0)" font-family="&quot;Helvetica&quot;" text-anchor="middle" font-size="14px"><rect fill="rgb(255, 255, 255)" stroke="none" x="964" y="491" width="222" height="18" stroke-width="0"/><text x="1073.5" y="504.5">examples stay outside runtime path</text></g></g></g><g data-cell-id="514"><g><path d="M 994 375 L 1018 375 L 1018 493 C 1025.8 493 1025.8 505 1018 505 L 1018 505 L 1018 510 C 1025.8 510 1025.8 522 1018 522 L 1018 522 L 1018 659 C 1025.8 659 1025.8 671 1018 671 L 1018 671 L 1018 677 C 1025.8 677 1025.8 689 1018 689 L 1018 689 L 1018 701 L 1080 701 L 1080 603.3 L 1092.76 603.3" fill="none" stroke="#1f2937" stroke-width="2" stroke-miterlimit="10" pointer-events="stroke"/><path d="M 1101.76 603.3 L 1089.76 609.3 L 1092.76 603.3 L 1089.76 597.3 Z" fill="#1f2937" stroke="#1f2937" stroke-width="2" stroke-miterlimit="10" pointer-events="all"/></g></g><g data-cell-id="515"><g><path d="M 1204 440 L 1204 464 L 1211 464 C 1211 456.2 1223 456.2 1223 464 L 1223 464 L 1230 464 L 1235 464 L 1247 464 C 1247 456.2 1259 456.2 1259 464 L 1259 464 L 1271 464 L 1271 506 L 1344 506 L 1344 510 C 1351.8 510 1351.8 522 1344 522 L 1344 522 L 1344 518.76" fill="none" stroke="#1f2937" stroke-width="2" stroke-miterlimit="10" pointer-events="stroke"/><path d="M 1344 527.76 L 1338 515.76 L 1344 518.76 L 1350 515.76 Z" fill="#1f2937" stroke="#1f2937" stroke-width="2" stroke-miterlimit="10" pointer-events="all"/></g></g><g data-cell-id="516"><g><path d="M 334 795 L 358 795 L 358 719 L 1080 719 L 1080 620 L 1092.76 620" fill="none" stroke="#1f2937" stroke-width="2" stroke-miterlimit="10" pointer-events="stroke"/><path d="M 1101.76 620 L 1089.76 626 L 1092.76 620 L 1089.76 614 Z" fill="#1f2937" stroke="#1f2937" stroke-width="2" stroke-miterlimit="10" pointer-events="all"/></g></g><g data-cell-id="517"><g><path d="M 1244 660 L 1244 684 L 1319 684 L 1319 728.76" fill="none" stroke="#1f2937" stroke-width="2" stroke-miterlimit="10" pointer-events="stroke"/><path d="M 1319 737.76 L 1313 725.76 L 1319 728.76 L 1325 725.76 Z" fill="#1f2937" stroke="#1f2937" stroke-width="2" stroke-miterlimit="10" pointer-events="all"/></g></g></g></g></g><switch><g requiredFeatures="http://www.w3.org/TR/SVG11/feature#Extensibility"/><a transform="translate(0,-5)" xlink:href="https://www.drawio.com/doc/faq/svg-export-text-problems" target="_blank"><text text-anchor="middle" font-size="10px" x="50%" y="100%">Text is not SVG - cannot display</text></a></switch></svg>
