<?plantuml 1.2026.2?><svg xmlns="http://www.w3.org/2000/svg" xmlns:xlink="http://www.w3.org/1999/xlink" contentStyleType="text/css" data-diagram-type="DESCRIPTION" height="1768px" preserveAspectRatio="none" style="width:540px;height:1768px;background:#FFFFFF;" version="1.1" viewBox="0 0 540 1768" width="540px" zoomAndPan="magnify"><title>casonk.github.io Shell Script Flow</title><defs/><g><g class="title" data-source-line="1"><text fill="#000000" font-family="Monospace" font-size="14" font-weight="bold" lengthAdjust="spacing" textLength="232.4097" x="146.9137" y="24.9659">casonk.github.io&#160;Shell&#160;Script&#160;Flow</text></g><!--entity shell_site_scripts_run_tachometer_profile_sh--><g class="entity" data-qualified-name="shell_site_scripts_run_tachometer_profile_sh" data-source-line="7" id="ent0002"><rect fill="#DBEAFE" height="77.2038" rx="2.5" ry="2.5" style="stroke:#181818;stroke-width:0.5;" width="276.983" x="33.21" y="1558.0179"/><text fill="#000000" font-family="Monospace" font-size="14" lengthAdjust="spacing" textLength="256.983" x="43.21" y="1582.9839">_site/scripts/run_tachometer_profile.sh</text><text fill="#000000" font-family="Monospace" font-size="14" lengthAdjust="spacing" textLength="119.3915" x="43.21" y="1602.0518">0&#160;local&#160;shell&#160;edges</text><text fill="#000000" font-family="Monospace" font-size="14" lengthAdjust="spacing" textLength="101.7516" x="43.21" y="1621.1197">3&#160;external&#160;tools</text></g><!--entity shell_scripts_install_weekly_blog_agentic_systemd_sh--><g class="entity" data-qualified-name="shell_scripts_install_weekly_blog_agentic_systemd_sh" data-source-line="8" id="ent0003"><rect fill="#DBEAFE" height="77.2038" rx="2.5" ry="2.5" style="stroke:#181818;stroke-width:0.5;" width="329.3988" x="7" y="144.0179"/><text fill="#000000" font-family="Monospace" font-size="14" lengthAdjust="spacing" textLength="309.3988" x="17" y="168.9839">scripts/install_weekly_blog_agentic_systemd.sh</text><text fill="#000000" font-family="Monospace" font-size="14" lengthAdjust="spacing" textLength="119.3915" x="17" y="188.0518">0&#160;local&#160;shell&#160;edges</text><text fill="#000000" font-family="Monospace" font-size="14" lengthAdjust="spacing" textLength="101.7516" x="17" y="207.1197">2&#160;external&#160;tools</text></g><!--entity shell_scripts_run_tachometer_profile_sh--><g class="entity" data-qualified-name="shell_scripts_run_tachometer_profile_sh" data-source-line="9" id="ent0004"><rect fill="#DBEAFE" height="77.2038" rx="2.5" ry="2.5" style="stroke:#181818;stroke-width:0.5;" width="242.2912" x="50.55" y="1670.0179"/><text fill="#000000" font-family="Monospace" font-size="14" lengthAdjust="spacing" textLength="222.2912" x="60.55" y="1694.9839">scripts/run_tachometer_profile.sh</text><text fill="#000000" font-family="Monospace" font-size="14" lengthAdjust="spacing" textLength="119.3915" x="60.55" y="1714.0518">0&#160;local&#160;shell&#160;edges</text><text fill="#000000" font-family="Monospace" font-size="14" lengthAdjust="spacing" textLength="101.7516" x="60.55" y="1733.1197">3&#160;external&#160;tools</text></g><!--entity shell_scripts_weekly_blog_agentic_sh--><g class="entity" data-qualified-name="shell_scripts_weekly_blog_agentic_sh" data-source-line="10" id="ent0005"><rect fill="#DBEAFE" height="77.2038" rx="2.5" ry="2.5" style="stroke:#181818;stroke-width:0.5;" width="222.6632" x="60.37" y="816.0179"/><text fill="#000000" font-family="Monospace" font-size="14" lengthAdjust="spacing" textLength="202.6632" x="70.37" y="840.9839">scripts/weekly_blog_agentic.sh</text><text fill="#000000" font-family="Monospace" font-size="14" lengthAdjust="spacing" textLength="119.3915" x="70.37" y="860.0518">0&#160;local&#160;shell&#160;edges</text><text fill="#000000" font-family="Monospace" font-size="14" lengthAdjust="spacing" textLength="109.7596" x="70.37" y="879.1197">16&#160;external&#160;tools</text></g><!--entity tool_cd--><g class="entity" data-qualified-name="tool_cd" data-source-line="11" id="ent0006"><path d="M445.2182,293.102 C449.0866,283.0177 455.9354,283.4183 462.6831,290.1033 C470.15,283.4367 474.4935,286.2912 478.0858,294.1983 C486.7012,297.3511 487.1893,302.8433 481.8838,309.4603 C487.8314,315.6174 487.4532,323.5145 478.0031,326.0752 C475.6949,335.8675 468.4331,336.8706 461.0892,331.8096 C453.29,337.8764 448.0562,335.1537 445.6627,326.2422 C434.9025,324.9926 433.4903,319.5466 438.1137,310.7843 C432.404,302.7136 433.9507,294.3515 445.2182,293.102" fill="#FEF3C7" style="stroke:#181818;stroke-width:0.5;"/><text fill="#000000" font-family="Monospace" font-size="14" lengthAdjust="spacing" textLength="19.5299" x="451.3" y="314.0539">(cd</text></g><!--entity tool_attempt--><g class="entity" data-qualified-name="tool_attempt" data-source-line="12" id="ent0007"><path d="M428.2494,376.6801 C431.8439,370.6821 436.3709,371.4306 439.614,377.0247 C442.7806,371.9931 446.3406,371.1238 450.3685,376.0992 C453.4239,370.2776 458.814,369.4942 463.1194,374.647 C466.7326,370.9714 469.7814,370.9216 472.2632,375.8496 C476.3462,370.8618 480.4437,370.5405 483.6968,376.7008 C487.4543,371.4993 491.7271,370.7474 495.5591,376.621 C503.5179,381.0836 503.4482,387.3877 497.2616,393.2946 C503.6205,399.8689 504.0416,406.5293 494.6065,410.6934 C493.1306,416.7185 488.4486,416.9142 484.4581,413.3564 C481.7553,418.846 478.4349,419.8764 473.7727,415.4727 C471.9967,421.4339 469.2294,424.1998 463.1619,419.9184 C457.5571,423.7182 452.2995,423.5268 450.7901,415.5983 C446.8448,419.838 442.8021,418.341 440.6747,413.5598 C435.2654,419.4323 431.0713,417.7796 428.4262,410.9039 C419.5423,406.0788 419.8183,399.9296 428.125,394.7832 C419.501,388.7335 420.1302,382.6148 428.2494,376.6801" fill="#FEF3C7" style="stroke:#181818;stroke-width:0.5;"/><text fill="#000000" font-family="Monospace" font-size="14" lengthAdjust="spacing" textLength="52.6118" x="434.76" y="398.0539">attempt</text></g><!--entity tool_bundle--><g class="entity" data-qualified-name="tool_bundle" data-source-line="13" id="ent0008"><path d="M433.1453,461.8825 C437.5844,454.8866 442.0289,453.9938 447.2723,461.0754 C450.5079,452.1824 457.9996,452.7038 463.2387,458.9643 C468.5847,451.7597 474.3656,453.3371 478.1505,460.576 C482.0286,453.6439 486.8948,453.6172 491.2637,460.0961 C503.5381,459.8473 507.5579,467.8294 502.1584,478.2104 C507.6947,486.6768 503.314,494.7091 493.2277,494.7294 C487.5074,503.4216 481.4596,502.4231 476.0761,494.3842 C472.3178,501.3031 465.7604,502.3061 461.2916,495.1294 C456.3815,500.6988 451.5629,500.3775 447.2372,494.4171 C442.7647,501.8386 436.718,502.3478 432.138,494.5235 C423.2863,489.6767 423.094,484.0952 430.7552,477.8767 C425.0058,471.8802 425.0622,465.8119 433.1453,461.8825" fill="#FEF3C7" style="stroke:#181818;stroke-width:0.5;"/><text fill="#000000" font-family="Monospace" font-size="14" lengthAdjust="spacing" textLength="46.0318" x="438.05" y="482.0539">bundle</text></g><!--entity tool_cat--><g class="entity" data-qualified-name="tool_cat" data-source-line="14" id="ent0009"><path d="M445.1682,209.102 C449.0519,198.992 455.9192,199.3969 462.6821,206.1033 C470.1659,199.411 474.5246,202.2705 478.1338,210.1983 C486.7492,213.3511 487.2373,218.8433 481.9319,225.4603 C487.8794,231.6174 487.5012,239.5145 478.0511,242.0752 C475.7283,251.8909 468.4467,252.8902 461.0882,247.8096 C453.2732,253.9014 448.0219,251.1764 445.6127,242.2422 C434.8525,240.9926 433.4403,235.5466 438.0637,226.7843 C432.354,218.7136 433.9007,210.3515 445.1682,209.102" fill="#FEF3C7" style="stroke:#181818;stroke-width:0.5;"/><text fill="#000000" font-family="Monospace" font-size="14" lengthAdjust="spacing" textLength="19.6279" x="451.25" y="230.0539">cat</text></g><!--entity tool_cmd_model--><g class="entity" data-qualified-name="tool_cmd_model" data-source-line="15" id="ent0010"><path d="M405.7562,544.7978 C409.7531,540.1948 412.979,540.8551 416.0452,545.8007 C418.9377,539.1927 423.2057,539.784 427.8202,543.9121 C431.3055,537.7087 436.0004,539.2037 439.2355,544.1678 C442.8015,538.3333 446.6047,537.8019 451.3029,542.9203 C455.0442,537.5172 458.3111,537.0955 462.088,542.886 C465.6298,538.7371 470.3437,538.6918 472.9852,543.9309 C476.7293,538.2154 482.0318,537.0833 485.7551,543.9519 C489.0559,539.0637 492.6883,539.2353 495.7286,544.2153 C499.3884,539.2139 504.8072,537.8044 508.199,544.5009 C511.2396,539.6726 516.7267,538.6007 519.8666,544.3918 C529.0914,548.2793 533.2371,553.6283 525.2474,562.6023 C530.3653,570.0347 528.0107,576.7221 518.495,577.5391 C515.42,583.3641 511.86,584.3067 507.3871,578.9246 C504.7467,584.0474 499.6911,585.2155 496.3163,579.688 C492.5785,584.9086 487.6457,585.9912 484.1765,579.4116 C481.5411,584.4227 477.2881,586.5609 473.1005,581.0448 C470.6749,585.936 465.9873,585.9102 462.7721,581.9682 C457.6653,588.349 453.8192,587.5851 450.0045,580.7225 C446.0753,585.1764 442.4452,584.8981 439.7927,579.411 C436.8484,584.9762 430.7095,585.193 427.1677,580.1201 C422.4719,585.5116 418.1373,584.2215 415.9946,577.7212 C413.2034,583.4061 408.785,582.4047 405.6236,578.1057 C396.7664,575.9928 393.2842,568.6076 400.61,561.5839 C393.9511,553.9749 396.6593,547.5765 405.7562,544.7978" fill="#FEF3C7" style="stroke:#181818;stroke-width:0.5;"/><text fill="#000000" font-family="Monospace" font-size="14" lengthAdjust="spacing" textLength="99.3296" x="411.4" y="566.0539">cmd+=(--model</text></g><!--entity tool_cp--><g class="entity" data-qualified-name="tool_cp" data-source-line="16" id="ent0011"><path d="M446.7622,629.0323 C450.1414,620.4328 457.0268,620.0931 462.4715,626.9303 C467.4542,620.4157 474.168,622.0322 476.4224,629.6278 C484.6303,633.45 485.2838,639.6574 478.1757,645.2036 C484.9178,651.44 485.3258,657.9807 476.1702,662.3585 C475.2666,670.9066 470.4432,674.0609 462.2571,671.3891 C452.105,676.862 447.2623,672.434 446.7754,661.9888 C436.9119,658.3344 437.3194,651.1654 444.1954,644.9728 C438.6039,639.0023 437.4632,632.6052 446.7622,629.0323" fill="#FEF3C7" style="stroke:#181818;stroke-width:0.5;"/><text fill="#000000" font-family="Monospace" font-size="14" lengthAdjust="spacing" textLength="15.3299" x="453.4" y="650.0539">cp</text></g><!--entity tool_find--><g class="entity" data-qualified-name="tool_find" data-source-line="17" id="ent0012"><path d="M442.8842,713.4113 C446.8504,704.1455 456.1096,702.4751 461.7251,711.7338 C468.8654,702.4761 476.6718,703.1726 481.5112,714.0004 C491.8044,715.329 492.507,721.7355 488.3061,729.442 C494.4852,737.4771 492.4372,744.6925 482.045,746.724 C480.8382,757.7632 471.5716,761.0773 463.2154,754.2653 C452.7241,761.4606 446.1373,757.7553 442.8264,746.3812 C434.3449,743.4498 433.7464,735.3 440.5038,730.1835 C432.4035,724.6748 434.1934,716.5369 442.8842,713.4113" fill="#FEF3C7" style="stroke:#181818;stroke-width:0.5;"/><text fill="#000000" font-family="Monospace" font-size="14" lengthAdjust="spacing" textLength="25.6899" x="448.22" y="734.0539">find</text></g><!--entity tool_flock--><g class="entity" data-qualified-name="tool_flock" data-source-line="18" id="ent0013"><path d="M439.5142,796.7578 C442.4233,791.2964 446.6043,790.7722 450.0638,796.2259 C452.3241,790.9045 457.3002,788.6576 461.6537,793.9374 C466.0663,789.6432 470.6365,789.6864 473.2634,795.9087 C477.4338,790.3236 483.1287,791.873 485.7302,797.6327 C495.0186,802.3107 495.3113,807.5308 487.9398,814.4038 C494.3088,820.2488 491.6275,827.2834 484.2071,829.7811 C482.6075,834.7315 478.6949,836.9735 474.261,832.9079 C470.9776,839.768 466.2656,840.4458 461.8245,833.9891 C457.4848,837.9485 453.8861,838.5218 451.2061,832.2642 C447.0396,837.3505 443.3228,836.8906 440.6124,830.8747 C431.1551,828.7025 428.7653,820.867 434.2141,813.2755 C427.471,806.2261 430.9012,798.8799 439.5142,796.7578" fill="#FEF3C7" style="stroke:#181818;stroke-width:0.5;"/><text fill="#000000" font-family="Monospace" font-size="14" lengthAdjust="spacing" textLength="31.0939" x="445.52" y="818.0539">flock</text></g><!--entity tool_git--><g class="entity" data-qualified-name="tool_git" data-source-line="19" id="ent0014"><path d="M447.2462,880.723 C451.5291,874.5123 455.7758,872.2891 461.2325,879.4998 C467.2198,871.6733 473.2577,874.7418 477.0529,881.8257 C486.3157,883.2 490.078,888.6175 484.6094,897.222 C491.6515,905.3238 488.5648,912.1105 478.3843,913.7096 C478.0498,924.4234 470.156,926.8568 462.3338,920.9334 C454.0135,925.8881 447.2347,924.6338 445.5617,913.8497 C437.0102,911.6116 434.0512,904.791 439.9553,897.5737 C434.5314,888.4941 437.6203,883.2909 447.2462,880.723" fill="#FEF3C7" style="stroke:#181818;stroke-width:0.5;"/><text fill="#000000" font-family="Monospace" font-size="14" lengthAdjust="spacing" textLength="17.2759" x="452.43" y="902.0539">git</text></g><!--entity tool_ln--><g class="entity" data-qualified-name="tool_ln" data-source-line="20" id="ent0015"><path d="M449.3732,965.6683 C451.1869,958.4882 456.8391,957.2476 461.7055,962.6846 C467.8942,956.1569 472.7075,957.8913 475.4682,965.9246 C483.3389,970.4562 482.598,976.1729 476.0263,981.2311 C482.95,985.9808 482.659,993.1934 475.3913,997.3852 C474.6636,1007.5835 469.9813,1009.8162 461.2647,1004.8056 C455.4419,1008.6734 449.1239,1006.852 449.0398,998.8802 C437.2652,998.13 433.3057,990.2809 440.8202,980.7741 C436.9509,972.6026 440.0608,966.3763 449.3732,965.6683" fill="#FEF3C7" style="stroke:#181818;stroke-width:0.5;"/><text fill="#000000" font-family="Monospace" font-size="14" lengthAdjust="spacing" textLength="12.2639" x="454.93" y="986.0539">ln</text></g><!--entity tool_mkdir--><g class="entity" data-qualified-name="tool_mkdir" data-source-line="21" id="ent0016"><path d="M436.0913,1048.6453 C439.9159,1042.8092 445.2433,1042.8081 448.5687,1049.1565 C452.0958,1042.2931 457.6626,1042.5706 462.3947,1047.7761 C466.3326,1041.7431 470.5804,1042.2672 474.8756,1047.3759 C479.2227,1042.0338 484.4754,1041.5913 487.5807,1048.6484 C500.1844,1048.868 502.7208,1056.0573 498.3245,1066.5053 C502.9129,1075.2585 497.4185,1081.689 488.5093,1081.7543 C485.5707,1088.0177 481.6979,1090.2713 475.8534,1084.921 C473.0057,1091.6074 466.8146,1093.2515 461.4939,1087.8614 C456.0632,1092.3793 452.1774,1090.2275 450.105,1084.2257 C444.4231,1091.4477 438.0104,1089.4697 434.9583,1081.5884 C425.6084,1079.5254 421.2333,1075.0298 427.0915,1065.5208 C421.6352,1055.0865 425.8996,1050.7344 436.0913,1048.6453" fill="#FEF3C7" style="stroke:#181818;stroke-width:0.5;"/><text fill="#000000" font-family="Monospace" font-size="14" lengthAdjust="spacing" textLength="38.5699" x="441.78" y="1070.0539">mkdir</text></g><!--entity tool_null--><g class="entity" data-qualified-name="tool_null" data-source-line="22" id="ent0017"><path d="M442.3832,1132.7753 C447.3139,1123.269 456.8063,1122.5327 462.4871,1131.9796 C469.3745,1124.1783 475.1299,1124.2063 480.3474,1133.7036 C490.9029,1134.3533 493.1537,1140.9472 488.3375,1149.4145 C493.1153,1158.244 489.7124,1163.2086 480.7059,1165.4972 C475.4831,1175.5659 469.7218,1176.268 462.0039,1168.0488 C455.2876,1175.7388 446.905,1176.5605 442.6721,1165.4898 C433.6682,1164.1819 430.9461,1157.2238 437.189,1150.3823 C429.869,1143.1511 433.6346,1135.266 442.3832,1132.7753" fill="#FEF3C7" style="stroke:#181818;stroke-width:0.5;"/><text fill="#000000" font-family="Monospace" font-size="14" lengthAdjust="spacing" textLength="24.5279" x="448.8" y="1154.0539">null</text></g><!--entity tool_run--><g class="entity" data-qualified-name="tool_run" data-source-line="23" id="ent0018"><path d="M442.7302,1553.7206 C447.6018,1544.5793 455.9048,1542.9796 462.9651,1551.1643 C468.8287,1543.4004 477.1535,1545.1383 480.5527,1553.8025 C490.1423,1554.5113 495.8316,1559.2644 490.3444,1569.4237 C495.5785,1578.8702 492.0765,1584.29 481.703,1585.1728 C481.4646,1597.8975 475.1331,1602.8921 463.1397,1596.7209 C452.233,1601.7536 445.0706,1600.2676 444.3702,1586.5203 C434.7093,1585.6856 430.9211,1577.594 436.2739,1569.5827 C431.2185,1561.4557 433.6347,1556.0877 442.7302,1553.7206" fill="#FEF3C7" style="stroke:#181818;stroke-width:0.5;"/><text fill="#000000" font-family="Monospace" font-size="14" lengthAdjust="spacing" textLength="23.0859" x="449.52" y="1574.0539">run</text></g><!--entity tool_sed--><g class="entity" data-qualified-name="tool_sed" data-source-line="24" id="ent0019"><path d="M442.6702,1217.7206 C447.5602,1208.5532 455.8893,1206.9518 462.9681,1215.1643 C468.8481,1207.3701 477.203,1209.1097 480.6187,1217.8025 C490.2083,1218.5113 495.8976,1223.2644 490.4104,1233.4237 C495.6445,1242.8702 492.1425,1248.29 481.769,1249.1728 C481.5107,1261.9283 475.1561,1266.9254 463.1427,1260.7209 C452.2148,1265.782 445.0318,1264.3022 444.3102,1250.5203 C434.6493,1249.6856 430.8611,1241.594 436.2139,1233.5827 C431.1585,1225.4557 433.5747,1220.0877 442.6702,1217.7206" fill="#FEF3C7" style="stroke:#181818;stroke-width:0.5;"/><text fill="#000000" font-family="Monospace" font-size="14" lengthAdjust="spacing" textLength="23.2119" x="449.46" y="1238.0539">sed</text></g><!--entity tool_sort--><g class="entity" data-qualified-name="tool_sort" data-source-line="25" id="ent0020"><path d="M443.0972,1300.466 C447.8601,1290.3988 454.5373,1291.7233 461.2471,1298.3491 C469.1191,1288.684 478.2698,1292.0462 482.946,1301.9015 C491.1756,1305.4452 492.2939,1311.2303 485.7393,1317.4328 C492.0494,1324.1265 490.9098,1330.8719 482.688,1335.0484 C480.3384,1347.1686 471.098,1348.9849 462.0796,1342.3931 C452.1103,1349.3294 443.6944,1344.3721 441.6883,1333.3507 C432.7934,1328.9442 433.2523,1320.8806 441.9788,1316.7831 C435.6031,1311.5672 435.2505,1304.707 443.0972,1300.466" fill="#FEF3C7" style="stroke:#181818;stroke-width:0.5;"/><text fill="#000000" font-family="Monospace" font-size="14" lengthAdjust="spacing" textLength="26.0119" x="448.06" y="1322.0539">sort</text></g><!--entity tool_summarize--><g class="entity" data-qualified-name="tool_summarize" data-source-line="26" id="ent0021"><path d="M418.5962,1636.5582 C423.7905,1628.938 429.0279,1630.5117 433.4554,1637.3463 C437.0719,1630.1952 442.7794,1630.4295 446.8602,1636.8889 C451.6942,1629.4254 456.4609,1628.1554 462.6659,1635.4173 C466.7267,1628.0497 473.8265,1628.3157 477.4506,1635.8507 C482.0351,1628.9913 488.9265,1629.2684 492.1424,1637.2093 C495.7789,1631.3947 502.479,1630.8323 505.6417,1637.7131 C515.0094,1637.7838 519.1194,1645.6006 514.0293,1653.4012 C519.9739,1662.0143 516.3013,1668.0168 506.7064,1669.6089 C502.9244,1677.4605 495.3345,1677.3684 490.4162,1670.9018 C487.1099,1679.0189 481.8283,1678.5099 476.5695,1672.8665 C473.7774,1680.2474 466.8939,1679.7345 462.8346,1674.2159 C458.0056,1679.7927 453.0355,1680.7718 448.6981,1673.6679 C443.1402,1679.3358 436.8188,1678.6447 433.7219,1670.9165 C429.532,1678.6363 423.0419,1678.6764 419.1676,1670.6253 C408.6076,1669.7699 406.6751,1660.4676 412.1171,1653.1545 C406.8033,1645.9706 407.8692,1637.4798 418.5962,1636.5582" fill="#FEF3C7" style="stroke:#181818;stroke-width:0.5;"/><text fill="#000000" font-family="Monospace" font-size="14" lengthAdjust="spacing" textLength="73.2617" x="424.43" y="1658.0539">summarize</text></g><!--entity tool_systemctl--><g class="entity" data-qualified-name="tool_systemctl" data-source-line="27" id="ent0022"><path d="M423.2243,124.3534 C426.6648,118.4346 433.1893,117.7528 436.29,124.6983 C440.0316,117.9876 445.0685,117.9109 449.6023,123.8655 C453.6341,117.6184 458.1724,118.111 462.6176,123.399 C466.1615,117.3649 469.8275,117.9477 473.7713,122.9966 C478.7321,116.3373 483.2037,117.2981 487.0166,124.1241 C490.604,118.7637 496.8425,117.856 499.8965,124.6875 C508.5928,127.4202 511.5891,135.6276 505.1098,142.7422 C510.4452,148.5469 508.662,155.3289 501.0804,157.6399 C498.511,166.1785 492.9783,166.8496 486.671,161.525 C484.0089,167.1251 479.8698,167.8727 475.2165,163.9101 C472.3541,170.5331 467.0362,172.5256 462.0894,165.9895 C456.648,171.5597 452.2152,170.2314 449.7195,163.1169 C445.3227,168.4105 439.6029,168.7854 436.6861,161.5744 C431.7675,165.6436 427.348,166.3731 424.7884,159.1 C414.0243,155.9817 413.8823,150.1142 419.7576,142.0782 C412.9774,134.82 413.2647,128.3375 423.2243,124.3534" fill="#FEF3C7" style="stroke:#181818;stroke-width:0.5;"/><text fill="#000000" font-family="Monospace" font-size="14" lengthAdjust="spacing" textLength="61.9778" x="430.07" y="146.0539">systemctl</text></g><!--entity tool_tachometer--><g class="entity" data-qualified-name="tool_tachometer" data-source-line="28" id="ent0023"><path d="M417.4072,1720.5407 C420.1807,1715.4674 424.736,1715.8275 427.4674,1720.5838 C431.5484,1714.3592 436.8957,1715.7847 440.3526,1721.2706 C443.6705,1715.7844 446.9263,1715.3578 450.6678,1720.8735 C453.5586,1713.9695 458.1121,1713.9311 462.8458,1718.9988 C466.6608,1713.7614 471.0524,1715.8605 473.3333,1720.6099 C476.4661,1715.4805 480.4949,1715.266 484.016,1720.1974 C487.8574,1714.356 492.7607,1715.4784 495.8276,1721.0023 C498.896,1715.2988 503.5369,1716.5977 506.5123,1721.0997 C514.7408,1724.911 515.4221,1731.9247 508.2596,1737.3871 C516.28,1742.3506 515.761,1748.0323 508.4284,1753.1601 C505.2461,1758.562 500.9587,1759.3027 497.0312,1753.9498 C494.3729,1760.6154 489.3121,1760.8738 484.798,1755.9002 C480.8325,1761.2838 477.5146,1760.5477 473.7971,1755.6352 C471.3891,1761.3225 466.1253,1761.4648 463.1216,1756.2166 C459.7125,1760.9532 454.615,1761.3701 451.4993,1755.8832 C447.4747,1759.6621 442.7651,1759.9421 440.6326,1753.809 C437.633,1760.8278 431.4963,1760.0666 427.4572,1754.9363 C423.9131,1759.4139 418.287,1759.0496 415.9347,1753.5587 C407.1279,1752.4097 404.1725,1744.1643 409.0487,1737.2411 C404.3321,1727.8382 405.7516,1721.7494 417.4072,1720.5407" fill="#FEF3C7" style="stroke:#181818;stroke-width:0.5;"/><text fill="#000000" font-family="Monospace" font-size="14" lengthAdjust="spacing" textLength="76.4677" x="422.83" y="1742.0539">tachometer</text></g><!--entity tool_tee--><g class="entity" data-qualified-name="tool_tee" data-source-line="29" id="ent0024"><path d="M444.9312,1384.1566 C449.2774,1376.5258 456.7457,1375.0628 462.2021,1382.9186 C469.6124,1374.8011 475.7235,1376.7489 480.0145,1386.0994 C489.3859,1387.3515 493.4459,1392.2441 488.611,1401.4512 C494.7018,1411.1779 489.0284,1417.602 479.1401,1418.3996 C476.2278,1428.3786 470.5345,1430.7461 462.1503,1423.9374 C453.8324,1431.0531 446.0146,1427.1497 444.0246,1417.2117 C436.212,1412.933 433.78,1408.3108 441.2887,1401.3839 C434.2208,1394.1659 435.1057,1387.8028 444.9312,1384.1566" fill="#FEF3C7" style="stroke:#181818;stroke-width:0.5;"/><text fill="#000000" font-family="Monospace" font-size="14" lengthAdjust="spacing" textLength="20.8459" x="450.64" y="1406.0539">tee</text></g><!--entity tool_tr--><g class="entity" data-qualified-name="tool_tr" data-source-line="30" id="ent0025"><path d="M450.0552,1468.7404 C453.0137,1461.3125 456.9967,1461.858 462.3854,1466.1931 C467.3012,1461.6489 470.9357,1461.5109 473.7238,1468.3183 C486.4624,1468.1762 489.5584,1473.9014 485.0915,1485.2861 C489.2317,1495.3455 485.0994,1501.92 473.9975,1501.6388 C475.2892,1510.4863 468.946,1514.1091 461.4919,1510.2385 C453.1256,1514.2137 449.6264,1510.9397 449.0285,1502.4631 C438.1288,1501.2307 436.6788,1495.6999 440.5298,1486.5765 C434.6955,1477.0569 439.8437,1469.6909 450.0552,1468.7404" fill="#FEF3C7" style="stroke:#181818;stroke-width:0.5;"/><text fill="#000000" font-family="Monospace" font-size="14" lengthAdjust="spacing" textLength="10.836" x="455.65" y="1490.0539">tr</text></g><g class="entity" data-qualified-name="shellGraphSummary" data-source-line="56" id="ent0050"><path d="M74.78,46.0679 L74.78,109.186 L268.6151,109.186 L268.6151,56.0679 L258.6151,46.0679 L74.78,46.0679" fill="#FEFFDD" style="stroke:#181818;stroke-width:0.5;"/><path d="M258.6151,46.0679 L258.6151,56.0679 L268.6151,56.0679 L258.6151,46.0679" fill="#FEFFDD" style="stroke:#181818;stroke-width:1;"/><text fill="#000000" font-family="Monospace" font-size="13" lengthAdjust="spacing" textLength="141.5311" x="80.78" y="64.9649">Scanned&#160;4&#160;shell&#160;scripts.</text><text fill="#000000" font-family="Monospace" font-size="13" lengthAdjust="spacing" textLength="172.8351" x="80.78" y="82.6709">Detected&#160;0&#160;local&#160;shell&#160;edges.</text><text fill="#000000" font-family="Monospace" font-size="13" lengthAdjust="spacing" textLength="163.8911" x="80.78" y="100.377">Detected&#160;20&#160;external&#160;tools.</text></g><!--link shell_scripts_install_weekly_blog_agentic_systemd_sh to tool_cat--><g class="link" data-entity-1="ent0003" data-entity-2="ent0009" data-link-type="dependency" data-source-line="31" id="lnk26"><path d="M336.67,210.6579 C375.76,210.6579 406.83,210.6579 430.17,210.6579" fill="none" id="shell_scripts_install_weekly_blog_agentic_systemd_sh-to-tool_cat" style="stroke:#181818;stroke-width:1;"/><polygon fill="#181818" points="436.17,210.6579,427.17,206.6579,431.17,210.6579,427.17,214.6579,436.17,210.6579" style="stroke:#181818;stroke-width:1;"/></g><!--link shell_scripts_install_weekly_blog_agentic_systemd_sh to tool_systemctl--><g class="link" data-entity-1="ent0003" data-entity-2="ent0022" data-link-type="dependency" data-source-line="32" id="lnk27"><path d="M336.67,154.5879 C365.35,154.5879 386.95,154.5879 408.83,154.5879" fill="none" id="shell_scripts_install_weekly_blog_agentic_systemd_sh-to-tool_systemctl" style="stroke:#181818;stroke-width:1;"/><polygon fill="#181818" points="414.83,154.5879,405.83,150.5879,409.83,154.5879,405.83,158.5879,414.83,154.5879" style="stroke:#181818;stroke-width:1;"/></g><!--link shell_scripts_run_tachometer_profile_sh to tool_run--><g class="link" data-entity-1="ent0004" data-entity-2="ent0018" data-link-type="dependency" data-source-line="33" id="lnk28"><path d="M293.33,1672.3979 C311.2,1672.3979 323.73,1672.3979 323.73,1672.3979 C323.73,1672.3979 323.73,1581.4479 323.73,1581.4479 C323.73,1581.4479 388.29,1581.4479 428.26,1581.4479" fill="none" id="shell_scripts_run_tachometer_profile_sh-to-tool_run" style="stroke:#181818;stroke-width:1;"/><polygon fill="#181818" points="434.26,1581.4479,425.26,1577.4479,429.26,1581.4479,425.26,1585.4479,434.26,1581.4479" style="stroke:#181818;stroke-width:1;"/></g><!--link shell_scripts_run_tachometer_profile_sh to tool_summarize--><g class="link" data-entity-1="ent0004" data-entity-2="ent0021" data-link-type="dependency" data-source-line="34" id="lnk29"><path d="M293.16,1674.7779 C333.68,1674.7779 370.7,1674.7779 403.05,1674.7779" fill="none" id="shell_scripts_run_tachometer_profile_sh-to-tool_summarize" style="stroke:#181818;stroke-width:1;"/><polygon fill="#181818" points="409.05,1674.7779,400.05,1670.7779,404.05,1674.7779,400.05,1678.7779,409.05,1674.7779" style="stroke:#181818;stroke-width:1;"/></g><!--link shell_scripts_run_tachometer_profile_sh to tool_tachometer--><g class="link" data-entity-1="ent0004" data-entity-2="ent0023" data-link-type="dependency" data-source-line="35" id="lnk30"><path d="M293.16,1735.5179 C333.06,1735.5179 369.38,1735.5179 401.56,1735.5179" fill="none" id="shell_scripts_run_tachometer_profile_sh-to-tool_tachometer" style="stroke:#181818;stroke-width:1;"/><polygon fill="#181818" points="407.56,1735.5179,398.56,1731.5179,402.56,1735.5179,398.56,1739.5179,407.56,1735.5179" style="stroke:#181818;stroke-width:1;"/></g><!--link shell_scripts_weekly_blog_agentic_sh to tool_cd--><g class="link" data-entity-1="ent0005" data-entity-2="ent0006" data-link-type="dependency" data-source-line="36" id="lnk31"><path d="M123.73,815.7979 C123.73,691.0579 123.73,308.6279 123.73,308.6279 C123.73,308.6279 351.81,308.6279 429.98,308.6279" fill="none" id="shell_scripts_weekly_blog_agentic_sh-to-tool_cd" style="stroke:#181818;stroke-width:1;"/><polygon fill="#181818" points="435.98,308.6279,426.98,304.6279,430.98,308.6279,426.98,312.6279,435.98,308.6279" style="stroke:#181818;stroke-width:1;"/></g><!--link shell_scripts_weekly_blog_agentic_sh to tool_attempt--><g class="link" data-entity-1="ent0005" data-entity-2="ent0007" data-link-type="dependency" data-source-line="37" id="lnk32"><path d="M155.73,815.6279 C155.73,704.2479 155.73,392.6279 155.73,392.6279 C155.73,392.6279 330.08,392.6279 413.57,392.6279" fill="none" id="shell_scripts_weekly_blog_agentic_sh-to-tool_attempt" style="stroke:#181818;stroke-width:1;"/><polygon fill="#181818" points="419.57,392.6279,410.57,388.6279,414.57,392.6279,410.57,396.6279,419.57,392.6279" style="stroke:#181818;stroke-width:1;"/></g><!--link shell_scripts_weekly_blog_agentic_sh to tool_bundle--><g class="link" data-entity-1="ent0005" data-entity-2="ent0008" data-link-type="dependency" data-source-line="38" id="lnk33"><path d="M187.73,815.5979 C187.73,719.0179 187.73,476.6279 187.73,476.6279 C187.73,476.6279 341.54,476.6279 416.77,476.6279" fill="none" id="shell_scripts_weekly_blog_agentic_sh-to-tool_bundle" style="stroke:#181818;stroke-width:1;"/><polygon fill="#181818" points="422.77,476.6279,413.77,472.6279,417.77,476.6279,413.77,480.6279,422.77,476.6279" style="stroke:#181818;stroke-width:1;"/></g><!--link shell_scripts_weekly_blog_agentic_sh to tool_cat--><g class="link" data-entity-1="ent0005" data-entity-2="ent0009" data-link-type="dependency" data-source-line="39" id="lnk34"><path d="M91.73,815.8779 C91.73,680.2679 91.73,235.1879 91.73,235.1879 C91.73,235.1879 346.84,235.1879 429.97,235.1879" fill="none" id="shell_scripts_weekly_blog_agentic_sh-to-tool_cat" style="stroke:#181818;stroke-width:1;"/><polygon fill="#181818" points="435.97,235.1879,426.97,231.1879,430.97,235.1879,426.97,239.1879,435.97,235.1879" style="stroke:#181818;stroke-width:1;"/></g><!--link shell_scripts_weekly_blog_agentic_sh to tool_cmd_model--><g class="link" data-entity-1="ent0005" data-entity-2="ent0010" data-link-type="dependency" data-source-line="40" id="lnk35"><path d="M283.34,823.0679 C341.95,823.0679 401.73,823.0679 401.73,823.0679 C401.73,823.0679 401.73,656.6479 401.73,591.3179" fill="none" id="shell_scripts_weekly_blog_agentic_sh-to-tool_cmd_model" style="stroke:#181818;stroke-width:1;"/><polygon fill="#181818" points="401.73,585.3179,397.73,594.3179,401.73,590.3179,405.73,594.3179,401.73,585.3179" style="stroke:#181818;stroke-width:1;"/></g><!--link shell_scripts_weekly_blog_agentic_sh to tool_cp--><g class="link" data-entity-1="ent0005" data-entity-2="ent0011" data-link-type="dependency" data-source-line="41" id="lnk36"><path d="M219.73,815.6179 C219.73,754.8879 219.73,644.6279 219.73,644.6279 C219.73,644.6279 371.52,644.6279 431.92,644.6279" fill="none" id="shell_scripts_weekly_blog_agentic_sh-to-tool_cp" style="stroke:#181818;stroke-width:1;"/><polygon fill="#181818" points="437.92,644.6279,428.92,640.6279,432.92,644.6279,428.92,648.6279,437.92,644.6279" style="stroke:#181818;stroke-width:1;"/></g><!--link shell_scripts_weekly_blog_agentic_sh to tool_find--><g class="link" data-entity-1="ent0005" data-entity-2="ent0012" data-link-type="dependency" data-source-line="42" id="lnk37"><path d="M250.73,815.7879 C250.73,778.7679 250.73,728.6279 250.73,728.6279 C250.73,728.6279 369.92,728.6279 427.13,728.6279" fill="none" id="shell_scripts_weekly_blog_agentic_sh-to-tool_find" style="stroke:#181818;stroke-width:1;"/><polygon fill="#181818" points="433.13,728.6279,424.13,724.6279,428.13,728.6279,424.13,732.6279,433.13,728.6279" style="stroke:#181818;stroke-width:1;"/></g><!--link shell_scripts_weekly_blog_agentic_sh to tool_flock--><g class="link" data-entity-1="ent0005" data-entity-2="ent0013" data-link-type="dependency" data-source-line="43" id="lnk38"><path d="M283.16,830.1079 C336.02,830.1079 389.13,830.1079 424.16,830.1079" fill="none" id="shell_scripts_weekly_blog_agentic_sh-to-tool_flock" style="stroke:#181818;stroke-width:1;"/><polygon fill="#181818" points="430.16,830.1079,421.16,826.1079,425.16,830.1079,421.16,834.1079,430.16,830.1079" style="stroke:#181818;stroke-width:1;"/></g><!--link shell_scripts_weekly_blog_agentic_sh to tool_git--><g class="link" data-entity-1="ent0005" data-entity-2="ent0014" data-link-type="dependency" data-source-line="44" id="lnk39"><path d="M283.16,882.6579 C339.68,882.6579 397.35,882.6579 431.08,882.6579" fill="none" id="shell_scripts_weekly_blog_agentic_sh-to-tool_git" style="stroke:#181818;stroke-width:1;"/><polygon fill="#181818" points="437.08,882.6579,428.08,878.6579,432.08,882.6579,428.08,886.6579,437.08,882.6579" style="stroke:#181818;stroke-width:1;"/></g><!--link shell_scripts_weekly_blog_agentic_sh to tool_ln--><g class="link" data-entity-1="ent0005" data-entity-2="ent0015" data-link-type="dependency" data-source-line="45" id="lnk40"><path d="M254.73,893.4579 C254.73,930.4779 254.73,980.6279 254.73,980.6279 C254.73,980.6279 381.04,980.6279 433.76,980.6279" fill="none" id="shell_scripts_weekly_blog_agentic_sh-to-tool_ln" style="stroke:#181818;stroke-width:1;"/><polygon fill="#181818" points="439.76,980.6279,430.76,976.6279,434.76,980.6279,430.76,984.6279,439.76,980.6279" style="stroke:#181818;stroke-width:1;"/></g><!--link shell_scripts_weekly_blog_agentic_sh to tool_mkdir--><g class="link" data-entity-1="ent0005" data-entity-2="ent0016" data-link-type="dependency" data-source-line="46" id="lnk41"><path d="M227.73,893.6279 C227.73,954.3579 227.73,1064.6279 227.73,1064.6279 C227.73,1064.6279 355.38,1064.6279 420.38,1064.6279" fill="none" id="shell_scripts_weekly_blog_agentic_sh-to-tool_mkdir" style="stroke:#181818;stroke-width:1;"/><polygon fill="#181818" points="426.38,1064.6279,417.38,1060.6279,421.38,1064.6279,417.38,1068.6279,426.38,1064.6279" style="stroke:#181818;stroke-width:1;"/></g><!--link shell_scripts_weekly_blog_agentic_sh to tool_null--><g class="link" data-entity-1="ent0005" data-entity-2="ent0017" data-link-type="dependency" data-source-line="47" id="lnk42"><path d="M199.73,893.6679 C199.73,973.6379 199.73,1148.6279 199.73,1148.6279 C199.73,1148.6279 360.49,1148.6279 427.59,1148.6279" fill="none" id="shell_scripts_weekly_blog_agentic_sh-to-tool_null" style="stroke:#181818;stroke-width:1;"/><polygon fill="#181818" points="433.59,1148.6279,424.59,1144.6279,428.59,1148.6279,424.59,1152.6279,433.59,1148.6279" style="stroke:#181818;stroke-width:1;"/></g><!--link shell_scripts_weekly_blog_agentic_sh to tool_sed--><g class="link" data-entity-1="ent0005" data-entity-2="ent0019" data-link-type="dependency" data-source-line="48" id="lnk43"><path d="M171.73,893.6479 C171.73,990.2279 171.73,1232.6279 171.73,1232.6279 C171.73,1232.6279 356.28,1232.6279 428.1,1232.6279" fill="none" id="shell_scripts_weekly_blog_agentic_sh-to-tool_sed" style="stroke:#181818;stroke-width:1;"/><polygon fill="#181818" points="434.1,1232.6279,425.1,1228.6279,429.1,1232.6279,425.1,1236.6279,434.1,1232.6279" style="stroke:#181818;stroke-width:1;"/></g><!--link shell_scripts_weekly_blog_agentic_sh to tool_sort--><g class="link" data-entity-1="ent0005" data-entity-2="ent0020" data-link-type="dependency" data-source-line="49" id="lnk44"><path d="M143.73,893.6179 C143.73,1004.9979 143.73,1316.6279 143.73,1316.6279 C143.73,1316.6279 348.73,1316.6279 426.62,1316.6279" fill="none" id="shell_scripts_weekly_blog_agentic_sh-to-tool_sort" style="stroke:#181818;stroke-width:1;"/><polygon fill="#181818" points="432.62,1316.6279,423.62,1312.6279,427.62,1316.6279,423.62,1320.6279,432.62,1316.6279" style="stroke:#181818;stroke-width:1;"/></g><!--link shell_scripts_weekly_blog_agentic_sh to tool_tee--><g class="link" data-entity-1="ent0005" data-entity-2="ent0024" data-link-type="dependency" data-source-line="50" id="lnk45"><path d="M115.73,893.4579 C115.73,1018.1879 115.73,1400.6279 115.73,1400.6279 C115.73,1400.6279 349.36,1400.6279 429.39,1400.6279" fill="none" id="shell_scripts_weekly_blog_agentic_sh-to-tool_tee" style="stroke:#181818;stroke-width:1;"/><polygon fill="#181818" points="435.39,1400.6279,426.39,1396.6279,430.39,1400.6279,426.39,1404.6279,435.39,1400.6279" style="stroke:#181818;stroke-width:1;"/></g><!--link shell_scripts_weekly_blog_agentic_sh to tool_tr--><g class="link" data-entity-1="ent0005" data-entity-2="ent0025" data-link-type="dependency" data-source-line="51" id="lnk46"><path d="M87.73,893.5579 C87.73,1030.9079 87.73,1484.6279 87.73,1484.6279 C87.73,1484.6279 355.57,1484.6279 434.19,1484.6279" fill="none" id="shell_scripts_weekly_blog_agentic_sh-to-tool_tr" style="stroke:#181818;stroke-width:1;"/><polygon fill="#181818" points="440.19,1484.6279,431.19,1480.6279,435.19,1484.6279,431.19,1488.6279,440.19,1484.6279" style="stroke:#181818;stroke-width:1;"/></g><!--link shell_site_scripts_run_tachometer_profile_sh to tool_run--><g class="link" data-entity-1="ent0002" data-entity-2="ent0018" data-link-type="dependency" data-source-line="52" id="lnk47"><path d="M310.45,1569.7379 C357.44,1569.7379 399.27,1569.7379 428.06,1569.7379" fill="none" id="shell_site_scripts_run_tachometer_profile_sh-to-tool_run" style="stroke:#181818;stroke-width:1;"/><polygon fill="#181818" points="434.06,1569.7379,425.06,1565.7379,429.06,1569.7379,425.06,1573.7379,434.06,1569.7379" style="stroke:#181818;stroke-width:1;"/></g><!--link shell_site_scripts_run_tachometer_profile_sh to tool_summarize--><g class="link" data-entity-1="ent0002" data-entity-2="ent0021" data-link-type="dependency" data-source-line="53" id="lnk48"><path d="M310.45,1631.6579 C345.69,1631.6579 375.41,1631.6579 403.21,1631.6579" fill="none" id="shell_site_scripts_run_tachometer_profile_sh-to-tool_summarize" style="stroke:#181818;stroke-width:1;"/><polygon fill="#181818" points="409.21,1631.6579,400.21,1627.6579,404.21,1631.6579,400.21,1635.6579,409.21,1631.6579" style="stroke:#181818;stroke-width:1;"/></g><!--link shell_site_scripts_run_tachometer_profile_sh to tool_tachometer--><g class="link" data-entity-1="ent0002" data-entity-2="ent0023" data-link-type="dependency" data-source-line="54" id="lnk49"><path d="M301.73,1635.4679 C301.73,1672.8779 301.73,1723.7979 301.73,1723.7979 C301.73,1723.7979 355.28,1723.7979 401.56,1723.7979" fill="none" id="shell_site_scripts_run_tachometer_profile_sh-to-tool_tachometer" style="stroke:#181818;stroke-width:1;"/><polygon fill="#181818" points="407.56,1723.7979,398.56,1719.7979,402.56,1723.7979,398.56,1727.7979,407.56,1723.7979" style="stroke:#181818;stroke-width:1;"/></g><?plantuml-src hLP1Rjim4Bph5OHp2L3OIPEYERL0szWzjHTV0mWqkPO8Kqj1NC5rNz-Lx8Y4v3Hcq-DoPbQpb3WY6R8WbFGETul2KDbk5iQ9TGdMYhLgJ4rYPTq-ix0bGKuqfYX9QDE08kCmypk3jMna9NmfjTiRBCHMMWyHec4hMqihX_HJLY1-E7I-bYhcA5VL3W5fJGTsrBMNMDYOOWq27MeGhg7IPGD5p79l26vyRzVVD2tc95NfAY1eyhfnMsDXuSidl1NMAMdPQpSVw0By4zuB-CL4v7LoplgPaFx8wFlcfxxv-RwvByNLuzVbbzKojlHing0doPts03jxo3VM5RaiU4wZSd_m19L-sTdTNvoTJ5tG_nM7_tExth9JPoPusSJxZw-xEBibmOAohjLYTgrqh-swv4gBgzLoTV_juHcMn5jOKw2S5iQyJOlQGg0Twp5BoQWJ5nEyqky-NS_dbTDW8oQ_n7vfmgyZKZr6jmQZsRfgmk2jtKMKhXnpE1K2WuinRZ705iTejUEi28I-77EmjT6mNJLcy0SL25oCSG_He5nCS8wCYC3LXD5MbMpCx-WL3aiJRd-k54McXwKnDno3G0vh4pP4p-TYWiTTWlgV8c4-_pnyXs_iC4oVNPe3WvGfwQBXpQHB0vnTb1PXbtIYu1GKYQfZRgHwawcF6H8bLLSd2hhKIPLqAPIeuLnAL5XC5FJHbQZfiYnHmkcLgk0uIvHmjAGgXj4lknATE-29oiafJzH7HnqTmN11-Dx8kbptpG_PMab4_c5yEDqlJlqNsICB5J5ovluHeNUteul88WF-ptOF_0C0?></g></svg>
