<?plantuml 1.2026.2?><svg xmlns="http://www.w3.org/2000/svg" xmlns:xlink="http://www.w3.org/1999/xlink" contentStyleType="text/css" data-diagram-type="DESCRIPTION" height="354px" preserveAspectRatio="none" style="width:463px;height:354px;background:#FFFFFF;" version="1.1" viewBox="0 0 463 354" width="463px" zoomAndPan="magnify"><title>casonk.github.io Shell Script Flow</title><defs/><g><g class="title" data-source-line="1"><text fill="#000000" font-family="Monospace" font-size="14" font-weight="bold" lengthAdjust="spacing" textLength="232.4097" x="108.3621" y="24.9659">casonk.github.io&#160;Shell&#160;Script&#160;Flow</text></g><!--entity shell_site_scripts_run_tachometer_profile_sh--><g class="entity" data-qualified-name="shell_site_scripts_run_tachometer_profile_sh" data-source-line="7" id="ent0002"><rect fill="#DBEAFE" height="77.2038" rx="2.5" ry="2.5" style="stroke:#181818;stroke-width:0.5;" width="276.983" x="7" y="144.0179"/><text fill="#000000" font-family="Monospace" font-size="14" lengthAdjust="spacing" textLength="256.983" x="17" y="168.9839">_site/scripts/run_tachometer_profile.sh</text><text fill="#000000" font-family="Monospace" font-size="14" lengthAdjust="spacing" textLength="119.3915" x="17" y="188.0518">0&#160;local&#160;shell&#160;edges</text><text fill="#000000" font-family="Monospace" font-size="14" lengthAdjust="spacing" textLength="101.7516" x="17" y="207.1197">3&#160;external&#160;tools</text></g><!--entity shell_scripts_run_tachometer_profile_sh--><g class="entity" data-qualified-name="shell_scripts_run_tachometer_profile_sh" data-source-line="8" id="ent0003"><rect fill="#DBEAFE" height="77.2038" rx="2.5" ry="2.5" style="stroke:#181818;stroke-width:0.5;" width="242.2912" x="24.35" y="256.0179"/><text fill="#000000" font-family="Monospace" font-size="14" lengthAdjust="spacing" textLength="222.2912" x="34.35" y="280.9839">scripts/run_tachometer_profile.sh</text><text fill="#000000" font-family="Monospace" font-size="14" lengthAdjust="spacing" textLength="119.3915" x="34.35" y="300.0518">0&#160;local&#160;shell&#160;edges</text><text fill="#000000" font-family="Monospace" font-size="14" lengthAdjust="spacing" textLength="101.7516" x="34.35" y="319.1197">3&#160;external&#160;tools</text></g><!--entity tool_run--><g class="entity" data-qualified-name="tool_run" data-source-line="9" id="ent0004"><path d="M378.8802,139.7206 C383.7518,130.5793 392.0548,128.9796 399.1151,137.1643 C404.9787,129.4004 413.3035,131.1383 416.7027,139.8025 C426.2923,140.5113 431.9816,145.2644 426.4944,155.4237 C431.7285,164.8702 428.2265,170.29 417.853,171.1728 C417.6146,183.8975 411.2831,188.8921 399.2897,182.7209 C388.383,187.7536 381.2206,186.2676 380.5202,172.5203 C370.8593,171.6856 367.0711,163.594 372.4239,155.5827 C367.3685,147.4557 369.7847,142.0877 378.8802,139.7206" fill="#FEF3C7" style="stroke:#181818;stroke-width:0.5;"/><text fill="#000000" font-family="Monospace" font-size="14" lengthAdjust="spacing" textLength="23.0859" x="385.67" y="160.0539">run</text></g><!--entity tool_summarize--><g class="entity" data-qualified-name="tool_summarize" data-source-line="10" id="ent0005"><path d="M354.7562,222.5582 C359.9505,214.938 365.1879,216.5117 369.6154,223.3463 C373.2319,216.1952 378.9394,216.4295 383.0202,222.8889 C387.8542,215.4254 392.6209,214.1554 398.8259,221.4173 C402.8867,214.0497 409.9865,214.3157 413.6106,221.8507 C418.1951,214.9913 425.0865,215.2684 428.3024,223.2093 C431.9389,217.3947 438.639,216.8323 441.8017,223.7131 C451.1694,223.7838 455.2794,231.6006 450.1893,239.4012 C456.1339,248.0143 452.4613,254.0168 442.8664,255.6089 C439.0844,263.4605 431.4945,263.3684 426.5762,256.9018 C423.2699,265.0189 417.9883,264.5099 412.7295,258.8665 C409.9374,266.2474 403.0539,265.7345 398.9946,260.2159 C394.1656,265.7927 389.1955,266.7718 384.8581,259.6679 C379.3002,265.3358 372.9788,264.6447 369.8819,256.9165 C365.692,264.6363 359.2019,264.6764 355.3276,256.6253 C344.7676,255.7699 342.8351,246.4676 348.2771,239.1545 C342.9633,231.9706 344.0292,223.4798 354.7562,222.5582" fill="#FEF3C7" style="stroke:#181818;stroke-width:0.5;"/><text fill="#000000" font-family="Monospace" font-size="14" lengthAdjust="spacing" textLength="73.2617" x="360.59" y="244.0539">summarize</text></g><!--entity tool_tachometer--><g class="entity" data-qualified-name="tool_tachometer" data-source-line="11" id="ent0006"><path d="M353.5572,306.5407 C356.3307,301.4674 360.886,301.8275 363.6174,306.5838 C367.6984,300.3592 373.0457,301.7847 376.5026,307.2706 C379.8205,301.7844 383.0763,301.3578 386.8178,306.8735 C389.7086,299.9695 394.2621,299.9311 398.9958,304.9988 C402.8108,299.7614 407.2024,301.8605 409.4833,306.6099 C412.6161,301.4805 416.6449,301.266 420.166,306.1974 C424.0074,300.356 428.9107,301.4784 431.9776,307.0023 C435.046,301.2988 439.6869,302.5977 442.6623,307.0997 C450.8908,310.911 451.5721,317.9247 444.4096,323.3871 C452.43,328.3506 451.911,334.0323 444.5784,339.1601 C441.3961,344.562 437.1087,345.3027 433.1812,339.9498 C430.5229,346.6154 425.4621,346.8738 420.948,341.9002 C416.9825,347.2838 413.6646,346.5477 409.9471,341.6352 C407.5391,347.3225 402.2753,347.4648 399.2716,342.2166 C395.8625,346.9532 390.765,347.3701 387.6493,341.8832 C383.6247,345.6621 378.9151,345.9421 376.7826,339.809 C373.783,346.8278 367.6463,346.0666 363.6072,340.9363 C360.0631,345.4139 354.437,345.0496 352.0847,339.5587 C343.2779,338.4097 340.3225,330.1643 345.1987,323.2411 C340.4821,313.8382 341.9016,307.7494 353.5572,306.5407" fill="#FEF3C7" style="stroke:#181818;stroke-width:0.5;"/><text fill="#000000" font-family="Monospace" font-size="14" lengthAdjust="spacing" textLength="76.4677" x="358.98" y="328.0539">tachometer</text></g><g class="entity" data-qualified-name="shellGraphSummary" data-source-line="19" id="ent0013"><path d="M48.57,46.0679 L48.57,109.186 L242.4051,109.186 L242.4051,56.0679 L232.4051,46.0679 L48.57,46.0679" fill="#FEFFDD" style="stroke:#181818;stroke-width:0.5;"/><path d="M232.4051,46.0679 L232.4051,56.0679 L242.4051,56.0679 L232.4051,46.0679" fill="#FEFFDD" style="stroke:#181818;stroke-width:1;"/><text fill="#000000" font-family="Monospace" font-size="13" lengthAdjust="spacing" textLength="141.5311" x="54.57" y="64.9649">Scanned&#160;2&#160;shell&#160;scripts.</text><text fill="#000000" font-family="Monospace" font-size="13" lengthAdjust="spacing" textLength="172.8351" x="54.57" y="82.6709">Detected&#160;0&#160;local&#160;shell&#160;edges.</text><text fill="#000000" font-family="Monospace" font-size="13" lengthAdjust="spacing" textLength="156.4551" x="54.57" y="100.377">Detected&#160;3&#160;external&#160;tools.</text></g><!--link shell_scripts_run_tachometer_profile_sh to tool_run--><g class="link" data-entity-1="ent0003" data-entity-2="ent0004" data-link-type="dependency" data-source-line="12" id="lnk7"><path d="M266.94,258.3979 C293.8,258.3979 314.45,258.3979 314.45,258.3979 C314.45,258.3979 314.45,167.4479 314.45,167.4479 C314.45,167.4479 340.38,167.4479 364.57,167.4479" fill="none" id="shell_scripts_run_tachometer_profile_sh-to-tool_run" style="stroke:#181818;stroke-width:1;"/><polygon fill="#181818" points="370.57,167.4479,361.57,163.4479,365.57,167.4479,361.57,171.4479,370.57,167.4479" style="stroke:#181818;stroke-width:1;"/></g><!--link shell_scripts_run_tachometer_profile_sh to tool_summarize--><g class="link" data-entity-1="ent0003" data-entity-2="ent0005" data-link-type="dependency" data-source-line="13" id="lnk8"><path d="M266.93,260.7779 C294.46,260.7779 316.28,260.7779 339.1,260.7779" fill="none" id="shell_scripts_run_tachometer_profile_sh-to-tool_summarize" style="stroke:#181818;stroke-width:1;"/><polygon fill="#181818" points="345.1,260.7779,336.1,256.7779,340.1,260.7779,336.1,264.7779,345.1,260.7779" style="stroke:#181818;stroke-width:1;"/></g><!--link shell_scripts_run_tachometer_profile_sh to tool_tachometer--><g class="link" data-entity-1="ent0003" data-entity-2="ent0006" data-link-type="dependency" data-source-line="14" id="lnk9"><path d="M266.93,321.5179 C293.84,321.5179 315.01,321.5179 337.53,321.5179" fill="none" id="shell_scripts_run_tachometer_profile_sh-to-tool_tachometer" style="stroke:#181818;stroke-width:1;"/><polygon fill="#181818" points="343.53,321.5179,334.53,317.5179,338.53,321.5179,334.53,325.5179,343.53,321.5179" style="stroke:#181818;stroke-width:1;"/></g><!--link shell_site_scripts_run_tachometer_profile_sh to tool_run--><g class="link" data-entity-1="ent0002" data-entity-2="ent0004" data-link-type="dependency" data-source-line="15" id="lnk10"><path d="M284.24,155.7379 C317.29,155.7379 343.15,155.7379 364.56,155.7379" fill="none" id="shell_site_scripts_run_tachometer_profile_sh-to-tool_run" style="stroke:#181818;stroke-width:1;"/><polygon fill="#181818" points="370.56,155.7379,361.56,151.7379,365.56,155.7379,361.56,159.7379,370.56,155.7379" style="stroke:#181818;stroke-width:1;"/></g><!--link shell_site_scripts_run_tachometer_profile_sh to tool_summarize--><g class="link" data-entity-1="ent0002" data-entity-2="ent0005" data-link-type="dependency" data-source-line="16" id="lnk11"><path d="M284.24,217.6579 C306.01,217.6579 321.26,217.6579 339.35,217.6579" fill="none" id="shell_site_scripts_run_tachometer_profile_sh-to-tool_summarize" style="stroke:#181818;stroke-width:1;"/><polygon fill="#181818" points="345.35,217.6579,336.35,213.6579,340.35,217.6579,336.35,221.6579,345.35,217.6579" style="stroke:#181818;stroke-width:1;"/></g><!--link shell_site_scripts_run_tachometer_profile_sh to tool_tachometer--><g class="link" data-entity-1="ent0002" data-entity-2="ent0006" data-link-type="dependency" data-source-line="17" id="lnk12"><path d="M275.45,221.4679 C275.45,258.8779 275.45,309.7979 275.45,309.7979 C275.45,309.7979 305.09,309.7979 337.81,309.7979" fill="none" id="shell_site_scripts_run_tachometer_profile_sh-to-tool_tachometer" style="stroke:#181818;stroke-width:1;"/><polygon fill="#181818" points="343.81,309.7979,334.81,305.7979,338.81,309.7979,334.81,313.7979,343.81,309.7979" style="stroke:#181818;stroke-width:1;"/></g><?plantuml-src jPAnReD038Ptdi9Avf2g6RfLQflGgLrO8w7hORXJ3XlT6QNfqnTe2YZD48QkzlV_zo4iLXo2Le7f49TMJFCHMuRKe7EGQczhWSJnCN9O20Y3jwKHoAr7BPOf2WTBjVAgWc1KpaTB9HJA1PniSYnKuoHXadTL8RmnSQYLdZAQgve9IL8vjKPTlQBIJH5d2ULK8x0Nmz60m28BLd0TUjsmzWrbehJX2WLzLdikhCCuc3tTWMEjNElQVH_c9OOzRG0_Mv3QkJ2xi00LVeY-DpltPjTxis1WkNtUFIMxgT9_oDpieHqtEInQi8ztHLqAbiaksRmy_Ev3KrNAsoySgM5qoOuFZl0u6-XRJLUhnq5hVcYmd1yTrz6iNtnDU6RoZ_NC_4ITM70uZ5UlQfFsvQSerOe8SxW_dzMvFuwsRL1BkxboTfFjvVt54L8EtNlV?></g></svg>
