<?plantuml 1.2026.2?><svg xmlns="http://www.w3.org/2000/svg" xmlns:xlink="http://www.w3.org/1999/xlink" contentStyleType="text/css" data-diagram-type="DESCRIPTION" height="1987px" preserveAspectRatio="none" style="width:593px;height:1987px;background:#FFFFFF;" version="1.1" viewBox="0 0 593 1987" width="593px" zoomAndPan="magnify"><title>casonk.github.io Tooling Integrations</title><defs/><g><g class="title" data-source-line="1"><text fill="#000000" font-family="Monospace" font-size="14" font-weight="bold" lengthAdjust="spacing" textLength="261.5436" x="158.9221" y="24.9659">casonk.github.io&#160;Tooling&#160;Integrations</text></g><!--entity source_github_workflows_ci_yml--><g class="entity" data-qualified-name="source_github_workflows_ci_yml" data-source-line="7" id="ent0002"><rect fill="#E0F2FE" height="58.1358" rx="2.5" ry="2.5" style="stroke:#181818;stroke-width:0.5;" width="182.6234" x="80.39" y="495.7079"/><text fill="#000000" font-family="Monospace" font-size="14" lengthAdjust="spacing" textLength="162.6234" x="90.39" y="520.6739">.github/workflows/ci.yml</text><text fill="#000000" font-family="Monospace" font-size="14" lengthAdjust="spacing" textLength="105.3356" x="90.39" y="539.7418">3&#160;detected&#160;tools</text></g><!--entity source_github_workflows_secret_scan_yml--><g class="entity" data-qualified-name="source_github_workflows_secret_scan_yml" data-source-line="8" id="ent0003"><rect fill="#E0F2FE" height="58.1358" rx="2.5" ry="2.5" style="stroke:#181818;stroke-width:0.5;" width="246.7851" x="48.31" y="347.7079"/><text fill="#000000" font-family="Monospace" font-size="14" lengthAdjust="spacing" textLength="226.7851" x="58.31" y="372.6739">.github/workflows/secret-scan.yml</text><text fill="#000000" font-family="Monospace" font-size="14" lengthAdjust="spacing" textLength="105.3356" x="58.31" y="391.7418">2&#160;detected&#160;tools</text></g><!--entity source_site_scripts_run_tachometer_profile_sh--><g class="entity" data-qualified-name="source_site_scripts_run_tachometer_profile_sh" data-source-line="9" id="ent0004"><rect fill="#E0F2FE" height="58.1358" rx="2.5" ry="2.5" style="stroke:#181818;stroke-width:0.5;" width="276.983" x="33.21" y="126.7079"/><text fill="#000000" font-family="Monospace" font-size="14" lengthAdjust="spacing" textLength="256.983" x="43.21" y="151.6739">_site/scripts/run_tachometer_profile.sh</text><text fill="#000000" font-family="Monospace" font-size="14" lengthAdjust="spacing" textLength="105.3356" x="43.21" y="170.7418">3&#160;detected&#160;tools</text></g><!--entity source_scripts_install_weekly_blog_agentic_systemd_sh--><g class="entity" data-qualified-name="source_scripts_install_weekly_blog_agentic_systemd_sh" data-source-line="10" id="ent0005"><rect fill="#E0F2FE" height="58.1358" rx="2.5" ry="2.5" style="stroke:#181818;stroke-width:0.5;" width="329.3988" x="7" y="705.7079"/><text fill="#000000" font-family="Monospace" font-size="14" lengthAdjust="spacing" textLength="309.3988" x="17" y="730.6739">scripts/install_weekly_blog_agentic_systemd.sh</text><text fill="#000000" font-family="Monospace" font-size="14" lengthAdjust="spacing" textLength="105.3356" x="17" y="749.7418">2&#160;detected&#160;tools</text></g><!--entity source_scripts_run_tachometer_profile_sh--><g class="entity" data-qualified-name="source_scripts_run_tachometer_profile_sh" data-source-line="11" id="ent0006"><rect fill="#E0F2FE" height="58.1358" rx="2.5" ry="2.5" style="stroke:#181818;stroke-width:0.5;" width="242.2912" x="50.55" y="219.7079"/><text fill="#000000" font-family="Monospace" font-size="14" lengthAdjust="spacing" textLength="222.2912" x="60.55" y="244.6739">scripts/run_tachometer_profile.sh</text><text fill="#000000" font-family="Monospace" font-size="14" lengthAdjust="spacing" textLength="105.3356" x="60.55" y="263.7418">3&#160;detected&#160;tools</text></g><!--entity source_scripts_weekly_blog_agentic_sh--><g class="entity" data-qualified-name="source_scripts_weekly_blog_agentic_sh" data-source-line="12" id="ent0007"><rect fill="#E0F2FE" height="58.1358" rx="2.5" ry="2.5" style="stroke:#181818;stroke-width:0.5;" width="222.6632" x="60.37" y="1293.7079"/><text fill="#000000" font-family="Monospace" font-size="14" lengthAdjust="spacing" textLength="202.6632" x="70.37" y="1318.6739">scripts/weekly_blog_agentic.sh</text><text fill="#000000" font-family="Monospace" font-size="14" lengthAdjust="spacing" textLength="113.3436" x="70.37" y="1337.7418">16&#160;detected&#160;tools</text></g><!--entity tool_cd--><g class="entity" data-qualified-name="tool_cd" data-source-line="13" id="ent0008"><path d="M471.4082,1181.252 C475.2766,1171.1677 482.1254,1171.5683 488.8731,1178.2533 C496.34,1171.5867 500.6835,1174.4412 504.2758,1182.3483 C512.8912,1185.5011 513.3793,1190.9933 508.0738,1197.6103 C514.0214,1203.7674 513.6432,1211.6645 504.1931,1214.2252 C501.8849,1224.0175 494.6231,1225.0206 487.2792,1219.9596 C479.48,1226.0264 474.2462,1223.3037 471.8527,1214.3922 C461.0925,1213.1426 459.6803,1207.6966 464.3037,1198.9343 C458.594,1190.8636 460.1407,1182.5015 471.4082,1181.252" fill="#FEF3C7" style="stroke:#181818;stroke-width:0.5;"/><text fill="#000000" font-family="Monospace" font-size="14" lengthAdjust="spacing" textLength="19.5299" x="477.49" y="1202.2039">(cd</text></g><!--entity tool_actions_checkout--><g class="entity" data-qualified-name="tool_actions_checkout" data-source-line="14" id="ent0009"><path d="M425.7321,424.6036 C429.5839,418.4446 434.3265,418.5851 438.056,424.7262 C441.3617,417.9632 446.3634,419.2122 450.402,423.9387 C455.0223,416.7913 459.2829,416.9161 463.9239,423.919 C468.1987,417.6356 472.0313,418.6236 476.1273,424.1045 C479.4588,419.4186 484.6724,419.5722 487.4526,424.7382 C490.1508,419.0805 496.4173,418.5886 499.9945,423.7161 C504.0741,417.6788 509.3719,417.7384 513.745,423.3702 C518.9196,417.9347 523.6812,418.4348 526.5316,425.7085 C529.5026,419.5845 534.9829,419.6686 538.0215,425.6443 C541.9903,419.8108 546.3744,420.5678 550.3844,425.5974 C560.0657,428.007 561.3759,434.1667 556.3782,441.955 C561.8231,450.4122 560.358,455.5155 550.4147,458.3885 C548.1671,464.0599 542.8073,464.5312 539.6314,459.3073 C536.0444,465.8175 529.8823,466.4068 525.2911,460.4636 C522.5576,466.3661 518.5871,467.9815 513.3571,463.2708 C510.0762,469.7747 505.5801,469.5988 501.5001,464.0573 C498.9717,471.4965 492.4543,471.9634 488.446,465.4411 C483.5427,471.8389 478.0836,469.7632 475.5965,463.0695 C471.6606,469.8475 465.7389,469.6921 462.1681,462.7131 C457.6334,468.2315 452.9451,466.7529 450.2715,460.7855 C446.3943,465.903 441.0353,465.5251 438.4914,459.3898 C434.0305,464.8529 427.8086,465.5887 424.5471,458.0986 C417.4491,454.0471 416.0477,446.0642 424.6287,442.0927 C416.3864,436.0645 417.3335,429.5819 425.7321,424.6036" fill="#FEF3C7" style="stroke:#181818;stroke-width:0.5;"/><text fill="#000000" font-family="Monospace" font-size="14" lengthAdjust="spacing" textLength="111.9156" x="431.3" y="446.2039">actions/checkout</text></g><!--entity tool_attempt--><g class="entity" data-qualified-name="tool_attempt" data-source-line="15" id="ent0010"><path d="M454.4394,1264.8301 C458.0339,1258.8321 462.5609,1259.5806 465.804,1265.1747 C468.9706,1260.1431 472.5306,1259.2738 476.5585,1264.2492 C479.6139,1258.4276 485.004,1257.6442 489.3094,1262.797 C492.9226,1259.1214 495.9714,1259.0716 498.4532,1263.9996 C502.5362,1259.0118 506.6337,1258.6905 509.8868,1264.8508 C513.6443,1259.6493 517.9171,1258.8974 521.7491,1264.771 C529.7079,1269.2336 529.6382,1275.5377 523.4516,1281.4446 C529.8105,1288.0189 530.2316,1294.6793 520.7965,1298.8434 C519.3206,1304.8685 514.6386,1305.0642 510.6481,1301.5064 C507.9453,1306.996 504.6249,1308.0264 499.9627,1303.6227 C498.1867,1309.5839 495.4194,1312.3498 489.3519,1308.0684 C483.7471,1311.8682 478.4895,1311.6768 476.9801,1303.7483 C473.0348,1307.988 468.9921,1306.491 466.8647,1301.7098 C461.4554,1307.5823 457.2613,1305.9296 454.6162,1299.0539 C445.7323,1294.2288 446.0083,1288.0796 454.315,1282.9332 C445.691,1276.8835 446.3202,1270.7648 454.4394,1264.8301" fill="#FEF3C7" style="stroke:#181818;stroke-width:0.5;"/><text fill="#000000" font-family="Monospace" font-size="14" lengthAdjust="spacing" textLength="52.6118" x="460.95" y="1286.2039">attempt</text></g><!--entity tool_bundle--><g class="entity" data-qualified-name="tool_bundle" data-source-line="16" id="ent0011"><path d="M459.3353,594.0325 C463.7744,587.0366 468.2189,586.1438 473.4623,593.2254 C476.6979,584.3324 484.1896,584.8538 489.4287,591.1143 C494.7747,583.9097 500.5556,585.4871 504.3405,592.726 C508.2186,585.7939 513.0848,585.7672 517.4537,592.2461 C529.7281,591.9973 533.7479,599.9794 528.3484,610.3604 C533.8847,618.8268 529.504,626.8591 519.4177,626.8794 C513.6974,635.5716 507.6496,634.5731 502.2661,626.5342 C498.5078,633.4531 491.9504,634.4561 487.4816,627.2794 C482.5715,632.8488 477.7529,632.5275 473.4272,626.5671 C468.9547,633.9886 462.908,634.4978 458.328,626.6735 C449.4763,621.8267 449.284,616.2452 456.9452,610.0267 C451.1958,604.0302 451.2522,597.9619 459.3353,594.0325" fill="#FEF3C7" style="stroke:#181818;stroke-width:0.5;"/><text fill="#000000" font-family="Monospace" font-size="14" lengthAdjust="spacing" textLength="46.0318" x="464.24" y="614.2039">bundle</text></g><!--entity tool_cat--><g class="entity" data-qualified-name="tool_cat" data-source-line="17" id="ent0012"><path d="M471.3582,761.252 C475.2419,751.142 482.1092,751.5469 488.8721,758.2533 C496.3559,751.561 500.7146,754.4205 504.3238,762.3483 C512.9392,765.5011 513.4273,770.9933 508.1219,777.6103 C514.0694,783.7674 513.6912,791.6645 504.2411,794.2252 C501.9183,804.0409 494.6367,805.0402 487.2782,799.9596 C479.4632,806.0514 474.2119,803.3264 471.8027,794.3922 C461.0425,793.1426 459.6303,787.6966 464.2537,778.9343 C458.544,770.8636 460.0907,762.5015 471.3582,761.252" fill="#FEF3C7" style="stroke:#181818;stroke-width:0.5;"/><text fill="#000000" font-family="Monospace" font-size="14" lengthAdjust="spacing" textLength="19.6279" x="477.44" y="782.2039">cat</text></g><!--entity tool_cmd_model--><g class="entity" data-qualified-name="tool_cmd_model" data-source-line="18" id="ent0013"><path d="M431.9462,1348.9478 C435.9431,1344.3448 439.169,1345.0051 442.2352,1349.9507 C445.1277,1343.3427 449.3957,1343.934 454.0102,1348.0621 C457.4955,1341.8587 462.1904,1343.3537 465.4255,1348.3178 C468.9915,1342.4833 472.7947,1341.9519 477.4929,1347.0703 C481.2342,1341.6672 484.5011,1341.2455 488.278,1347.036 C491.8198,1342.8871 496.5337,1342.8418 499.1752,1348.0809 C502.9193,1342.3654 508.2218,1341.2333 511.9451,1348.1019 C515.2459,1343.2137 518.8783,1343.3853 521.9186,1348.3653 C525.5784,1343.3639 530.9972,1341.9544 534.389,1348.6509 C537.4296,1343.8226 542.9167,1342.7507 546.0566,1348.5418 C555.2814,1352.4293 559.4271,1357.7783 551.4374,1366.7523 C556.5553,1374.1847 554.2007,1380.8721 544.685,1381.6891 C541.61,1387.5141 538.05,1388.4567 533.5771,1383.0746 C530.9367,1388.1974 525.8811,1389.3655 522.5063,1383.838 C518.7685,1389.0586 513.8357,1390.1412 510.3665,1383.5616 C507.7311,1388.5727 503.4781,1390.7109 499.2905,1385.1948 C496.8649,1390.086 492.1773,1390.0602 488.9621,1386.1182 C483.8553,1392.499 480.0092,1391.7351 476.1945,1384.8725 C472.2653,1389.3264 468.6352,1389.0481 465.9827,1383.561 C463.0384,1389.1262 456.8995,1389.343 453.3577,1384.2701 C448.6619,1389.6616 444.3273,1388.3715 442.1846,1381.8712 C439.3934,1387.5561 434.975,1386.5547 431.8136,1382.2557 C422.9564,1380.1428 419.4742,1372.7576 426.8,1365.7339 C420.1411,1358.1249 422.8493,1351.7265 431.9462,1348.9478" fill="#FEF3C7" style="stroke:#181818;stroke-width:0.5;"/><text fill="#000000" font-family="Monospace" font-size="14" lengthAdjust="spacing" textLength="99.3296" x="437.59" y="1370.2039">cmd+=(--model</text></g><!--entity tool_cp--><g class="entity" data-qualified-name="tool_cp" data-source-line="19" id="ent0014"><path d="M472.9522,1433.1823 C476.3314,1424.5828 483.2168,1424.2431 488.6615,1431.0803 C493.6442,1424.5657 500.358,1426.1822 502.6124,1433.7778 C510.8203,1437.6 511.4738,1443.8074 504.3657,1449.3536 C511.1078,1455.59 511.5158,1462.1307 502.3602,1466.5085 C501.4566,1475.0566 496.6332,1478.2109 488.4471,1475.5391 C478.295,1481.012 473.4523,1476.584 472.9654,1466.1388 C463.1019,1462.4844 463.5094,1455.3154 470.3854,1449.1228 C464.7939,1443.1523 463.6532,1436.7552 472.9522,1433.1823" fill="#FEF3C7" style="stroke:#181818;stroke-width:0.5;"/><text fill="#000000" font-family="Monospace" font-size="14" lengthAdjust="spacing" textLength="15.3299" x="479.59" y="1454.2039">cp</text></g><!--entity tool_find--><g class="entity" data-qualified-name="tool_find" data-source-line="20" id="ent0015"><path d="M469.0742,1517.5613 C473.0404,1508.2955 482.2996,1506.6251 487.9151,1515.8838 C495.0554,1506.6261 502.8618,1507.3226 507.7012,1518.1504 C517.9944,1519.479 518.697,1525.8855 514.4961,1533.592 C520.6752,1541.6271 518.6272,1548.8425 508.235,1550.874 C507.0282,1561.9132 497.7616,1565.2273 489.4054,1558.4153 C478.9141,1565.6106 472.3273,1561.9053 469.0164,1550.5312 C460.5349,1547.5998 459.9364,1539.45 466.6938,1534.3335 C458.5935,1528.8248 460.3834,1520.6869 469.0742,1517.5613" fill="#FEF3C7" style="stroke:#181818;stroke-width:0.5;"/><text fill="#000000" font-family="Monospace" font-size="14" lengthAdjust="spacing" textLength="25.6899" x="474.41" y="1538.2039">find</text></g><!--entity tool_flock--><g class="entity" data-qualified-name="tool_flock" data-source-line="21" id="ent0016"><path d="M465.7042,1600.9078 C468.6133,1595.4464 472.7943,1594.9222 476.2538,1600.3759 C478.5141,1595.0545 483.4902,1592.8076 487.8437,1598.0874 C492.2563,1593.7932 496.8265,1593.8364 499.4534,1600.0587 C503.6238,1594.4736 509.3187,1596.023 511.9202,1601.7827 C521.2086,1606.4607 521.5013,1611.6808 514.1298,1618.5538 C520.4988,1624.3988 517.8175,1631.4334 510.3971,1633.9311 C508.7975,1638.8815 504.8849,1641.1235 500.451,1637.0579 C497.1676,1643.918 492.4556,1644.5958 488.0145,1638.1391 C483.6748,1642.0985 480.0761,1642.6718 477.3961,1636.4142 C473.2296,1641.5005 469.5128,1641.0406 466.8024,1635.0247 C457.3451,1632.8525 454.9553,1625.017 460.4041,1617.4255 C453.661,1610.3761 457.0912,1603.0299 465.7042,1600.9078" fill="#FEF3C7" style="stroke:#181818;stroke-width:0.5;"/><text fill="#000000" font-family="Monospace" font-size="14" lengthAdjust="spacing" textLength="31.0939" x="471.71" y="1622.2039">flock</text></g><!--entity tool_git--><g class="entity" data-qualified-name="tool_git" data-source-line="22" id="ent0017"><path d="M473.4362,1684.873 C477.7191,1678.6623 481.9658,1676.4391 487.4225,1683.6498 C493.4098,1675.8233 499.4477,1678.8918 503.2429,1685.9757 C512.5057,1687.35 516.268,1692.7675 510.7994,1701.372 C517.8415,1709.4738 514.7548,1716.2605 504.5743,1717.8596 C504.2398,1728.5734 496.346,1731.0068 488.5238,1725.0834 C480.2035,1730.0381 473.4247,1728.7838 471.7517,1717.9997 C463.2002,1715.7616 460.2412,1708.941 466.1453,1701.7237 C460.7214,1692.6441 463.8103,1687.4409 473.4362,1684.873" fill="#FEF3C7" style="stroke:#181818;stroke-width:0.5;"/><text fill="#000000" font-family="Monospace" font-size="14" lengthAdjust="spacing" textLength="17.2759" x="478.62" y="1706.2039">git</text></g><!--entity tool_gitleaks_gitleaks_action--><g class="entity" data-qualified-name="tool_gitleaks_gitleaks_action" data-source-line="23" id="ent0018"><path d="M404.4166,341.893 C408.557,334.5143 412.787,335.0066 418.0258,340.7541 C421.9375,335.2092 426.7695,335.4052 429.893,341.5539 C433.1492,335.6947 437.6325,335.979 441.0029,341.4418 C444.1546,336.0893 449.0998,334.4346 453.1806,340.4461 C455.8664,334.6664 461.7513,332.9679 465.4872,339.3866 C469.876,333.241 474.5979,335.4888 477.5386,340.897 C480.1046,336.0278 483.6511,335.0315 487.3522,339.733 C491.3849,332.4053 497.8727,334.4639 501.2178,340.4491 C503.668,336.0407 508.327,335.7365 511.1331,340.0442 C514.6861,334.319 518.9052,334.4517 522.8187,339.6588 C527.5645,334.5886 533.5964,334.3013 536.7367,341.4827 C539.735,336.3534 544.7192,335.0673 548.6306,340.4495 C551.7613,335.2607 555.3691,335.0943 558.8536,340.0946 C564.0806,334.34 567.9926,335.1017 571.1487,342.0923 C580.7389,342.8242 584.2036,349.5209 580.4793,358.0418 C586.3877,368.3892 581.5916,375.2098 570.203,375.1943 C566.644,379.7655 562.7313,379.1223 559.9072,374.3818 C557.4018,382.1453 552.3992,382.7071 547.0996,377.0479 C543.9735,382.1547 540.7517,382.0319 536.8366,377.927 C532.3734,383.3778 527.5866,385.0043 523.299,377.7401 C519.8787,383.7809 515.2214,383.7686 511.234,378.3365 C508.799,384.7211 505.4342,385.0873 500.6616,380.6122 C496.9775,386.4364 492.6973,387.0617 487.9691,381.8085 C483.1763,386.4504 478.9859,386.6466 475.5181,380.3062 C471.7528,384.9129 466.4524,384.9518 463.8512,379.0177 C460.3698,384.3919 456.081,383.4789 453.2838,378.3305 C449.5266,385.1314 444.2316,384.4254 440.6892,378.124 C436.3549,382.5215 431.7975,382.0186 429.0351,376.3111 C425.1641,381.9883 419.7376,379.6124 417.5868,374.4879 C414.671,380.9809 408.9137,381.2292 405.1863,375.2979 C395.4782,372.6607 393.9188,364.8995 400.2531,357.7519 C393.2984,351.4309 396.2018,344.2313 404.4166,341.893" fill="#FEF3C7" style="stroke:#181818;stroke-width:0.5;"/><text fill="#000000" font-family="Monospace" font-size="14" lengthAdjust="spacing" textLength="151.7174" x="411.4" y="362.2039">gitleaks/gitleaks-action</text></g><!--entity tool_ln--><g class="entity" data-qualified-name="tool_ln" data-source-line="24" id="ent0019"><path d="M475.5732,1769.8183 C477.3869,1762.6382 483.0391,1761.3976 487.9055,1766.8346 C494.0942,1760.3069 498.9075,1762.0413 501.6682,1770.0746 C509.5389,1774.6062 508.798,1780.3229 502.2263,1785.3811 C509.15,1790.1308 508.859,1797.3434 501.5913,1801.5352 C500.8636,1811.7335 496.1813,1813.9662 487.4647,1808.9556 C481.6419,1812.8234 475.3239,1811.002 475.2398,1803.0302 C463.4652,1802.28 459.5057,1794.4309 467.0202,1784.9241 C463.1509,1776.7526 466.2608,1770.5263 475.5732,1769.8183" fill="#FEF3C7" style="stroke:#181818;stroke-width:0.5;"/><text fill="#000000" font-family="Monospace" font-size="14" lengthAdjust="spacing" textLength="12.2639" x="481.13" y="1790.2039">ln</text></g><!--entity tool_mkdir--><g class="entity" data-qualified-name="tool_mkdir" data-source-line="25" id="ent0020"><path d="M462.2813,1852.7953 C466.1059,1846.9592 471.4333,1846.9581 474.7587,1853.3065 C478.2858,1846.4431 483.8526,1846.7206 488.5847,1851.9261 C492.5226,1845.8931 496.7704,1846.4172 501.0656,1851.5259 C505.4127,1846.1838 510.6654,1845.7413 513.7707,1852.7984 C526.3744,1853.018 528.9108,1860.2073 524.5145,1870.6553 C529.1029,1879.4085 523.6085,1885.839 514.6993,1885.9043 C511.7607,1892.1677 507.8879,1894.4213 502.0434,1889.071 C499.1957,1895.7574 493.0046,1897.4015 487.6839,1892.0114 C482.2532,1896.5293 478.3674,1894.3775 476.295,1888.3757 C470.6131,1895.5977 464.2004,1893.6197 461.1483,1885.7384 C451.7984,1883.6754 447.4233,1879.1798 453.2815,1869.6708 C447.8252,1859.2365 452.0896,1854.8844 462.2813,1852.7953" fill="#FEF3C7" style="stroke:#181818;stroke-width:0.5;"/><text fill="#000000" font-family="Monospace" font-size="14" lengthAdjust="spacing" textLength="38.5699" x="467.97" y="1874.2039">mkdir</text></g><!--entity tool_null--><g class="entity" data-qualified-name="tool_null" data-source-line="26" id="ent0021"><path d="M468.5732,1936.9253 C473.5039,1927.419 482.9963,1926.6827 488.6771,1936.1296 C495.5645,1928.3283 501.3199,1928.3563 506.5374,1937.8536 C517.0929,1938.5033 519.3437,1945.0972 514.5275,1953.5645 C519.3053,1962.394 515.9024,1967.3586 506.8959,1969.6472 C501.6731,1979.7159 495.9118,1980.418 488.1939,1972.1988 C481.4776,1979.8888 473.095,1980.7105 468.8621,1969.6398 C459.8582,1968.3319 457.1361,1961.3738 463.379,1954.5323 C456.059,1947.3011 459.8246,1939.416 468.5732,1936.9253" fill="#FEF3C7" style="stroke:#181818;stroke-width:0.5;"/><text fill="#000000" font-family="Monospace" font-size="14" lengthAdjust="spacing" textLength="24.5279" x="474.99" y="1958.2039">null</text></g><!--entity tool_ruby_setup_ruby--><g class="entity" data-qualified-name="tool_ruby_setup_ruby" data-source-line="27" id="ent0022"><path d="M428.9001,510.185 C431.4614,504.1922 436.87,505.2941 439.7406,509.8677 C443.9431,503.6742 447.9658,503.7927 452.5577,509.4465 C454.6115,503.704 458.8732,502.2628 463.1055,507.3186 C467.1466,500.5046 472.3265,500.3522 476.6584,507.0264 C479.756,502.1234 485.0147,502.0877 487.7318,507.4375 C491.4772,501.0906 495.5549,500.8087 499.6536,507.1044 C504.0124,501.4924 509.7793,502.7779 512.272,509.0808 C515.6078,502.5663 520.1696,501.8927 524.7824,507.7941 C530.076,502.4334 534.0272,503.993 537.2605,510.0465 C539.7196,504.5247 544.5617,503.7597 547.8532,509.2455 C555.5023,511.7093 559.3614,519.0754 552.176,525.4875 C560.1227,532.2878 558.3517,539.3842 548.8828,542.8887 C545.9426,550.1313 541.1312,549.1007 536.5965,544.5497 C532.35,550.0187 528.5358,551.0444 524.1513,544.6951 C522.0141,551.3565 516.0996,552.3951 512.2205,546.3277 C509.8722,552.4059 504.607,552.7853 500.6957,547.9832 C498.3059,554.6183 494.1631,554.6499 489.3554,550.5335 C485.2036,555.9753 479.5943,555.5592 477.3384,548.6838 C473.3116,554.8725 467.0766,554.3487 464.3207,547.4224 C460.6147,553.2134 455.7232,552.9082 452.9865,546.5204 C448.4484,553.1254 442.8236,552.4927 440.0139,544.937 C434.7167,549.8575 429.8712,549.7871 427.3326,542.151 C419.3814,538.1237 418.4995,531.6433 426.4491,526.7064 C418.278,520.2566 420.5959,514.1907 428.9001,510.185" fill="#FEF3C7" style="stroke:#181818;stroke-width:0.5;"/><text fill="#000000" font-family="Monospace" font-size="14" lengthAdjust="spacing" textLength="107.0016" x="433.76" y="530.2039">ruby/setup-ruby</text></g><!--entity tool_run--><g class="entity" data-qualified-name="tool_run" data-source-line="28" id="ent0023"><path d="M468.9202,85.8706 C473.7918,76.7293 482.0948,75.1296 489.1551,83.3143 C495.0187,75.5504 503.3435,77.2883 506.7427,85.9525 C516.3323,86.6613 522.0216,91.4144 516.5344,101.5737 C521.7685,111.0202 518.2665,116.44 507.893,117.3228 C507.6546,130.0475 501.3231,135.0421 489.3297,128.8709 C478.423,133.9036 471.2606,132.4176 470.5602,118.6703 C460.8993,117.8356 457.1111,109.744 462.4639,101.7327 C457.4085,93.6057 459.8247,88.2377 468.9202,85.8706" fill="#FEF3C7" style="stroke:#181818;stroke-width:0.5;"/><text fill="#000000" font-family="Monospace" font-size="14" lengthAdjust="spacing" textLength="23.0859" x="475.71" y="106.2039">run</text></g><!--entity tool_sed--><g class="entity" data-qualified-name="tool_sed" data-source-line="29" id="ent0024"><path d="M468.8602,845.8706 C473.7502,836.7032 482.0793,835.1018 489.1581,843.3143 C495.0381,835.5201 503.393,837.2597 506.8087,845.9525 C516.3983,846.6613 522.0876,851.4144 516.6004,861.5737 C521.8345,871.0202 518.3325,876.44 507.959,877.3228 C507.7007,890.0783 501.3461,895.0754 489.3327,888.8709 C478.4048,893.932 471.2218,892.4522 470.5002,878.6703 C460.8393,877.8356 457.0511,869.744 462.4039,861.7327 C457.3485,853.6057 459.7647,848.2377 468.8602,845.8706" fill="#FEF3C7" style="stroke:#181818;stroke-width:0.5;"/><text fill="#000000" font-family="Monospace" font-size="14" lengthAdjust="spacing" textLength="23.2119" x="475.65" y="866.2039">sed</text></g><!--entity tool_sort--><g class="entity" data-qualified-name="tool_sort" data-source-line="30" id="ent0025"><path d="M469.2872,928.616 C474.0501,918.5488 480.7273,919.8733 487.4371,926.4991 C495.3091,916.834 504.4598,920.1962 509.136,930.0515 C517.3656,933.5952 518.4839,939.3803 511.9293,945.5828 C518.2394,952.2765 517.0998,959.0219 508.878,963.1984 C506.5284,975.3186 497.288,977.1349 488.2696,970.5431 C478.3003,977.4794 469.8844,972.5221 467.8783,961.5007 C458.9834,957.0942 459.4423,949.0306 468.1688,944.9331 C461.7931,939.7172 461.4405,932.857 469.2872,928.616" fill="#FEF3C7" style="stroke:#181818;stroke-width:0.5;"/><text fill="#000000" font-family="Monospace" font-size="14" lengthAdjust="spacing" textLength="26.0119" x="474.25" y="950.2039">sort</text></g><!--entity tool_summarize--><g class="entity" data-qualified-name="tool_summarize" data-source-line="31" id="ent0026"><path d="M444.7962,168.7082 C449.9905,161.088 455.2279,162.6617 459.6554,169.4963 C463.2719,162.3452 468.9794,162.5795 473.0602,169.0389 C477.8942,161.5754 482.6609,160.3054 488.8659,167.5673 C492.9267,160.1997 500.0265,160.4657 503.6506,168.0007 C508.2351,161.1413 515.1265,161.4184 518.3424,169.3593 C521.9789,163.5447 528.679,162.9823 531.8417,169.8631 C541.2094,169.9338 545.3194,177.7506 540.2293,185.5512 C546.1739,194.1643 542.5013,200.1668 532.9064,201.7589 C529.1244,209.6105 521.5345,209.5184 516.6162,203.0518 C513.3099,211.1689 508.0283,210.6599 502.7695,205.0165 C499.9774,212.3974 493.0939,211.8845 489.0346,206.3659 C484.2056,211.9427 479.2355,212.9218 474.8981,205.8179 C469.3402,211.4858 463.0188,210.7947 459.9219,203.0665 C455.732,210.7863 449.2419,210.8264 445.3676,202.7753 C434.8076,201.9199 432.8751,192.6176 438.3171,185.3045 C433.0033,178.1206 434.0692,169.6298 444.7962,168.7082" fill="#FEF3C7" style="stroke:#181818;stroke-width:0.5;"/><text fill="#000000" font-family="Monospace" font-size="14" lengthAdjust="spacing" textLength="73.2617" x="450.63" y="190.2039">summarize</text></g><!--entity tool_systemctl--><g class="entity" data-qualified-name="tool_systemctl" data-source-line="32" id="ent0027"><path d="M449.4243,676.5034 C452.8648,670.5846 459.3893,669.9028 462.49,676.8483 C466.2316,670.1376 471.2685,670.0609 475.8023,676.0155 C479.8341,669.7684 484.3724,670.261 488.8176,675.549 C492.3615,669.5149 496.0275,670.0977 499.9713,675.1466 C504.9321,668.4873 509.4037,669.4481 513.2166,676.2741 C516.804,670.9137 523.0425,670.006 526.0965,676.8375 C534.7928,679.5702 537.7891,687.7776 531.3098,694.8922 C536.6452,700.6969 534.862,707.4789 527.2804,709.7899 C524.711,718.3285 519.1783,718.9996 512.871,713.675 C510.2089,719.2751 506.0698,720.0227 501.4165,716.0601 C498.5541,722.6831 493.2362,724.6756 488.2894,718.1395 C482.848,723.7097 478.4152,722.3814 475.9195,715.2669 C471.5227,720.5605 465.8029,720.9354 462.8861,713.7244 C457.9675,717.7936 453.548,718.5231 450.9884,711.25 C440.2243,708.1317 440.0823,702.2642 445.9576,694.2282 C439.1774,686.97 439.4647,680.4875 449.4243,676.5034" fill="#FEF3C7" style="stroke:#181818;stroke-width:0.5;"/><text fill="#000000" font-family="Monospace" font-size="14" lengthAdjust="spacing" textLength="61.9778" x="456.27" y="698.2039">systemctl</text></g><!--entity tool_tachometer--><g class="entity" data-qualified-name="tool_tachometer" data-source-line="33" id="ent0028"><path d="M443.5972,252.6907 C446.3707,247.6174 450.926,247.9775 453.6574,252.7338 C457.7384,246.5092 463.0857,247.9347 466.5426,253.4206 C469.8605,247.9344 473.1163,247.5078 476.8578,253.0235 C479.7486,246.1195 484.3021,246.0811 489.0358,251.1488 C492.8508,245.9114 497.2424,248.0105 499.5233,252.7599 C502.6561,247.6305 506.6849,247.416 510.206,252.3474 C514.0474,246.506 518.9507,247.6284 522.0176,253.1523 C525.086,247.4488 529.7269,248.7477 532.7023,253.2497 C540.9308,257.061 541.6121,264.0747 534.4496,269.5371 C542.47,274.5006 541.951,280.1823 534.6184,285.3101 C531.4361,290.712 527.1487,291.4527 523.2212,286.0998 C520.5629,292.7654 515.5021,293.0238 510.988,288.0502 C507.0225,293.4338 503.7046,292.6977 499.9871,287.7852 C497.5791,293.4725 492.3153,293.6148 489.3116,288.3666 C485.9025,293.1032 480.805,293.5201 477.6893,288.0332 C473.6647,291.8121 468.9551,292.0921 466.8226,285.959 C463.823,292.9778 457.6863,292.2166 453.6472,287.0863 C450.1031,291.5639 444.477,291.1996 442.1247,285.7087 C433.3179,284.5597 430.3625,276.3143 435.2387,269.3911 C430.5221,259.9882 431.9416,253.8994 443.5972,252.6907" fill="#FEF3C7" style="stroke:#181818;stroke-width:0.5;"/><text fill="#000000" font-family="Monospace" font-size="14" lengthAdjust="spacing" textLength="76.4677" x="449.02" y="274.2039">tachometer</text></g><!--entity tool_tee--><g class="entity" data-qualified-name="tool_tee" data-source-line="34" id="ent0029"><path d="M471.1212,1012.3066 C475.4674,1004.6758 482.9357,1003.2128 488.3921,1011.0686 C495.8024,1002.9511 501.9135,1004.8989 506.2045,1014.2494 C515.5759,1015.5015 519.6359,1020.3941 514.801,1029.6012 C520.8918,1039.3279 515.2184,1045.752 505.3301,1046.5496 C502.4178,1056.5286 496.7245,1058.8961 488.3403,1052.0874 C480.0224,1059.2031 472.2046,1055.2997 470.2146,1045.3617 C462.402,1041.083 459.97,1036.4608 467.4787,1029.5339 C460.4108,1022.3159 461.2957,1015.9528 471.1212,1012.3066" fill="#FEF3C7" style="stroke:#181818;stroke-width:0.5;"/><text fill="#000000" font-family="Monospace" font-size="14" lengthAdjust="spacing" textLength="20.8459" x="476.83" y="1034.2039">tee</text></g><!--entity tool_tr--><g class="entity" data-qualified-name="tool_tr" data-source-line="35" id="ent0030"><path d="M476.2452,1096.8904 C479.2037,1089.4625 483.1867,1090.008 488.5754,1094.3431 C493.4912,1089.7989 497.1257,1089.6609 499.9138,1096.4683 C512.6524,1096.3262 515.7484,1102.0514 511.2815,1113.4361 C515.4217,1123.4955 511.2894,1130.07 500.1875,1129.7888 C501.4792,1138.6363 495.136,1142.2591 487.6819,1138.3885 C479.3156,1142.3637 475.8164,1139.0897 475.2185,1130.6131 C464.3188,1129.3807 462.8688,1123.8499 466.7198,1114.7265 C460.8855,1105.2069 466.0337,1097.8409 476.2452,1096.8904" fill="#FEF3C7" style="stroke:#181818;stroke-width:0.5;"/><text fill="#000000" font-family="Monospace" font-size="14" lengthAdjust="spacing" textLength="10.836" x="481.84" y="1118.2039">tr</text></g><g class="entity" data-qualified-name="toolingGraphSummary" data-source-line="66" id="ent0060"><path d="M67.94,46.0679 L67.94,91.4799 L275.4512,91.4799 L275.4512,56.0679 L265.4512,46.0679 L67.94,46.0679" fill="#FEFFDD" style="stroke:#181818;stroke-width:0.5;"/><path d="M265.4512,46.0679 L265.4512,56.0679 L275.4512,56.0679 L265.4512,46.0679" fill="#FEFFDD" style="stroke:#181818;stroke-width:1;"/><text fill="#000000" font-family="Monospace" font-size="13" lengthAdjust="spacing" textLength="186.5112" x="73.94" y="64.9649">Scanned&#160;6&#160;tooling&#160;entrypoints.</text><text fill="#000000" font-family="Monospace" font-size="13" lengthAdjust="spacing" textLength="179.2182" x="73.94" y="82.6709">Detected&#160;23&#160;third-party&#160;tools.</text></g><!--link source_github_workflows_ci_yml to tool_actions_checkout--><g class="link" data-entity-1="ent0002" data-entity-2="ent0009" data-link-type="dependency" data-source-line="36" id="lnk31"><path d="M172.12,495.2379 C172.12,473.9479 172.12,448.9479 172.12,448.9479 C172.12,448.9479 317.19,448.9479 410.14,448.9479" fill="none" id="source_github_workflows_ci_yml-to-tool_actions_checkout" style="stroke:#181818;stroke-width:1;"/><polygon fill="#181818" points="416.14,448.9479,407.14,444.9479,411.14,448.9479,407.14,452.9479,416.14,448.9479" style="stroke:#181818;stroke-width:1;"/></g><!--link source_github_workflows_ci_yml to tool_bundle--><g class="link" data-entity-1="ent0002" data-entity-2="ent0011" data-link-type="dependency" data-source-line="37" id="lnk32"><path d="M172.12,554.3079 C172.12,575.5979 172.12,600.5979 172.12,600.5979 C172.12,600.5979 358.94,600.5979 442.93,600.5979" fill="none" id="source_github_workflows_ci_yml-to-tool_bundle" style="stroke:#181818;stroke-width:1;"/><polygon fill="#181818" points="448.93,600.5979,439.93,596.5979,443.93,600.5979,439.93,604.5979,448.93,600.5979" style="stroke:#181818;stroke-width:1;"/></g><!--link source_github_workflows_ci_yml to tool_ruby_setup_ruby--><g class="link" data-entity-1="ent0002" data-entity-2="ent0022" data-link-type="dependency" data-source-line="38" id="lnk33"><path d="M263.4,524.7779 C312.89,524.7779 366.98,524.7779 412.43,524.7779" fill="none" id="source_github_workflows_ci_yml-to-tool_ruby_setup_ruby" style="stroke:#181818;stroke-width:1;"/><polygon fill="#181818" points="418.43,524.7779,409.43,520.7779,413.43,524.7779,409.43,528.7779,418.43,524.7779" style="stroke:#181818;stroke-width:1;"/></g><!--link source_github_workflows_secret_scan_yml to tool_actions_checkout--><g class="link" data-entity-1="ent0003" data-entity-2="ent0009" data-link-type="dependency" data-source-line="39" id="lnk34"><path d="M279.12,406.3179 C279.12,419.7079 279.12,432.5979 279.12,432.5979 C279.12,432.5979 349.67,432.5979 409.92,432.5979" fill="none" id="source_github_workflows_secret_scan_yml-to-tool_actions_checkout" style="stroke:#181818;stroke-width:1;"/><polygon fill="#181818" points="415.92,432.5979,406.92,428.5979,410.92,432.5979,406.92,436.5979,415.92,432.5979" style="stroke:#181818;stroke-width:1;"/></g><!--link source_github_workflows_secret_scan_yml to tool_gitleaks_gitleaks_action--><g class="link" data-entity-1="ent0003" data-entity-2="ent0018" data-link-type="dependency" data-source-line="40" id="lnk35"><path d="M295.51,364.5079 C329.01,364.5079 358.65,364.5079 390,364.5079" fill="none" id="source_github_workflows_secret_scan_yml-to-tool_gitleaks_gitleaks_action" style="stroke:#181818;stroke-width:1;"/><polygon fill="#181818" points="396,364.5079,387,360.5079,391,364.5079,387,368.5079,396,364.5079" style="stroke:#181818;stroke-width:1;"/></g><!--link source_site_scripts_run_tachometer_profile_sh to tool_run--><g class="link" data-entity-1="ent0004" data-entity-2="ent0023" data-link-type="dependency" data-source-line="41" id="lnk36"><path d="M293.12,126.4779 C293.12,114.2079 293.12,102.7579 293.12,102.7579 C293.12,102.7579 400.92,102.7579 454.26,102.7579" fill="none" id="source_site_scripts_run_tachometer_profile_sh-to-tool_run" style="stroke:#181818;stroke-width:1;"/><polygon fill="#181818" points="460.26,102.7579,451.26,98.7579,455.26,102.7579,451.26,106.7579,460.26,102.7579" style="stroke:#181818;stroke-width:1;"/></g><!--link source_site_scripts_run_tachometer_profile_sh to tool_summarize--><g class="link" data-entity-1="ent0004" data-entity-2="ent0026" data-link-type="dependency" data-source-line="42" id="lnk37"><path d="M310.57,172.5379 C354.88,172.5379 395.22,172.5379 429.31,172.5379" fill="none" id="source_site_scripts_run_tachometer_profile_sh-to-tool_summarize" style="stroke:#181818;stroke-width:1;"/><polygon fill="#181818" points="435.31,172.5379,426.31,168.5379,430.31,172.5379,426.31,176.5379,435.31,172.5379" style="stroke:#181818;stroke-width:1;"/></g><!--link source_site_scripts_run_tachometer_profile_sh to tool_tachometer--><g class="link" data-entity-1="ent0004" data-entity-2="ent0028" data-link-type="dependency" data-source-line="43" id="lnk38"><path d="M303.12,185.1379 C303.12,214.5379 303.12,255.4379 303.12,255.4379 C303.12,255.4379 373.61,255.4379 428,255.4379" fill="none" id="source_site_scripts_run_tachometer_profile_sh-to-tool_tachometer" style="stroke:#181818;stroke-width:1;"/><polygon fill="#181818" points="434,255.4379,425,251.4379,429,255.4379,425,259.4379,434,255.4379" style="stroke:#181818;stroke-width:1;"/></g><!--link source_scripts_install_weekly_blog_agentic_systemd_sh to tool_cat--><g class="link" data-entity-1="ent0005" data-entity-2="ent0012" data-link-type="dependency" data-source-line="44" id="lnk39"><path d="M336.87,758.0379 C385.93,758.0379 428.04,758.0379 456.16,758.0379" fill="none" id="source_scripts_install_weekly_blog_agentic_systemd_sh-to-tool_cat" style="stroke:#181818;stroke-width:1;"/><polygon fill="#181818" points="462.16,758.0379,453.16,754.0379,457.16,758.0379,453.16,762.0379,462.16,758.0379" style="stroke:#181818;stroke-width:1;"/></g><!--link source_scripts_install_weekly_blog_agentic_systemd_sh to tool_systemctl--><g class="link" data-entity-1="ent0005" data-entity-2="ent0027" data-link-type="dependency" data-source-line="45" id="lnk40"><path d="M336.87,711.5079 C375.2,711.5079 406.94,711.5079 435.02,711.5079" fill="none" id="source_scripts_install_weekly_blog_agentic_systemd_sh-to-tool_systemctl" style="stroke:#181818;stroke-width:1;"/><polygon fill="#181818" points="441.02,711.5079,432.02,707.5079,436.02,711.5079,432.02,715.5079,441.02,711.5079" style="stroke:#181818;stroke-width:1;"/></g><!--link source_scripts_run_tachometer_profile_sh to tool_run--><g class="link" data-entity-1="ent0006" data-entity-2="ent0023" data-link-type="dependency" data-source-line="46" id="lnk41"><path d="M293.2,227.8879 C310.8,227.8879 323.12,227.8879 323.12,227.8879 C323.12,227.8879 323.12,114.0279 323.12,114.0279 C323.12,114.0279 408.01,114.0279 454.52,114.0279" fill="none" id="source_scripts_run_tachometer_profile_sh-to-tool_run" style="stroke:#181818;stroke-width:1;"/><polygon fill="#181818" points="460.52,114.0279,451.52,110.0279,455.52,114.0279,451.52,118.0279,460.52,114.0279" style="stroke:#181818;stroke-width:1;"/></g><!--link source_scripts_run_tachometer_profile_sh to tool_summarize--><g class="link" data-entity-1="ent0006" data-entity-2="ent0026" data-link-type="dependency" data-source-line="47" id="lnk42"><path d="M293.2,236.0579 C382.05,236.0579 487.12,236.0579 487.12,236.0579 C487.12,236.0579 487.12,228.6279 487.12,215.5179" fill="none" id="source_scripts_run_tachometer_profile_sh-to-tool_summarize" style="stroke:#181818;stroke-width:1;"/><polygon fill="#181818" points="487.12,209.5179,483.12,218.5179,487.12,214.5179,491.12,218.5179,487.12,209.5179" style="stroke:#181818;stroke-width:1;"/></g><!--link source_scripts_run_tachometer_profile_sh to tool_tachometer--><g class="link" data-entity-1="ent0006" data-entity-2="ent0028" data-link-type="dependency" data-source-line="48" id="lnk43"><path d="M293.25,266.6379 C341.86,266.6379 389.33,266.6379 427.8,266.6379" fill="none" id="source_scripts_run_tachometer_profile_sh-to-tool_tachometer" style="stroke:#181818;stroke-width:1;"/><polygon fill="#181818" points="433.8,266.6379,424.8,262.6379,428.8,266.6379,424.8,270.6379,433.8,266.6379" style="stroke:#181818;stroke-width:1;"/></g><!--link source_scripts_weekly_blog_agentic_sh to tool_cd--><g class="link" data-entity-1="ent0007" data-entity-2="ent0008" data-link-type="dependency" data-source-line="49" id="lnk44"><path d="M251.12,1293.2279 C251.12,1255.9879 251.12,1196.7779 251.12,1196.7779 C251.12,1196.7779 395.8,1196.7779 456.43,1196.7779" fill="none" id="source_scripts_weekly_blog_agentic_sh-to-tool_cd" style="stroke:#181818;stroke-width:1;"/><polygon fill="#181818" points="462.43,1196.7779,453.43,1192.7779,457.43,1196.7779,453.43,1200.7779,462.43,1196.7779" style="stroke:#181818;stroke-width:1;"/></g><!--link source_scripts_weekly_blog_agentic_sh to tool_attempt--><g class="link" data-entity-1="ent0007" data-entity-2="ent0010" data-link-type="dependency" data-source-line="50" id="lnk45"><path d="M283.4,1301.4379 C339.6,1301.4379 398.36,1301.4379 439.53,1301.4379" fill="none" id="source_scripts_weekly_blog_agentic_sh-to-tool_attempt" style="stroke:#181818;stroke-width:1;"/><polygon fill="#181818" points="445.53,1301.4379,436.53,1297.4379,440.53,1301.4379,436.53,1305.4379,445.53,1301.4379" style="stroke:#181818;stroke-width:1;"/></g><!--link source_scripts_weekly_blog_agentic_sh to tool_bundle--><g class="link" data-entity-1="ent0007" data-entity-2="ent0011" data-link-type="dependency" data-source-line="51" id="lnk46"><path d="M283.38,1297.5779 C326.71,1297.5779 366.12,1297.5779 366.12,1297.5779 C366.12,1297.5779 366.12,616.9479 366.12,616.9479 C366.12,616.9479 407.44,616.9479 442.93,616.9479" fill="none" id="source_scripts_weekly_blog_agentic_sh-to-tool_bundle" style="stroke:#181818;stroke-width:1;"/><polygon fill="#181818" points="448.93,616.9479,439.93,612.9479,443.93,616.9479,439.93,620.9479,448.93,616.9479" style="stroke:#181818;stroke-width:1;"/></g><!--link source_scripts_weekly_blog_agentic_sh to tool_cat--><g class="link" data-entity-1="ent0007" data-entity-2="ent0012" data-link-type="dependency" data-source-line="52" id="lnk47"><path d="M92.12,1293.3479 C92.12,1180.6179 92.12,782.5779 92.12,782.5779 C92.12,782.5779 369.38,782.5779 456.24,782.5779" fill="none" id="source_scripts_weekly_blog_agentic_sh-to-tool_cat" style="stroke:#181818;stroke-width:1;"/><polygon fill="#181818" points="462.24,782.5779,453.24,778.5779,457.24,782.5779,453.24,786.5779,462.24,782.5779" style="stroke:#181818;stroke-width:1;"/></g><!--link source_scripts_weekly_blog_agentic_sh to tool_cmd_model--><g class="link" data-entity-1="ent0007" data-entity-2="ent0013" data-link-type="dependency" data-source-line="53" id="lnk48"><path d="M283.4,1346.0379 C329.85,1346.0379 376.14,1346.0379 416.14,1346.0379" fill="none" id="source_scripts_weekly_blog_agentic_sh-to-tool_cmd_model" style="stroke:#181818;stroke-width:1;"/><polygon fill="#181818" points="422.14,1346.0379,413.14,1342.0379,417.14,1346.0379,413.14,1350.0379,422.14,1346.0379" style="stroke:#181818;stroke-width:1;"/></g><!--link source_scripts_weekly_blog_agentic_sh to tool_cp--><g class="link" data-entity-1="ent0007" data-entity-2="ent0014" data-link-type="dependency" data-source-line="54" id="lnk49"><path d="M255.12,1352.3179 C255.12,1389.5579 255.12,1448.7779 255.12,1448.7779 C255.12,1448.7779 399.43,1448.7779 458.15,1448.7779" fill="none" id="source_scripts_weekly_blog_agentic_sh-to-tool_cp" style="stroke:#181818;stroke-width:1;"/><polygon fill="#181818" points="464.15,1448.7779,455.15,1444.7779,459.15,1448.7779,455.15,1452.7779,464.15,1448.7779" style="stroke:#181818;stroke-width:1;"/></g><!--link source_scripts_weekly_blog_agentic_sh to tool_find--><g class="link" data-entity-1="ent0007" data-entity-2="ent0015" data-link-type="dependency" data-source-line="55" id="lnk50"><path d="M227.12,1351.9779 C227.12,1409.6779 227.12,1532.7779 227.12,1532.7779 C227.12,1532.7779 385.5,1532.7779 452.92,1532.7779" fill="none" id="source_scripts_weekly_blog_agentic_sh-to-tool_find" style="stroke:#181818;stroke-width:1;"/><polygon fill="#181818" points="458.92,1532.7779,449.92,1528.7779,453.92,1532.7779,449.92,1536.7779,458.92,1532.7779" style="stroke:#181818;stroke-width:1;"/></g><!--link source_scripts_weekly_blog_agentic_sh to tool_flock--><g class="link" data-entity-1="ent0007" data-entity-2="ent0016" data-link-type="dependency" data-source-line="56" id="lnk51"><path d="M199.12,1352.3079 C199.12,1426.8679 199.12,1616.7779 199.12,1616.7779 C199.12,1616.7779 376.09,1616.7779 450.42,1616.7779" fill="none" id="source_scripts_weekly_blog_agentic_sh-to-tool_flock" style="stroke:#181818;stroke-width:1;"/><polygon fill="#181818" points="456.42,1616.7779,447.42,1612.7779,451.42,1616.7779,447.42,1620.7779,456.42,1616.7779" style="stroke:#181818;stroke-width:1;"/></g><!--link source_scripts_weekly_blog_agentic_sh to tool_git--><g class="link" data-entity-1="ent0007" data-entity-2="ent0017" data-link-type="dependency" data-source-line="57" id="lnk52"><path d="M172.12,1352.1179 C172.12,1440.9379 172.12,1700.7779 172.12,1700.7779 C172.12,1700.7779 383.77,1700.7779 457.31,1700.7779" fill="none" id="source_scripts_weekly_blog_agentic_sh-to-tool_git" style="stroke:#181818;stroke-width:1;"/><polygon fill="#181818" points="463.31,1700.7779,454.31,1696.7779,458.31,1700.7779,454.31,1704.7779,463.31,1700.7779" style="stroke:#181818;stroke-width:1;"/></g><!--link source_scripts_weekly_blog_agentic_sh to tool_ln--><g class="link" data-entity-1="ent0007" data-entity-2="ent0019" data-link-type="dependency" data-source-line="58" id="lnk53"><path d="M144.12,1352.0279 C144.12,1453.5779 144.12,1784.7779 144.12,1784.7779 C144.12,1784.7779 384.67,1784.7779 459.79,1784.7779" fill="none" id="source_scripts_weekly_blog_agentic_sh-to-tool_ln" style="stroke:#181818;stroke-width:1;"/><polygon fill="#181818" points="465.79,1784.7779,456.79,1780.7779,460.79,1784.7779,456.79,1788.7779,465.79,1784.7779" style="stroke:#181818;stroke-width:1;"/></g><!--link source_scripts_weekly_blog_agentic_sh to tool_mkdir--><g class="link" data-entity-1="ent0007" data-entity-2="ent0020" data-link-type="dependency" data-source-line="59" id="lnk54"><path d="M116.12,1352.1279 C116.12,1465.5379 116.12,1868.7779 116.12,1868.7779 C116.12,1868.7779 354.54,1868.7779 446.67,1868.7779" fill="none" id="source_scripts_weekly_blog_agentic_sh-to-tool_mkdir" style="stroke:#181818;stroke-width:1;"/><polygon fill="#181818" points="452.67,1868.7779,443.67,1864.7779,447.67,1868.7779,443.67,1872.7779,452.67,1868.7779" style="stroke:#181818;stroke-width:1;"/></g><!--link source_scripts_weekly_blog_agentic_sh to tool_null--><g class="link" data-entity-1="ent0007" data-entity-2="ent0021" data-link-type="dependency" data-source-line="60" id="lnk55"><path d="M88.12,1352.3179 C88.12,1476.8679 88.12,1952.7779 88.12,1952.7779 C88.12,1952.7779 362.99,1952.7779 453.51,1952.7779" fill="none" id="source_scripts_weekly_blog_agentic_sh-to-tool_null" style="stroke:#181818;stroke-width:1;"/><polygon fill="#181818" points="459.51,1952.7779,450.51,1948.7779,454.51,1952.7779,450.51,1956.7779,459.51,1952.7779" style="stroke:#181818;stroke-width:1;"/></g><!--link source_scripts_weekly_blog_agentic_sh to tool_sed--><g class="link" data-entity-1="ent0007" data-entity-2="ent0024" data-link-type="dependency" data-source-line="61" id="lnk56"><path d="M124.12,1293.5279 C124.12,1191.9679 124.12,860.7779 124.12,860.7779 C124.12,860.7779 370.1,860.7779 454.26,860.7779" fill="none" id="source_scripts_weekly_blog_agentic_sh-to-tool_sed" style="stroke:#181818;stroke-width:1;"/><polygon fill="#181818" points="460.26,860.7779,451.26,856.7779,455.26,860.7779,451.26,864.7779,460.26,860.7779" style="stroke:#181818;stroke-width:1;"/></g><!--link source_scripts_weekly_blog_agentic_sh to tool_sort--><g class="link" data-entity-1="ent0007" data-entity-2="ent0025" data-link-type="dependency" data-source-line="62" id="lnk57"><path d="M156.12,1293.4279 C156.12,1204.6179 156.12,944.7779 156.12,944.7779 C156.12,944.7779 372.95,944.7779 453.02,944.7779" fill="none" id="source_scripts_weekly_blog_agentic_sh-to-tool_sort" style="stroke:#181818;stroke-width:1;"/><polygon fill="#181818" points="459.02,944.7779,450.02,940.7779,454.02,944.7779,450.02,948.7779,459.02,944.7779" style="stroke:#181818;stroke-width:1;"/></g><!--link source_scripts_weekly_blog_agentic_sh to tool_tee--><g class="link" data-entity-1="ent0007" data-entity-2="ent0029" data-link-type="dependency" data-source-line="63" id="lnk58"><path d="M187.12,1293.2379 C187.12,1218.6879 187.12,1028.7779 187.12,1028.7779 C187.12,1028.7779 382.6,1028.7779 455.41,1028.7779" fill="none" id="source_scripts_weekly_blog_agentic_sh-to-tool_tee" style="stroke:#181818;stroke-width:1;"/><polygon fill="#181818" points="461.41,1028.7779,452.41,1024.7779,456.41,1028.7779,452.41,1032.7779,461.41,1028.7779" style="stroke:#181818;stroke-width:1;"/></g><!--link source_scripts_weekly_blog_agentic_sh to tool_tr--><g class="link" data-entity-1="ent0007" data-entity-2="ent0030" data-link-type="dependency" data-source-line="64" id="lnk59"><path d="M219.12,1293.5779 C219.12,1235.8679 219.12,1112.7779 219.12,1112.7779 C219.12,1112.7779 397.87,1112.7779 460.66,1112.7779" fill="none" id="source_scripts_weekly_blog_agentic_sh-to-tool_tr" style="stroke:#181818;stroke-width:1;"/><polygon fill="#181818" points="466.66,1112.7779,457.66,1108.7779,461.66,1112.7779,457.66,1116.7779,466.66,1112.7779" style="stroke:#181818;stroke-width:1;"/></g><?plantuml-src hLV1Rfmm4Btp5LPoYLInsoPIUcelRRRgeRsanqgMrtWN2sCZUz2AVdt7i80BR88tlJ6UzsR6WySFG88IX3DdTB4vIiZh_KOQyiiO9VMHVDSWZfQ1DDebIXo0W25M7dCWcRI2UqVY2gahPbb9NCuoS_B40rDE19vC75YjO6Sq_6Ib83-CDgvYFCHmKrP62mtFq61HFZpJHnL2i2W1JIM8iP2RP82GctFnsvEnnK6PazjokMbAzLi_O790eCYmUAFS3M6EE5DRBcX7eWE9SacHH6wVtk_kTqyl9t22Mm6fuqntcUvZCdLiwjcNKb8dGMmTjx82jxMrfi1uRafCOcbbpK4giN7vorlqCUWv1bsEGLs-bBvFBBK3fXGz2L6eXkwLEL9snFSaENMD0r5cRHKlRRylO4MiLwgvjWrlwS12jMt23uyhCYvkTKp7bQapSdF7ivRimr2UaTlTq-xXoyVUpTfHmqET2rwO6aRisKDxpum9sDGg97GBKzo-rfaI8wopfoZEWaXepFnbzkxJNPgM9XCgGE9hRPTc-2e0LLFlGUgWAzwQ8PJXHG3nvXI3epSYq5ZmAy4Aj-qVqgwd_v1Qn_ZG8QQHLC1HCszPu9qv0bfpYj6r2jhchId2rli6hnwegzG_Zc1lqTRHFivvEiJEgdCYQ3KQCpzUkG40hHcYBajcvP_W40rBCsmxwno2pGvBK-muhYDuN9kXHP0VZPa_Z3AoNn64DFsyF6whYTqyhOPFtcQoLaRY2xqOuTAfJ-AK9TZIrTJX75qRO7GdrodI40allRU664vwibgS5flublxzZzPTKBQnLLaiuwnDiRH_PsjrUImwqQ1ZqSGgbk7LBfhZvI-MXDCTIr4wbj6ANIp9oryi1vKhce9Q5ij1OOccs4GR4Btuu5_IDykg_BaTpIPvnljNe-m-zbw28MnJ6Qd1RPAl_NVc_GE1NDeinJyYQBhFpaqYyDF8H_yB?></g></svg>
