<?plantuml 1.2026.2?><svg xmlns="http://www.w3.org/2000/svg" xmlns:xlink="http://www.w3.org/1999/xlink" contentStyleType="text/css" data-diagram-type="DESCRIPTION" height="276px" preserveAspectRatio="none" style="width:521px;height:276px;background:#FFFFFF;" version="1.1" viewBox="0 0 521 276" width="521px" zoomAndPan="magnify"><title>casonk.github.io Tooling Integrations</title><defs/><g><g class="title" data-source-line="1"><text fill="#000000" font-family="Monospace" font-size="14" font-weight="bold" lengthAdjust="spacing" textLength="261.5436" x="122.8998" y="24.9659">casonk.github.io&#160;Tooling&#160;Integrations</text></g><!--entity source_github_workflows_ci_yml--><g class="entity" data-qualified-name="source_github_workflows_ci_yml" data-source-line="7" id="ent0002"><rect fill="#E0F2FE" height="39.0679" rx="2.5" ry="2.5" style="stroke:#181818;stroke-width:0.5;" width="301.8189" x="7" y="134.5146"/><text fill="#000000" font-family="Monospace" font-size="14" lengthAdjust="spacing" textLength="281.8189" x="17" y="159.4805">.github/workflows/ci.yml\n3&#160;detected&#160;tools</text></g><!--entity tool_actions_checkout--><g class="entity" data-qualified-name="tool_actions_checkout" data-source-line="8" id="ent0003"><path d="M378.2521,53.8803 C382.1039,47.7213 386.8465,47.8618 390.576,54.0028 C393.8817,47.2399 398.8834,48.4888 402.922,53.2153 C407.5423,46.0679 411.8029,46.1928 416.4439,53.1956 C420.7187,46.9122 424.5513,47.9002 428.6473,53.3812 C431.9788,48.6952 437.1924,48.8489 439.9726,54.0149 C442.6708,48.3572 448.9373,47.8653 452.5145,52.9928 C456.5941,46.9554 461.8919,47.015 466.265,52.6469 C471.4396,47.2114 476.2012,47.7115 479.0516,54.9852 C482.0226,48.8612 487.5029,48.9453 490.5415,54.921 C494.5103,49.0874 498.8944,49.8445 502.9044,54.874 C512.5857,57.2837 513.8959,63.4434 508.8982,71.2317 C514.3431,79.6889 512.878,84.7921 502.9347,87.6652 C500.6871,93.3365 495.3273,93.8078 492.1514,88.584 C488.5644,95.0942 482.4023,95.6835 477.8111,89.7403 C475.0776,95.6427 471.1071,97.2581 465.8771,92.5475 C462.5962,99.0514 458.1001,98.8755 454.0201,93.334 C451.4917,100.7731 444.9743,101.2401 440.966,94.7178 C436.0627,101.1156 430.6036,99.0399 428.1165,92.3462 C424.1806,99.1242 418.2589,98.9687 414.6881,91.9898 C410.1534,97.5081 405.4651,96.0295 402.7915,90.0621 C398.9143,95.1797 393.5553,94.8018 391.0114,88.6665 C386.5505,94.1295 380.3286,94.8653 377.0671,87.3753 C369.9691,83.3238 368.5677,75.3409 377.1487,71.3694 C368.9064,65.3412 369.8535,58.8586 378.2521,53.8803" fill="#FEF3C7" style="stroke:#181818;stroke-width:0.5;"/><text fill="#000000" font-family="Monospace" font-size="14" lengthAdjust="spacing" textLength="111.9156" x="383.82" y="75.4805">actions/checkout</text></g><!--entity tool_bundle--><g class="entity" data-qualified-name="tool_bundle" data-source-line="9" id="ent0004"><path d="M411.8553,139.3092 C416.2944,132.3133 420.7389,131.4204 425.9823,138.502 C429.2179,129.609 436.7096,130.1305 441.9487,136.391 C447.2947,129.1864 453.0756,130.7638 456.8605,138.0027 C460.7386,131.0706 465.6048,131.0439 469.9737,137.5228 C482.2481,137.2739 486.2679,145.2561 480.8684,155.637 C486.4047,164.1035 482.024,172.1357 471.9377,172.1561 C466.2174,180.8482 460.1696,179.8498 454.7861,171.8108 C451.0278,178.7298 444.4704,179.7328 440.0016,172.556 C435.0915,178.1254 430.2729,177.8042 425.9472,171.8437 C421.4747,179.2652 415.428,179.7744 410.848,171.9501 C401.9963,167.1033 401.804,161.5219 409.4652,155.3034 C403.7158,149.3069 403.7722,143.2386 411.8553,139.3092" fill="#FEF3C7" style="stroke:#181818;stroke-width:0.5;"/><text fill="#000000" font-family="Monospace" font-size="14" lengthAdjust="spacing" textLength="46.0318" x="416.76" y="159.4805">bundle</text></g><!--entity tool_ruby_setup_ruby--><g class="entity" data-qualified-name="tool_ruby_setup_ruby" data-source-line="10" id="ent0005"><path d="M381.4201,223.4617 C383.9814,217.4689 389.39,218.5707 392.2606,223.1444 C396.4631,216.9508 400.4858,217.0693 405.0777,222.7231 C407.1315,216.9807 411.3932,215.5394 415.6255,220.5952 C419.6666,213.7812 424.8465,213.6289 429.1784,220.3031 C432.276,215.4 437.5347,215.3644 440.2518,220.7141 C443.9972,214.3673 448.0749,214.0853 452.1736,220.381 C456.5324,214.7691 462.2993,216.0546 464.792,222.3575 C468.1278,215.843 472.6896,215.1694 477.3024,221.0708 C482.596,215.7101 486.5472,217.2696 489.7805,223.3232 C492.2396,217.8014 497.0817,217.0364 500.3732,222.5222 C508.0223,224.9859 511.8814,232.3521 504.696,238.7641 C512.6427,245.5645 510.8717,252.6608 501.4028,256.1654 C498.4626,263.408 493.6512,262.3773 489.1165,257.8264 C484.87,263.2954 481.0558,264.3211 476.6713,257.9718 C474.5341,264.6331 468.6196,265.6717 464.7405,259.6044 C462.3922,265.6825 457.127,266.062 453.2157,261.2598 C450.8259,267.895 446.6831,267.9265 441.8754,263.8101 C437.7236,269.252 432.1143,268.8358 429.8584,261.9605 C425.8316,268.1491 419.5966,267.6254 416.8407,260.6991 C413.1347,266.49 408.2432,266.1848 405.5065,259.797 C400.9684,266.4021 395.3436,265.7694 392.5339,258.2136 C387.2367,263.1341 382.3912,263.0638 379.8526,255.4276 C371.9014,251.4004 371.0195,244.9199 378.9691,239.9831 C370.798,233.5333 373.1159,227.4673 381.4201,223.4617" fill="#FEF3C7" style="stroke:#181818;stroke-width:0.5;"/><text fill="#000000" font-family="Monospace" font-size="14" lengthAdjust="spacing" textLength="107.0016" x="386.28" y="243.4805">ruby/setup-ruby</text></g><g class="entity" data-qualified-name="toolingGraphSummary" data-source-line="15" id="ent0009"><path d="M57.27,54.3446 L57.27,99.7566 L258.5542,99.7566 L258.5542,64.3446 L248.5542,54.3446 L57.27,54.3446" fill="#FEFFDD" style="stroke:#181818;stroke-width:0.5;"/><path d="M248.5542,54.3446 L248.5542,64.3446 L258.5542,64.3446 L248.5542,54.3446" fill="#FEFFDD" style="stroke:#181818;stroke-width:1;"/><text fill="#000000" font-family="Monospace" font-size="13" lengthAdjust="spacing" textLength="180.2842" x="63.27" y="73.2416">Scanned&#160;1&#160;tooling&#160;entrypoint.</text><text fill="#000000" font-family="Monospace" font-size="13" lengthAdjust="spacing" textLength="171.7822" x="63.27" y="90.9476">Detected&#160;3&#160;third-party&#160;tools.</text></g><!--link source_github_workflows_ci_yml to tool_actions_checkout--><g class="link" data-entity-1="ent0002" data-entity-2="ent0003" data-link-type="dependency" data-source-line="11" id="lnk6"><path d="M309.3,144.2846 C354.25,144.2846 391.73,144.2846 391.73,144.2846 C391.73,144.2846 391.73,122.3646 391.73,100.7646" fill="none" id="source_github_workflows_ci_yml-to-tool_actions_checkout" style="stroke:#181818;stroke-width:1;"/><polygon fill="#181818" points="391.73,94.7646,387.73,103.7646,391.73,99.7646,395.73,103.7646,391.73,94.7646" style="stroke:#181818;stroke-width:1;"/></g><!--link source_github_workflows_ci_yml to tool_bundle--><g class="link" data-entity-1="ent0002" data-entity-2="ent0004" data-link-type="dependency" data-source-line="12" id="lnk7"><path d="M309.16,154.0546 C343.5,154.0546 371.03,154.0546 395.52,154.0546" fill="none" id="source_github_workflows_ci_yml-to-tool_bundle" style="stroke:#181818;stroke-width:1;"/><polygon fill="#181818" points="401.52,154.0546,392.52,150.0546,396.52,154.0546,392.52,158.0546,401.52,154.0546" style="stroke:#181818;stroke-width:1;"/></g><!--link source_github_workflows_ci_yml to tool_ruby_setup_ruby--><g class="link" data-entity-1="ent0002" data-entity-2="ent0005" data-link-type="dependency" data-source-line="13" id="lnk8"><path d="M309.06,163.8146 C349.27,163.8146 381.73,163.8146 381.73,163.8146 C381.73,163.8146 381.73,185.7346 381.73,207.3346" fill="none" id="source_github_workflows_ci_yml-to-tool_ruby_setup_ruby" style="stroke:#181818;stroke-width:1;"/><polygon fill="#181818" points="381.73,213.3346,385.73,204.3346,381.73,208.3346,377.73,204.3346,381.73,213.3346" style="stroke:#181818;stroke-width:1;"/></g><?plantuml-src ZL8zRuCm4Dtv5QTaXhJDqArB6weExPAEaP1Z3h0mTyW-A-BVrq18egXIkztfVVYTdiM8HT3ACxLPRQG9nymmV3DRGpLya63jb1WcdrYi18J1cReHA8r3FGA9RmtrogaEVADAFet2IbcFDqY9bGfMSYRvKXt29nFxNkbRZkQkPqAIlGmnr6YlgBQtb1WAPUWHs4d3oOK2gtFupObTMra--OqssT3Pmu6syNM9J2nZUhP-1Sg3v-0q5hEgkAWAROgeWlNk8N_ATucs74fOgUdIwDcWRZd8P36Q5MUaM11Ovxjy-_gyA8-1IejN_hpVirmu3XkF4lfq7A_qSIicO1elkZ_Yf-dBx_7-BPnp_fj-bpCX5boEYF_XtQc-sOUkKsv8zbeHnJ8U5nHYvsxesP1aoTlIrHQaCQvCO_CopCrb2L89e_SF?></g></svg>