<?plantuml 1.2026.2?><svg xmlns="http://www.w3.org/2000/svg" xmlns:xlink="http://www.w3.org/1999/xlink" contentStyleType="text/css" data-diagram-type="DESCRIPTION" height="1920px" preserveAspectRatio="none" style="width:548px;height:1920px;background:#FFFFFF;" version="1.1" viewBox="0 0 548 1920" width="548px" zoomAndPan="magnify"><title>casonk.github.io Tooling Integrations</title><defs/><g><g class="title" data-source-line="1"><text fill="#000000" font-family="Monospace" font-size="14" font-weight="bold" lengthAdjust="spacing" textLength="261.5436" x="136.6898" y="24.9659">casonk.github.io&#160;Tooling&#160;Integrations</text></g><!--entity source_github_workflows_ci_yml--><g class="entity" data-qualified-name="source_github_workflows_ci_yml" data-source-line="7" id="ent0002"><rect fill="#E0F2FE" height="58.1358" rx="2.5" ry="2.5" style="stroke:#181818;stroke-width:0.5;" width="182.6234" x="80.39" y="424.7079"/><text fill="#000000" font-family="Monospace" font-size="14" lengthAdjust="spacing" textLength="162.6234" x="90.39" y="449.6739">.github/workflows/ci.yml</text><text fill="#000000" font-family="Monospace" font-size="14" lengthAdjust="spacing" textLength="105.3356" x="90.39" y="468.7418">3&#160;detected&#160;tools</text></g><!--entity source_site_scripts_run_tachometer_profile_sh--><g class="entity" data-qualified-name="source_site_scripts_run_tachometer_profile_sh" data-source-line="8" id="ent0003"><rect fill="#E0F2FE" height="58.1358" rx="2.5" ry="2.5" style="stroke:#181818;stroke-width:0.5;" width="276.983" x="33.21" y="126.7079"/><text fill="#000000" font-family="Monospace" font-size="14" lengthAdjust="spacing" textLength="256.983" x="43.21" y="151.6739">_site/scripts/run_tachometer_profile.sh</text><text fill="#000000" font-family="Monospace" font-size="14" lengthAdjust="spacing" textLength="105.3356" x="43.21" y="170.7418">3&#160;detected&#160;tools</text></g><!--entity source_scripts_install_weekly_blog_agentic_systemd_sh--><g class="entity" data-qualified-name="source_scripts_install_weekly_blog_agentic_systemd_sh" data-source-line="9" id="ent0004"><rect fill="#E0F2FE" height="58.1358" rx="2.5" ry="2.5" style="stroke:#181818;stroke-width:0.5;" width="329.3988" x="7" y="1810.7079"/><text fill="#000000" font-family="Monospace" font-size="14" lengthAdjust="spacing" textLength="309.3988" x="17" y="1835.6739">scripts/install_weekly_blog_agentic_systemd.sh</text><text fill="#000000" font-family="Monospace" font-size="14" lengthAdjust="spacing" textLength="105.3356" x="17" y="1854.7418">2&#160;detected&#160;tools</text></g><!--entity source_scripts_run_tachometer_profile_sh--><g class="entity" data-qualified-name="source_scripts_run_tachometer_profile_sh" data-source-line="10" id="ent0005"><rect fill="#E0F2FE" height="58.1358" rx="2.5" ry="2.5" style="stroke:#181818;stroke-width:0.5;" width="242.2912" x="50.55" y="219.7079"/><text fill="#000000" font-family="Monospace" font-size="14" lengthAdjust="spacing" textLength="222.2912" x="60.55" y="244.6739">scripts/run_tachometer_profile.sh</text><text fill="#000000" font-family="Monospace" font-size="14" lengthAdjust="spacing" textLength="105.3356" x="60.55" y="263.7418">3&#160;detected&#160;tools</text></g><!--entity source_scripts_weekly_blog_agentic_sh--><g class="entity" data-qualified-name="source_scripts_weekly_blog_agentic_sh" data-source-line="11" id="ent0006"><rect fill="#E0F2FE" height="58.1358" rx="2.5" ry="2.5" style="stroke:#181818;stroke-width:0.5;" width="222.6632" x="60.37" y="1138.7079"/><text fill="#000000" font-family="Monospace" font-size="14" lengthAdjust="spacing" textLength="202.6632" x="70.37" y="1163.6739">scripts/weekly_blog_agentic.sh</text><text fill="#000000" font-family="Monospace" font-size="14" lengthAdjust="spacing" textLength="113.3436" x="70.37" y="1182.7418">16&#160;detected&#160;tools</text></g><!--entity tool_cd--><g class="entity" data-qualified-name="tool_cd" data-source-line="12" id="ent0007"><path d="M451.5082,606.252 C455.3766,596.1677 462.2254,596.5683 468.9731,603.2533 C476.44,596.5867 480.7835,599.4412 484.3758,607.3483 C492.9912,610.5011 493.4793,615.9933 488.1738,622.6103 C494.1214,628.7674 493.7432,636.6645 484.2931,639.2252 C481.9849,649.0175 474.7231,650.0206 467.3792,644.9596 C459.58,651.0264 454.3462,648.3037 451.9527,639.3922 C441.1925,638.1426 439.7803,632.6966 444.4037,623.9343 C438.694,615.8636 440.2407,607.5015 451.5082,606.252" fill="#FEF3C7" style="stroke:#181818;stroke-width:0.5;"/><text fill="#000000" font-family="Monospace" font-size="14" lengthAdjust="spacing" textLength="19.5299" x="457.59" y="627.2039">(cd</text></g><!--entity tool_actions_checkout--><g class="entity" data-qualified-name="tool_actions_checkout" data-source-line="13" id="ent0008"><path d="M405.8321,353.6036 C409.6839,347.4446 414.4265,347.5851 418.156,353.7262 C421.4617,346.9632 426.4634,348.2122 430.502,352.9387 C435.1223,345.7913 439.3829,345.9161 444.0239,352.919 C448.2987,346.6356 452.1313,347.6236 456.2273,353.1045 C459.5588,348.4186 464.7724,348.5722 467.5526,353.7382 C470.2508,348.0805 476.5173,347.5886 480.0945,352.7161 C484.1741,346.6788 489.4719,346.7384 493.845,352.3702 C499.0196,346.9347 503.7812,347.4348 506.6316,354.7085 C509.6026,348.5845 515.0829,348.6686 518.1215,354.6443 C522.0903,348.8108 526.4744,349.5678 530.4844,354.5974 C540.1657,357.007 541.4759,363.1667 536.4782,370.955 C541.9231,379.4122 540.458,384.5155 530.5147,387.3885 C528.2671,393.0599 522.9073,393.5312 519.7314,388.3073 C516.1444,394.8175 509.9823,395.4068 505.3911,389.4636 C502.6576,395.3661 498.6871,396.9815 493.4571,392.2708 C490.1762,398.7747 485.6801,398.5988 481.6001,393.0573 C479.0717,400.4965 472.5543,400.9634 468.546,394.4411 C463.6427,400.8389 458.1836,398.7632 455.6965,392.0695 C451.7606,398.8475 445.8389,398.6921 442.2681,391.7131 C437.7334,397.2315 433.0451,395.7529 430.3715,389.7855 C426.4943,394.903 421.1353,394.5251 418.5914,388.3898 C414.1305,393.8529 407.9086,394.5887 404.6471,387.0986 C397.5491,383.0471 396.1477,375.0642 404.7287,371.0927 C396.4864,365.0645 397.4335,358.5819 405.8321,353.6036" fill="#FEF3C7" style="stroke:#181818;stroke-width:0.5;"/><text fill="#000000" font-family="Monospace" font-size="14" lengthAdjust="spacing" textLength="111.9156" x="411.4" y="375.2039">actions/checkout</text></g><!--entity tool_attempt--><g class="entity" data-qualified-name="tool_attempt" data-source-line="14" id="ent0009"><path d="M434.5394,689.8301 C438.1339,683.8321 442.6609,684.5806 445.904,690.1747 C449.0706,685.1431 452.6306,684.2738 456.6585,689.2492 C459.7139,683.4276 465.104,682.6442 469.4094,687.797 C473.0226,684.1214 476.0714,684.0716 478.5532,688.9996 C482.6362,684.0118 486.7337,683.6905 489.9868,689.8508 C493.7443,684.6493 498.0171,683.8974 501.8491,689.771 C509.8079,694.2336 509.7382,700.5377 503.5516,706.4446 C509.9105,713.0189 510.3316,719.6793 500.8965,723.8434 C499.4206,729.8685 494.7386,730.0642 490.7481,726.5064 C488.0453,731.996 484.7249,733.0264 480.0627,728.6227 C478.2867,734.5839 475.5194,737.3498 469.4519,733.0684 C463.8471,736.8682 458.5895,736.6768 457.0801,728.7483 C453.1348,732.988 449.0921,731.491 446.9647,726.7098 C441.5554,732.5823 437.3613,730.9296 434.7162,724.0539 C425.8323,719.2288 426.1083,713.0796 434.415,707.9332 C425.791,701.8835 426.4202,695.7648 434.5394,689.8301" fill="#FEF3C7" style="stroke:#181818;stroke-width:0.5;"/><text fill="#000000" font-family="Monospace" font-size="14" lengthAdjust="spacing" textLength="52.6118" x="441.05" y="711.2039">attempt</text></g><!--entity tool_bundle--><g class="entity" data-qualified-name="tool_bundle" data-source-line="15" id="ent0010"><path d="M439.4353,523.0325 C443.8744,516.0366 448.3189,515.1438 453.5623,522.2254 C456.7979,513.3324 464.2896,513.8538 469.5287,520.1143 C474.8747,512.9097 480.6556,514.4871 484.4405,521.726 C488.3186,514.7939 493.1848,514.7672 497.5537,521.2461 C509.8281,520.9973 513.8479,528.9794 508.4484,539.3604 C513.9847,547.8268 509.604,555.8591 499.5177,555.8794 C493.7974,564.5716 487.7496,563.5731 482.3661,555.5342 C478.6078,562.4531 472.0504,563.4561 467.5816,556.2794 C462.6715,561.8488 457.8529,561.5275 453.5272,555.5671 C449.0547,562.9886 443.008,563.4978 438.428,555.6735 C429.5763,550.8267 429.384,545.2452 437.0452,539.0267 C431.2958,533.0302 431.3522,526.9619 439.4353,523.0325" fill="#FEF3C7" style="stroke:#181818;stroke-width:0.5;"/><text fill="#000000" font-family="Monospace" font-size="14" lengthAdjust="spacing" textLength="46.0318" x="444.34" y="543.2039">bundle</text></g><!--entity tool_cat--><g class="entity" data-qualified-name="tool_cat" data-source-line="16" id="ent0011"><path d="M451.4582,1782.252 C455.3419,1772.142 462.2092,1772.5469 468.9721,1779.2533 C476.4559,1772.561 480.8146,1775.4205 484.4238,1783.3483 C493.0392,1786.5011 493.5273,1791.9933 488.2219,1798.6103 C494.1694,1804.7674 493.7912,1812.6645 484.3411,1815.2252 C482.0183,1825.0409 474.7367,1826.0402 467.3782,1820.9596 C459.5632,1827.0514 454.3119,1824.3264 451.9027,1815.3922 C441.1425,1814.1426 439.7303,1808.6966 444.3537,1799.9343 C438.644,1791.8636 440.1907,1783.5015 451.4582,1782.252" fill="#FEF3C7" style="stroke:#181818;stroke-width:0.5;"/><text fill="#000000" font-family="Monospace" font-size="14" lengthAdjust="spacing" textLength="19.6279" x="457.54" y="1803.2039">cat</text></g><!--entity tool_cmd_model--><g class="entity" data-qualified-name="tool_cmd_model" data-source-line="17" id="ent0012"><path d="M412.0462,773.9478 C416.0431,769.3448 419.269,770.0051 422.3352,774.9507 C425.2277,768.3427 429.4957,768.934 434.1102,773.0621 C437.5955,766.8587 442.2904,768.3537 445.5255,773.3178 C449.0915,767.4833 452.8947,766.9519 457.5929,772.0703 C461.3342,766.6672 464.6011,766.2455 468.378,772.036 C471.9198,767.8871 476.6337,767.8418 479.2752,773.0809 C483.0193,767.3654 488.3218,766.2333 492.0451,773.1019 C495.3459,768.2137 498.9783,768.3853 502.0186,773.3653 C505.6784,768.3639 511.0972,766.9544 514.489,773.6509 C517.5296,768.8226 523.0167,767.7507 526.1566,773.5418 C535.3814,777.4293 539.5271,782.7783 531.5374,791.7523 C536.6553,799.1847 534.3007,805.8721 524.785,806.6891 C521.71,812.5141 518.15,813.4567 513.6771,808.0746 C511.0367,813.1974 505.9811,814.3655 502.6063,808.838 C498.8685,814.0586 493.9357,815.1412 490.4665,808.5616 C487.8311,813.5727 483.5781,815.7109 479.3905,810.1948 C476.9649,815.086 472.2773,815.0602 469.0621,811.1182 C463.9553,817.499 460.1092,816.7351 456.2945,809.8725 C452.3653,814.3264 448.7352,814.0481 446.0827,808.561 C443.1384,814.1262 436.9995,814.343 433.4577,809.2701 C428.7619,814.6616 424.4273,813.3715 422.2846,806.8712 C419.4934,812.5561 415.075,811.5547 411.9136,807.2557 C403.0564,805.1428 399.5742,797.7576 406.9,790.7339 C400.2411,783.1249 402.9493,776.7265 412.0462,773.9478" fill="#FEF3C7" style="stroke:#181818;stroke-width:0.5;"/><text fill="#000000" font-family="Monospace" font-size="14" lengthAdjust="spacing" textLength="99.3296" x="417.69" y="795.2039">cmd+=(--model</text></g><!--entity tool_cp--><g class="entity" data-qualified-name="tool_cp" data-source-line="18" id="ent0013"><path d="M453.0522,858.1823 C456.4314,849.5828 463.3168,849.2431 468.7615,856.0803 C473.7442,849.5657 480.458,851.1822 482.7124,858.7778 C490.9203,862.6 491.5738,868.8074 484.4657,874.3536 C491.2078,880.59 491.6158,887.1307 482.4602,891.5085 C481.5566,900.0566 476.7332,903.2109 468.5471,900.5391 C458.395,906.012 453.5523,901.584 453.0654,891.1388 C443.2019,887.4844 443.6094,880.3154 450.4854,874.1228 C444.8939,868.1523 443.7532,861.7552 453.0522,858.1823" fill="#FEF3C7" style="stroke:#181818;stroke-width:0.5;"/><text fill="#000000" font-family="Monospace" font-size="14" lengthAdjust="spacing" textLength="15.3299" x="459.69" y="879.2039">cp</text></g><!--entity tool_find--><g class="entity" data-qualified-name="tool_find" data-source-line="19" id="ent0014"><path d="M449.1742,942.5613 C453.1404,933.2955 462.3996,931.6251 468.0151,940.8838 C475.1554,931.6261 482.9618,932.3226 487.8012,943.1504 C498.0944,944.479 498.797,950.8855 494.5961,958.592 C500.7752,966.6271 498.7272,973.8425 488.335,975.874 C487.1282,986.9132 477.8616,990.2273 469.5054,983.4153 C459.0141,990.6106 452.4273,986.9053 449.1164,975.5312 C440.6349,972.5998 440.0364,964.45 446.7938,959.3335 C438.6935,953.8248 440.4834,945.6869 449.1742,942.5613" fill="#FEF3C7" style="stroke:#181818;stroke-width:0.5;"/><text fill="#000000" font-family="Monospace" font-size="14" lengthAdjust="spacing" textLength="25.6899" x="454.51" y="963.2039">find</text></g><!--entity tool_flock--><g class="entity" data-qualified-name="tool_flock" data-source-line="20" id="ent0015"><path d="M445.8042,1025.9078 C448.7133,1020.4464 452.8943,1019.9222 456.3538,1025.3759 C458.6141,1020.0545 463.5902,1017.8076 467.9437,1023.0874 C472.3563,1018.7932 476.9265,1018.8364 479.5534,1025.0587 C483.7238,1019.4736 489.4187,1021.023 492.0202,1026.7827 C501.3086,1031.4607 501.6013,1036.6808 494.2298,1043.5538 C500.5988,1049.3988 497.9175,1056.4334 490.4971,1058.9311 C488.8975,1063.8815 484.9849,1066.1235 480.551,1062.0579 C477.2676,1068.918 472.5556,1069.5958 468.1145,1063.1391 C463.7748,1067.0985 460.1761,1067.6718 457.4961,1061.4142 C453.3296,1066.5005 449.6128,1066.0406 446.9024,1060.0247 C437.4451,1057.8525 435.0553,1050.017 440.5041,1042.4255 C433.761,1035.3761 437.1912,1028.0299 445.8042,1025.9078" fill="#FEF3C7" style="stroke:#181818;stroke-width:0.5;"/><text fill="#000000" font-family="Monospace" font-size="14" lengthAdjust="spacing" textLength="31.0939" x="451.81" y="1047.2039">flock</text></g><!--entity tool_git--><g class="entity" data-qualified-name="tool_git" data-source-line="21" id="ent0016"><path d="M453.5362,1109.873 C457.8191,1103.6623 462.0658,1101.4391 467.5225,1108.6498 C473.5098,1100.8233 479.5477,1103.8918 483.3429,1110.9757 C492.6057,1112.35 496.368,1117.7675 490.8994,1126.372 C497.9415,1134.4738 494.8548,1141.2605 484.6743,1142.8596 C484.3398,1153.5734 476.446,1156.0068 468.6238,1150.0834 C460.3035,1155.0381 453.5247,1153.7838 451.8517,1142.9997 C443.3002,1140.7616 440.3412,1133.941 446.2453,1126.7237 C440.8214,1117.6441 443.9103,1112.4409 453.5362,1109.873" fill="#FEF3C7" style="stroke:#181818;stroke-width:0.5;"/><text fill="#000000" font-family="Monospace" font-size="14" lengthAdjust="spacing" textLength="17.2759" x="458.72" y="1131.2039">git</text></g><!--entity tool_ln--><g class="entity" data-qualified-name="tool_ln" data-source-line="22" id="ent0017"><path d="M455.6632,1194.8183 C457.4769,1187.6382 463.1291,1186.3976 467.9955,1191.8346 C474.1842,1185.3069 478.9975,1187.0413 481.7582,1195.0746 C489.6289,1199.6062 488.888,1205.3229 482.3163,1210.3811 C489.24,1215.1308 488.949,1222.3434 481.6813,1226.5352 C480.9536,1236.7335 476.2713,1238.9662 467.5547,1233.9556 C461.7319,1237.8234 455.4139,1236.002 455.3298,1228.0302 C443.5552,1227.28 439.5957,1219.4309 447.1102,1209.9241 C443.2409,1201.7526 446.3508,1195.5263 455.6632,1194.8183" fill="#FEF3C7" style="stroke:#181818;stroke-width:0.5;"/><text fill="#000000" font-family="Monospace" font-size="14" lengthAdjust="spacing" textLength="12.2639" x="461.22" y="1215.2039">ln</text></g><!--entity tool_mkdir--><g class="entity" data-qualified-name="tool_mkdir" data-source-line="23" id="ent0018"><path d="M442.3813,1277.7953 C446.2059,1271.9592 451.5333,1271.9581 454.8587,1278.3065 C458.3858,1271.4431 463.9526,1271.7206 468.6847,1276.9261 C472.6226,1270.8931 476.8704,1271.4172 481.1656,1276.5259 C485.5127,1271.1838 490.7654,1270.7413 493.8707,1277.7984 C506.4744,1278.018 509.0108,1285.2073 504.6145,1295.6553 C509.2029,1304.4085 503.7085,1310.839 494.7993,1310.9043 C491.8607,1317.1677 487.9879,1319.4213 482.1434,1314.071 C479.2957,1320.7574 473.1046,1322.4015 467.7839,1317.0114 C462.3532,1321.5293 458.4674,1319.3775 456.395,1313.3757 C450.7131,1320.5977 444.3004,1318.6197 441.2483,1310.7384 C431.8984,1308.6754 427.5233,1304.1798 433.3815,1294.6708 C427.9252,1284.2365 432.1896,1279.8844 442.3813,1277.7953" fill="#FEF3C7" style="stroke:#181818;stroke-width:0.5;"/><text fill="#000000" font-family="Monospace" font-size="14" lengthAdjust="spacing" textLength="38.5699" x="448.07" y="1299.2039">mkdir</text></g><!--entity tool_null--><g class="entity" data-qualified-name="tool_null" data-source-line="24" id="ent0019"><path d="M448.6732,1361.9253 C453.6039,1352.419 463.0963,1351.6827 468.7771,1361.1296 C475.6645,1353.3283 481.4199,1353.3563 486.6374,1362.8536 C497.1929,1363.5033 499.4437,1370.0972 494.6275,1378.5645 C499.4053,1387.394 496.0024,1392.3586 486.9959,1394.6472 C481.7731,1404.7159 476.0118,1405.418 468.2939,1397.1988 C461.5776,1404.8888 453.195,1405.7105 448.9621,1394.6398 C439.9582,1393.3319 437.2361,1386.3738 443.479,1379.5323 C436.159,1372.3011 439.9246,1364.416 448.6732,1361.9253" fill="#FEF3C7" style="stroke:#181818;stroke-width:0.5;"/><text fill="#000000" font-family="Monospace" font-size="14" lengthAdjust="spacing" textLength="24.5279" x="455.09" y="1383.2039">null</text></g><!--entity tool_ruby_setup_ruby--><g class="entity" data-qualified-name="tool_ruby_setup_ruby" data-source-line="25" id="ent0020"><path d="M409.0001,439.185 C411.5614,433.1922 416.97,434.2941 419.8406,438.8677 C424.0431,432.6742 428.0658,432.7927 432.6577,438.4465 C434.7115,432.704 438.9732,431.2628 443.2055,436.3186 C447.2466,429.5046 452.4265,429.3522 456.7584,436.0264 C459.856,431.1234 465.1147,431.0877 467.8318,436.4375 C471.5772,430.0906 475.6549,429.8087 479.7536,436.1044 C484.1124,430.4924 489.8793,431.7779 492.372,438.0808 C495.7078,431.5663 500.2696,430.8927 504.8824,436.7941 C510.176,431.4334 514.1272,432.993 517.3605,439.0465 C519.8196,433.5247 524.6617,432.7597 527.9532,438.2455 C535.6023,440.7093 539.4614,448.0754 532.276,454.4875 C540.2227,461.2878 538.4517,468.3842 528.9828,471.8887 C526.0426,479.1313 521.2312,478.1007 516.6965,473.5497 C512.45,479.0187 508.6358,480.0444 504.2513,473.6951 C502.1141,480.3565 496.1996,481.3951 492.3205,475.3277 C489.9722,481.4059 484.707,481.7853 480.7957,476.9832 C478.4059,483.6183 474.2631,483.6499 469.4554,479.5335 C465.3036,484.9753 459.6943,484.5592 457.4384,477.6838 C453.4116,483.8725 447.1766,483.3487 444.4207,476.4224 C440.7147,482.2134 435.8232,481.9082 433.0865,475.5204 C428.5484,482.1254 422.9236,481.4927 420.1139,473.937 C414.8167,478.8575 409.9712,478.7871 407.4326,471.151 C399.4814,467.1237 398.5995,460.6433 406.5491,455.7064 C398.378,449.2566 400.6959,443.1907 409.0001,439.185" fill="#FEF3C7" style="stroke:#181818;stroke-width:0.5;"/><text fill="#000000" font-family="Monospace" font-size="14" lengthAdjust="spacing" textLength="107.0016" x="413.86" y="459.2039">ruby/setup-ruby</text></g><!--entity tool_run--><g class="entity" data-qualified-name="tool_run" data-source-line="26" id="ent0021"><path d="M449.0202,102.8706 C453.8918,93.7293 462.1948,92.1296 469.2551,100.3143 C475.1187,92.5504 483.4435,94.2883 486.8427,102.9525 C496.4323,103.6613 502.1216,108.4144 496.6344,118.5737 C501.8685,128.0202 498.3665,133.44 487.993,134.3228 C487.7546,147.0475 481.4231,152.0421 469.4297,145.8709 C458.523,150.9036 451.3606,149.4176 450.6602,135.6703 C440.9993,134.8356 437.2111,126.744 442.5639,118.7327 C437.5085,110.6057 439.9247,105.2377 449.0202,102.8706" fill="#FEF3C7" style="stroke:#181818;stroke-width:0.5;"/><text fill="#000000" font-family="Monospace" font-size="14" lengthAdjust="spacing" textLength="23.0859" x="455.81" y="123.2039">run</text></g><!--entity tool_sed--><g class="entity" data-qualified-name="tool_sed" data-source-line="27" id="ent0022"><path d="M448.9602,1446.8706 C453.8502,1437.7032 462.1793,1436.1018 469.2581,1444.3143 C475.1381,1436.5201 483.493,1438.2597 486.9087,1446.9525 C496.4983,1447.6613 502.1876,1452.4144 496.7004,1462.5737 C501.9345,1472.0202 498.4325,1477.44 488.059,1478.3228 C487.8007,1491.0783 481.4461,1496.0754 469.4327,1489.8709 C458.5048,1494.932 451.3218,1493.4522 450.6002,1479.6703 C440.9393,1478.8356 437.1511,1470.744 442.5039,1462.7327 C437.4485,1454.6057 439.8647,1449.2377 448.9602,1446.8706" fill="#FEF3C7" style="stroke:#181818;stroke-width:0.5;"/><text fill="#000000" font-family="Monospace" font-size="14" lengthAdjust="spacing" textLength="23.2119" x="455.75" y="1467.2039">sed</text></g><!--entity tool_sort--><g class="entity" data-qualified-name="tool_sort" data-source-line="28" id="ent0023"><path d="M449.3872,1529.616 C454.1501,1519.5488 460.8273,1520.8733 467.5371,1527.4991 C475.4091,1517.834 484.5598,1521.1962 489.236,1531.0515 C497.4656,1534.5952 498.5839,1540.3803 492.0293,1546.5828 C498.3394,1553.2765 497.1998,1560.0219 488.978,1564.1984 C486.6284,1576.3186 477.388,1578.1349 468.3696,1571.5431 C458.4003,1578.4794 449.9844,1573.5221 447.9783,1562.5007 C439.0834,1558.0942 439.5423,1550.0306 448.2688,1545.9331 C441.8931,1540.7172 441.5405,1533.857 449.3872,1529.616" fill="#FEF3C7" style="stroke:#181818;stroke-width:0.5;"/><text fill="#000000" font-family="Monospace" font-size="14" lengthAdjust="spacing" textLength="26.0119" x="454.35" y="1551.2039">sort</text></g><!--entity tool_summarize--><g class="entity" data-qualified-name="tool_summarize" data-source-line="29" id="ent0024"><path d="M424.8962,185.7082 C430.0905,178.088 435.3279,179.6617 439.7554,186.4963 C443.3719,179.3452 449.0794,179.5795 453.1602,186.0389 C457.9942,178.5754 462.7609,177.3054 468.9659,184.5673 C473.0267,177.1997 480.1265,177.4657 483.7506,185.0007 C488.3351,178.1413 495.2265,178.4184 498.4424,186.3593 C502.0789,180.5447 508.779,179.9823 511.9417,186.8631 C521.3094,186.9338 525.4194,194.7506 520.3293,202.5512 C526.2739,211.1643 522.6013,217.1668 513.0064,218.7589 C509.2244,226.6105 501.6345,226.5184 496.7162,220.0518 C493.4099,228.1689 488.1283,227.6599 482.8695,222.0165 C480.0774,229.3974 473.1939,228.8845 469.1346,223.3659 C464.3056,228.9427 459.3355,229.9218 454.9981,222.8179 C449.4402,228.4858 443.1188,227.7947 440.0219,220.0665 C435.832,227.7863 429.3419,227.8264 425.4676,219.7753 C414.9076,218.9199 412.9751,209.6176 418.4171,202.3045 C413.1033,195.1206 414.1692,186.6298 424.8962,185.7082" fill="#FEF3C7" style="stroke:#181818;stroke-width:0.5;"/><text fill="#000000" font-family="Monospace" font-size="14" lengthAdjust="spacing" textLength="73.2617" x="430.73" y="207.2039">summarize</text></g><!--entity tool_systemctl--><g class="entity" data-qualified-name="tool_systemctl" data-source-line="30" id="ent0025"><path d="M429.5243,1865.5034 C432.9648,1859.5846 439.4893,1858.9028 442.59,1865.8483 C446.3316,1859.1376 451.3685,1859.0609 455.9023,1865.0155 C459.9341,1858.7684 464.4724,1859.261 468.9176,1864.549 C472.4615,1858.5149 476.1275,1859.0977 480.0713,1864.1466 C485.0321,1857.4873 489.5037,1858.4481 493.3166,1865.2741 C496.904,1859.9137 503.1425,1859.006 506.1965,1865.8375 C514.8928,1868.5702 517.8891,1876.7776 511.4098,1883.8922 C516.7452,1889.6969 514.962,1896.4789 507.3804,1898.7899 C504.811,1907.3285 499.2783,1907.9996 492.971,1902.675 C490.3089,1908.2751 486.1698,1909.0227 481.5165,1905.0601 C478.6541,1911.6831 473.3362,1913.6756 468.3894,1907.1395 C462.948,1912.7097 458.5152,1911.3814 456.0195,1904.2669 C451.6227,1909.5605 445.9029,1909.9354 442.9861,1902.7244 C438.0675,1906.7936 433.648,1907.5231 431.0884,1900.25 C420.3243,1897.1317 420.1823,1891.2642 426.0576,1883.2282 C419.2774,1875.97 419.5647,1869.4875 429.5243,1865.5034" fill="#FEF3C7" style="stroke:#181818;stroke-width:0.5;"/><text fill="#000000" font-family="Monospace" font-size="14" lengthAdjust="spacing" textLength="61.9778" x="436.37" y="1887.2039">systemctl</text></g><!--entity tool_tachometer--><g class="entity" data-qualified-name="tool_tachometer" data-source-line="31" id="ent0026"><path d="M423.6972,269.6907 C426.4707,264.6174 431.026,264.9775 433.7574,269.7338 C437.8384,263.5092 443.1857,264.9347 446.6426,270.4206 C449.9605,264.9344 453.2163,264.5078 456.9578,270.0235 C459.8486,263.1195 464.4021,263.0811 469.1358,268.1488 C472.9508,262.9114 477.3424,265.0105 479.6233,269.7599 C482.7561,264.6305 486.7849,264.416 490.306,269.3474 C494.1474,263.506 499.0507,264.6284 502.1176,270.1523 C505.186,264.4488 509.8269,265.7477 512.8023,270.2497 C521.0308,274.061 521.7121,281.0747 514.5496,286.5371 C522.57,291.5006 522.051,297.1823 514.7184,302.3101 C511.5361,307.712 507.2487,308.4527 503.3212,303.0998 C500.6629,309.7654 495.6021,310.0238 491.088,305.0502 C487.1225,310.4338 483.8046,309.6977 480.0871,304.7852 C477.6791,310.4725 472.4153,310.6148 469.4116,305.3666 C466.0025,310.1032 460.905,310.5201 457.7893,305.0332 C453.7647,308.8121 449.0551,309.0921 446.9226,302.959 C443.923,309.9778 437.7863,309.2166 433.7472,304.0863 C430.2031,308.5639 424.577,308.1996 422.2247,302.7087 C413.4179,301.5597 410.4625,293.3143 415.3387,286.3911 C410.6221,276.9882 412.0416,270.8994 423.6972,269.6907" fill="#FEF3C7" style="stroke:#181818;stroke-width:0.5;"/><text fill="#000000" font-family="Monospace" font-size="14" lengthAdjust="spacing" textLength="76.4677" x="429.12" y="291.2039">tachometer</text></g><!--entity tool_tee--><g class="entity" data-qualified-name="tool_tee" data-source-line="32" id="ent0027"><path d="M451.2212,1613.3066 C455.5674,1605.6758 463.0357,1604.2128 468.4921,1612.0686 C475.9024,1603.9511 482.0135,1605.8989 486.3045,1615.2494 C495.6759,1616.5015 499.7359,1621.3941 494.901,1630.6012 C500.9918,1640.3279 495.3184,1646.752 485.4301,1647.5496 C482.5178,1657.5286 476.8245,1659.8961 468.4403,1653.0874 C460.1224,1660.2031 452.3046,1656.2997 450.3146,1646.3617 C442.502,1642.083 440.07,1637.4608 447.5787,1630.5339 C440.5108,1623.3159 441.3957,1616.9528 451.2212,1613.3066" fill="#FEF3C7" style="stroke:#181818;stroke-width:0.5;"/><text fill="#000000" font-family="Monospace" font-size="14" lengthAdjust="spacing" textLength="20.8459" x="456.93" y="1635.2039">tee</text></g><!--entity tool_tr--><g class="entity" data-qualified-name="tool_tr" data-source-line="33" id="ent0028"><path d="M456.3452,1697.8904 C459.3037,1690.4625 463.2867,1691.008 468.6754,1695.3431 C473.5912,1690.7989 477.2257,1690.6609 480.0138,1697.4683 C492.7524,1697.3262 495.8484,1703.0514 491.3815,1714.4361 C495.5217,1724.4955 491.3894,1731.07 480.2875,1730.7888 C481.5792,1739.6363 475.236,1743.2591 467.7819,1739.3885 C459.4156,1743.3637 455.9164,1740.0897 455.3185,1731.6131 C444.4188,1730.3807 442.9688,1724.8499 446.8198,1715.7265 C440.9855,1706.2069 446.1337,1698.8409 456.3452,1697.8904" fill="#FEF3C7" style="stroke:#181818;stroke-width:0.5;"/><text fill="#000000" font-family="Monospace" font-size="14" lengthAdjust="spacing" textLength="10.836" x="461.94" y="1719.2039">tr</text></g><g class="entity" data-qualified-name="toolingGraphSummary" data-source-line="62" id="ent0056"><path d="M67.94,46.0679 L67.94,91.4799 L275.4512,91.4799 L275.4512,56.0679 L265.4512,46.0679 L67.94,46.0679" fill="#FEFFDD" style="stroke:#181818;stroke-width:0.5;"/><path d="M265.4512,46.0679 L265.4512,56.0679 L275.4512,56.0679 L265.4512,46.0679" fill="#FEFFDD" style="stroke:#181818;stroke-width:1;"/><text fill="#000000" font-family="Monospace" font-size="13" lengthAdjust="spacing" textLength="186.5112" x="73.94" y="64.9649">Scanned&#160;5&#160;tooling&#160;entrypoints.</text><text fill="#000000" font-family="Monospace" font-size="13" lengthAdjust="spacing" textLength="179.2182" x="73.94" y="82.6709">Detected&#160;22&#160;third-party&#160;tools.</text></g><!--link source_github_workflows_ci_yml to tool_actions_checkout--><g class="link" data-entity-1="ent0002" data-entity-2="ent0008" data-link-type="dependency" data-source-line="34" id="lnk29"><path d="M171.31,424.3979 C171.31,400.1679 171.31,369.7779 171.31,369.7779 C171.31,369.7779 302.47,369.7779 390.07,369.7779" fill="none" id="source_github_workflows_ci_yml-to-tool_actions_checkout" style="stroke:#181818;stroke-width:1;"/><polygon fill="#181818" points="396.07,369.7779,387.07,365.7779,391.07,369.7779,387.07,373.7779,396.07,369.7779" style="stroke:#181818;stroke-width:1;"/></g><!--link source_github_workflows_ci_yml to tool_bundle--><g class="link" data-entity-1="ent0002" data-entity-2="ent0010" data-link-type="dependency" data-source-line="35" id="lnk30"><path d="M171.31,483.3079 C171.31,504.5979 171.31,529.5979 171.31,529.5979 C171.31,529.5979 342.86,529.5979 422.96,529.5979" fill="none" id="source_github_workflows_ci_yml-to-tool_bundle" style="stroke:#181818;stroke-width:1;"/><polygon fill="#181818" points="428.96,529.5979,419.96,525.5979,423.96,529.5979,419.96,533.5979,428.96,529.5979" style="stroke:#181818;stroke-width:1;"/></g><!--link source_github_workflows_ci_yml to tool_ruby_setup_ruby--><g class="link" data-entity-1="ent0002" data-entity-2="ent0020" data-link-type="dependency" data-source-line="36" id="lnk31"><path d="M263.22,453.7779 C306.98,453.7779 352.47,453.7779 392.79,453.7779" fill="none" id="source_github_workflows_ci_yml-to-tool_ruby_setup_ruby" style="stroke:#181818;stroke-width:1;"/><polygon fill="#181818" points="398.79,453.7779,389.79,449.7779,393.79,453.7779,389.79,457.7779,398.79,453.7779" style="stroke:#181818;stroke-width:1;"/></g><!--link source_site_scripts_run_tachometer_profile_sh to tool_run--><g class="link" data-entity-1="ent0003" data-entity-2="ent0021" data-link-type="dependency" data-source-line="37" id="lnk32"><path d="M310.44,131.9079 C359.8,131.9079 404.52,131.9079 434.46,131.9079" fill="none" id="source_site_scripts_run_tachometer_profile_sh-to-tool_run" style="stroke:#181818;stroke-width:1;"/><polygon fill="#181818" points="440.46,131.9079,431.46,127.9079,435.46,131.9079,431.46,135.9079,440.46,131.9079" style="stroke:#181818;stroke-width:1;"/></g><!--link source_site_scripts_run_tachometer_profile_sh to tool_summarize--><g class="link" data-entity-1="ent0003" data-entity-2="ent0024" data-link-type="dependency" data-source-line="38" id="lnk33"><path d="M310.44,181.0379 C347.8,181.0379 379.93,181.0379 409.25,181.0379" fill="none" id="source_site_scripts_run_tachometer_profile_sh-to-tool_summarize" style="stroke:#181818;stroke-width:1;"/><polygon fill="#181818" points="415.25,181.0379,406.25,177.0379,410.25,181.0379,406.25,185.0379,415.25,181.0379" style="stroke:#181818;stroke-width:1;"/></g><!--link source_site_scripts_run_tachometer_profile_sh to tool_tachometer--><g class="link" data-entity-1="ent0003" data-entity-2="ent0026" data-link-type="dependency" data-source-line="39" id="lnk34"><path d="M301.31,185.2279 C301.31,218.1079 301.31,266.7779 301.31,266.7779 C301.31,266.7779 359.37,266.7779 407.91,266.7779" fill="none" id="source_site_scripts_run_tachometer_profile_sh-to-tool_tachometer" style="stroke:#181818;stroke-width:1;"/><polygon fill="#181818" points="413.91,266.7779,404.91,262.7779,408.91,266.7779,404.91,270.7779,413.91,266.7779" style="stroke:#181818;stroke-width:1;"/></g><!--link source_scripts_install_weekly_blog_agentic_systemd_sh to tool_cat--><g class="link" data-entity-1="ent0004" data-entity-2="ent0011" data-link-type="dependency" data-source-line="40" id="lnk35"><path d="M336.82,1816.5079 C378.09,1816.5079 411.53,1816.5079 436.05,1816.5079" fill="none" id="source_scripts_install_weekly_blog_agentic_systemd_sh-to-tool_cat" style="stroke:#181818;stroke-width:1;"/><polygon fill="#181818" points="442.05,1816.5079,433.05,1812.5079,437.05,1816.5079,433.05,1820.5079,442.05,1816.5079" style="stroke:#181818;stroke-width:1;"/></g><!--link source_scripts_install_weekly_blog_agentic_systemd_sh to tool_systemctl--><g class="link" data-entity-1="ent0004" data-entity-2="ent0025" data-link-type="dependency" data-source-line="41" id="lnk36"><path d="M336.82,1863.0379 C367.77,1863.0379 391.7,1863.0379 415.07,1863.0379" fill="none" id="source_scripts_install_weekly_blog_agentic_systemd_sh-to-tool_systemctl" style="stroke:#181818;stroke-width:1;"/><polygon fill="#181818" points="421.07,1863.0379,412.07,1859.0379,416.07,1863.0379,412.07,1867.0379,421.07,1863.0379" style="stroke:#181818;stroke-width:1;"/></g><!--link source_scripts_run_tachometer_profile_sh to tool_run--><g class="link" data-entity-1="ent0005" data-entity-2="ent0021" data-link-type="dependency" data-source-line="42" id="lnk37"><path d="M293,237.9479 C310.82,237.9479 323.31,237.9479 323.31,237.9479 C323.31,237.9479 323.31,137.1079 323.31,137.1079 C323.31,137.1079 392.94,137.1079 434.6,137.1079" fill="none" id="source_scripts_run_tachometer_profile_sh-to-tool_run" style="stroke:#181818;stroke-width:1;"/><polygon fill="#181818" points="440.6,137.1079,431.6,133.1079,435.6,137.1079,431.6,141.1079,440.6,137.1079" style="stroke:#181818;stroke-width:1;"/></g><!--link source_scripts_run_tachometer_profile_sh to tool_summarize--><g class="link" data-entity-1="ent0005" data-entity-2="ent0024" data-link-type="dependency" data-source-line="43" id="lnk38"><path d="M293.22,249.5979 C374.75,249.5979 467.31,249.5979 467.31,249.5979 C467.31,249.5979 467.31,244.3779 467.31,232.8079" fill="none" id="source_scripts_run_tachometer_profile_sh-to-tool_summarize" style="stroke:#181818;stroke-width:1;"/><polygon fill="#181818" points="467.31,226.8079,463.31,235.8079,467.31,231.8079,471.31,235.8079,467.31,226.8079" style="stroke:#181818;stroke-width:1;"/></g><!--link source_scripts_run_tachometer_profile_sh to tool_tachometer--><g class="link" data-entity-1="ent0005" data-entity-2="ent0026" data-link-type="dependency" data-source-line="44" id="lnk39"><path d="M293.23,272.3079 C335.28,272.3079 374.26,272.3079 407.97,272.3079" fill="none" id="source_scripts_run_tachometer_profile_sh-to-tool_tachometer" style="stroke:#181818;stroke-width:1;"/><polygon fill="#181818" points="413.97,272.3079,404.97,268.3079,408.97,272.3079,404.97,276.3079,413.97,272.3079" style="stroke:#181818;stroke-width:1;"/></g><!--link source_scripts_weekly_blog_agentic_sh to tool_cd--><g class="link" data-entity-1="ent0006" data-entity-2="ent0007" data-link-type="dependency" data-source-line="45" id="lnk40"><path d="M268.31,1138.4179 C268.31,1025.0079 268.31,621.7779 268.31,621.7779 C268.31,621.7779 382.59,621.7779 436.15,621.7779" fill="none" id="source_scripts_weekly_blog_agentic_sh-to-tool_cd" style="stroke:#181818;stroke-width:1;"/><polygon fill="#181818" points="442.15,621.7779,433.15,617.7779,437.15,621.7779,433.15,625.7779,442.15,621.7779" style="stroke:#181818;stroke-width:1;"/></g><!--link source_scripts_weekly_blog_agentic_sh to tool_attempt--><g class="link" data-entity-1="ent0006" data-entity-2="ent0009" data-link-type="dependency" data-source-line="46" id="lnk41"><path d="M271.31,1138.5279 C271.31,1036.9679 271.31,705.7779 271.31,705.7779 C271.31,705.7779 362.23,705.7779 419.78,705.7779" fill="none" id="source_scripts_weekly_blog_agentic_sh-to-tool_attempt" style="stroke:#181818;stroke-width:1;"/><polygon fill="#181818" points="425.78,705.7779,416.78,701.7779,420.78,705.7779,416.78,709.7779,425.78,705.7779" style="stroke:#181818;stroke-width:1;"/></g><!--link source_scripts_weekly_blog_agentic_sh to tool_bundle--><g class="link" data-entity-1="ent0006" data-entity-2="ent0010" data-link-type="dependency" data-source-line="47" id="lnk42"><path d="M266.31,1138.6179 C266.31,1015.6779 266.31,545.9479 266.31,545.9479 C266.31,545.9479 364.74,545.9479 423.07,545.9479" fill="none" id="source_scripts_weekly_blog_agentic_sh-to-tool_bundle" style="stroke:#181818;stroke-width:1;"/><polygon fill="#181818" points="429.07,545.9479,420.07,541.9479,424.07,545.9479,420.07,549.9479,429.07,545.9479" style="stroke:#181818;stroke-width:1;"/></g><!--link source_scripts_weekly_blog_agentic_sh to tool_cat--><g class="link" data-entity-1="ent0006" data-entity-2="ent0011" data-link-type="dependency" data-source-line="48" id="lnk43"><path d="M88.31,1197.0479 C88.31,1320.4479 88.31,1791.9779 88.31,1791.9779 C88.31,1791.9779 351.54,1791.9779 436.19,1791.9779" fill="none" id="source_scripts_weekly_blog_agentic_sh-to-tool_cat" style="stroke:#181818;stroke-width:1;"/><polygon fill="#181818" points="442.19,1791.9779,433.19,1787.9779,437.19,1791.9779,433.19,1795.9779,442.19,1791.9779" style="stroke:#181818;stroke-width:1;"/></g><!--link source_scripts_weekly_blog_agentic_sh to tool_cmd_model--><g class="link" data-entity-1="ent0006" data-entity-2="ent0012" data-link-type="dependency" data-source-line="49" id="lnk44"><path d="M283.2,1142.5779 C346.14,1142.5779 412.31,1142.5779 412.31,1142.5779 C412.31,1142.5779 412.31,900.8879 412.31,820.5779" fill="none" id="source_scripts_weekly_blog_agentic_sh-to-tool_cmd_model" style="stroke:#181818;stroke-width:1;"/><polygon fill="#181818" points="412.31,814.5779,408.31,823.5779,412.31,819.5779,416.31,823.5779,412.31,814.5779" style="stroke:#181818;stroke-width:1;"/></g><!--link source_scripts_weekly_blog_agentic_sh to tool_cp--><g class="link" data-entity-1="ent0006" data-entity-2="ent0013" data-link-type="dependency" data-source-line="50" id="lnk45"><path d="M274.31,1138.2379 C274.31,1063.6879 274.31,873.7779 274.31,873.7779 C274.31,873.7779 387.32,873.7779 438.45,873.7779" fill="none" id="source_scripts_weekly_blog_agentic_sh-to-tool_cp" style="stroke:#181818;stroke-width:1;"/><polygon fill="#181818" points="444.45,873.7779,435.45,869.7779,439.45,873.7779,435.45,877.7779,444.45,873.7779" style="stroke:#181818;stroke-width:1;"/></g><!--link source_scripts_weekly_blog_agentic_sh to tool_find--><g class="link" data-entity-1="ent0006" data-entity-2="ent0014" data-link-type="dependency" data-source-line="51" id="lnk46"><path d="M277.31,1138.5779 C277.31,1080.8679 277.31,957.7779 277.31,957.7779 C277.31,957.7779 380.45,957.7779 433.32,957.7779" fill="none" id="source_scripts_weekly_blog_agentic_sh-to-tool_find" style="stroke:#181818;stroke-width:1;"/><polygon fill="#181818" points="439.32,957.7779,430.32,953.7779,434.32,957.7779,430.32,961.7779,439.32,957.7779" style="stroke:#181818;stroke-width:1;"/></g><!--link source_scripts_weekly_blog_agentic_sh to tool_flock--><g class="link" data-entity-1="ent0006" data-entity-2="ent0015" data-link-type="dependency" data-source-line="52" id="lnk47"><path d="M280.31,1138.2279 C280.31,1100.9879 280.31,1041.7779 280.31,1041.7779 C280.31,1041.7779 377.35,1041.7779 430.47,1041.7779" fill="none" id="source_scripts_weekly_blog_agentic_sh-to-tool_flock" style="stroke:#181818;stroke-width:1;"/><polygon fill="#181818" points="436.47,1041.7779,427.47,1037.7779,431.47,1041.7779,427.47,1045.7779,436.47,1041.7779" style="stroke:#181818;stroke-width:1;"/></g><!--link source_scripts_weekly_blog_agentic_sh to tool_git--><g class="link" data-entity-1="ent0006" data-entity-2="ent0016" data-link-type="dependency" data-source-line="53" id="lnk48"><path d="M283.47,1146.4379 C342.02,1146.4379 402.59,1146.4379 437.35,1146.4379" fill="none" id="source_scripts_weekly_blog_agentic_sh-to-tool_git" style="stroke:#181818;stroke-width:1;"/><polygon fill="#181818" points="443.35,1146.4379,434.35,1142.4379,438.35,1146.4379,434.35,1150.4379,443.35,1146.4379" style="stroke:#181818;stroke-width:1;"/></g><!--link source_scripts_weekly_blog_agentic_sh to tool_ln--><g class="link" data-entity-1="ent0006" data-entity-2="ent0017" data-link-type="dependency" data-source-line="54" id="lnk49"><path d="M283.47,1191.0379 C343.49,1191.0379 405.94,1191.0379 439.91,1191.0379" fill="none" id="source_scripts_weekly_blog_agentic_sh-to-tool_ln" style="stroke:#181818;stroke-width:1;"/><polygon fill="#181818" points="445.91,1191.0379,436.91,1187.0379,440.91,1191.0379,436.91,1195.0379,445.91,1191.0379" style="stroke:#181818;stroke-width:1;"/></g><!--link source_scripts_weekly_blog_agentic_sh to tool_mkdir--><g class="link" data-entity-1="ent0006" data-entity-2="ent0018" data-link-type="dependency" data-source-line="55" id="lnk50"><path d="M255.31,1197.3179 C255.31,1234.5579 255.31,1293.7779 255.31,1293.7779 C255.31,1293.7779 366.73,1293.7779 426.82,1293.7779" fill="none" id="source_scripts_weekly_blog_agentic_sh-to-tool_mkdir" style="stroke:#181818;stroke-width:1;"/><polygon fill="#181818" points="432.82,1293.7779,423.82,1289.7779,427.82,1293.7779,423.82,1297.7779,432.82,1293.7779" style="stroke:#181818;stroke-width:1;"/></g><!--link source_scripts_weekly_blog_agentic_sh to tool_null--><g class="link" data-entity-1="ent0006" data-entity-2="ent0019" data-link-type="dependency" data-source-line="56" id="lnk51"><path d="M227.31,1196.9779 C227.31,1254.6779 227.31,1377.7779 227.31,1377.7779 C227.31,1377.7779 370.77,1377.7779 433.82,1377.7779" fill="none" id="source_scripts_weekly_blog_agentic_sh-to-tool_null" style="stroke:#181818;stroke-width:1;"/><polygon fill="#181818" points="439.82,1377.7779,430.82,1373.7779,434.82,1377.7779,430.82,1381.7779,439.82,1377.7779" style="stroke:#181818;stroke-width:1;"/></g><!--link source_scripts_weekly_blog_agentic_sh to tool_sed--><g class="link" data-entity-1="ent0006" data-entity-2="ent0022" data-link-type="dependency" data-source-line="57" id="lnk52"><path d="M199.31,1197.3079 C199.31,1271.8679 199.31,1461.7779 199.31,1461.7779 C199.31,1461.7779 366.88,1461.7779 434.68,1461.7779" fill="none" id="source_scripts_weekly_blog_agentic_sh-to-tool_sed" style="stroke:#181818;stroke-width:1;"/><polygon fill="#181818" points="440.68,1461.7779,431.68,1457.7779,435.68,1461.7779,431.68,1465.7779,440.68,1461.7779" style="stroke:#181818;stroke-width:1;"/></g><!--link source_scripts_weekly_blog_agentic_sh to tool_sort--><g class="link" data-entity-1="ent0006" data-entity-2="ent0023" data-link-type="dependency" data-source-line="58" id="lnk53"><path d="M171.31,1197.1179 C171.31,1285.9379 171.31,1545.7779 171.31,1545.7779 C171.31,1545.7779 358.87,1545.7779 432.97,1545.7779" fill="none" id="source_scripts_weekly_blog_agentic_sh-to-tool_sort" style="stroke:#181818;stroke-width:1;"/><polygon fill="#181818" points="438.97,1545.7779,429.97,1541.7779,433.97,1545.7779,429.97,1549.7779,438.97,1545.7779" style="stroke:#181818;stroke-width:1;"/></g><!--link source_scripts_weekly_blog_agentic_sh to tool_tee--><g class="link" data-entity-1="ent0006" data-entity-2="ent0027" data-link-type="dependency" data-source-line="59" id="lnk54"><path d="M144.31,1197.0279 C144.31,1298.5779 144.31,1629.7779 144.31,1629.7779 C144.31,1629.7779 358.81,1629.7779 435.47,1629.7779" fill="none" id="source_scripts_weekly_blog_agentic_sh-to-tool_tee" style="stroke:#181818;stroke-width:1;"/><polygon fill="#181818" points="441.47,1629.7779,432.47,1625.7779,436.47,1629.7779,432.47,1633.7779,441.47,1629.7779" style="stroke:#181818;stroke-width:1;"/></g><!--link source_scripts_weekly_blog_agentic_sh to tool_tr--><g class="link" data-entity-1="ent0006" data-entity-2="ent0028" data-link-type="dependency" data-source-line="60" id="lnk55"><path d="M116.31,1197.1279 C116.31,1310.5379 116.31,1713.7779 116.31,1713.7779 C116.31,1713.7779 364.88,1713.7779 440.45,1713.7779" fill="none" id="source_scripts_weekly_blog_agentic_sh-to-tool_tr" style="stroke:#181818;stroke-width:1;"/><polygon fill="#181818" points="446.45,1713.7779,437.45,1709.7779,441.45,1713.7779,437.45,1717.7779,446.45,1713.7779" style="stroke:#181818;stroke-width:1;"/></g><?plantuml-src hLR1Rjim3BtxAuJsKc18igNOTjekMpFii5swum11aHLRi2mQ4et0-_fHJc9hTjf6wMwctdiaJKcaKADHJ0eFjbeM6ijskzJ0VW4ORGlstQ8gd40DrcT6xP0XCAUB4bckdP81o7obRIESg9alHGxx8Dm9urM4v6edMeCRiFXJr8hz00k-4JBcIAWRiChY8tQKL70lR65Y2YMbi6iK0uSbP0E5tHoJN-t1LJi3Ux-IUjdLvhUzf-18H9LJyc3y3HEUUMYTLFmWueE8Iyr9n6uVtcxMcuSu0FSQrSfBfnlqAzTQZaAMK9Dlnni7EstKqfVFnmi--D47F--3-_9S-5DWRJqAO_XUgSfqV6kWuAAWecd9VUTHrNcVnVgvB8u9NE3hXMokBSDhAd0cspxWkmyNH3pxgsCuQQ3DsSsTp7jnSCDbpcut3vlxBnzFiEZFFPsmKiaAMXovHuIVa9aIgQXDB3WiJ7dRrkP6ZRI3FML94NaYOuRN-PjFTuj53Rao4PEsjL-QyPk8r4pHdRPHLO8rOnYGLKG9vfH3Dsvaa375ZHrXOwTeNL7R6GczEUNOraG_6wmfmxNRRkKLjiqYV8xaOF4Uw3_dEXjpPzbv5HM8Z1bENIiYa3LZj7KjdFuJRVsmDEFsDrHYzBF3qfGxNhAHFAxDs2gAJyOCZxsCwXTwwcBn-VmbkLXuk0KNqoUxcQNruCYDlLOwxDsr3aOukwvt3vweFRpMnN2wielR-DaYlgP-_wDqJyo0iLHvgkBOnLDb_vxdYzCJoO66ZfyiR58LOIuaQyAWI1NHzK-L69kgw0TCgYYCd5GDJOja2SsFL0qrysI9oooWEZLyUjn_Sw8f7_khsMMFKbXBe-xz2MNamdKDQ8j-cNqzlSZMQuQbTlc27lBO7HveoqpH8o9u_mi0?></g></svg>
