<?plantuml 1.2026.2?><svg xmlns="http://www.w3.org/2000/svg" xmlns:xlink="http://www.w3.org/1999/xlink" contentStyleType="text/css" data-diagram-type="DESCRIPTION" height="277px" preserveAspectRatio="none" style="width:419px;height:277px;background:#FFFFFF;" version="1.1" viewBox="0 0 419 277" width="419px" zoomAndPan="magnify"><title>casonk.github.io Tooling Integrations</title><defs/><g><g class="title" data-source-line="1"><text fill="#000000" font-family="Monospace" font-size="14" font-weight="bold" lengthAdjust="spacing" textLength="261.5436" x="72.1298" y="24.9659">casonk.github.io&#160;Tooling&#160;Integrations</text></g><!--entity source_github_workflows_ci_yml--><g class="entity" data-qualified-name="source_github_workflows_ci_yml" data-source-line="7" id="ent0002"><rect fill="#E0F2FE" height="58.1358" rx="2.5" ry="2.5" style="stroke:#181818;stroke-width:0.5;" width="182.6234" x="15.33" y="126.7079"/><text fill="#000000" font-family="Monospace" font-size="14" lengthAdjust="spacing" textLength="162.6234" x="25.33" y="151.6739">.github/workflows/ci.yml</text><text fill="#000000" font-family="Monospace" font-size="14" lengthAdjust="spacing" textLength="105.3356" x="25.33" y="170.7418">3&#160;detected&#160;tools</text></g><!--entity tool_actions_checkout--><g class="entity" data-qualified-name="tool_actions_checkout" data-source-line="8" id="ent0003"><path d="M276.7121,55.6036 C280.5639,49.4446 285.3065,49.5851 289.036,55.7262 C292.3417,48.9632 297.3434,50.2122 301.382,54.9387 C306.0023,47.7913 310.2629,47.9161 314.9039,54.919 C319.1787,48.6356 323.0113,49.6236 327.1073,55.1045 C330.4388,50.4186 335.6524,50.5722 338.4326,55.7382 C341.1308,50.0805 347.3973,49.5886 350.9745,54.7161 C355.0541,48.6788 360.3519,48.7384 364.725,54.3702 C369.8996,48.9347 374.6612,49.4348 377.5116,56.7085 C380.4826,50.5845 385.9629,50.6686 389.0015,56.6443 C392.9703,50.8108 397.3544,51.5678 401.3644,56.5974 C411.0457,59.007 412.3559,65.1667 407.3582,72.955 C412.8031,81.4122 411.338,86.5155 401.3947,89.3885 C399.1471,95.0599 393.7873,95.5312 390.6114,90.3073 C387.0244,96.8175 380.8623,97.4068 376.2711,91.4636 C373.5376,97.3661 369.5671,98.9815 364.3371,94.2708 C361.0562,100.7747 356.5601,100.5988 352.4801,95.0573 C349.9517,102.4965 343.4343,102.9634 339.426,96.4411 C334.5227,102.8389 329.0636,100.7632 326.5765,94.0695 C322.6406,100.8475 316.7189,100.6921 313.1481,93.7131 C308.6134,99.2315 303.9251,97.7529 301.2515,91.7855 C297.3743,96.903 292.0153,96.5251 289.4714,90.3898 C285.0105,95.8529 278.7886,96.5887 275.5271,89.0986 C268.4291,85.0471 267.0277,77.0642 275.6087,73.0927 C267.3664,67.0645 268.3135,60.5819 276.7121,55.6036" fill="#FEF3C7" style="stroke:#181818;stroke-width:0.5;"/><text fill="#000000" font-family="Monospace" font-size="14" lengthAdjust="spacing" textLength="111.9156" x="282.28" y="77.2039">actions/checkout</text></g><!--entity tool_bundle--><g class="entity" data-qualified-name="tool_bundle" data-source-line="9" id="ent0004"><path d="M310.3253,141.0325 C314.7644,134.0366 319.2089,133.1438 324.4523,140.2254 C327.6879,131.3324 335.1796,131.8538 340.4187,138.1143 C345.7647,130.9097 351.5456,132.4871 355.3305,139.726 C359.2086,132.7939 364.0748,132.7672 368.4437,139.2461 C380.7181,138.9973 384.7379,146.9794 379.3384,157.3604 C384.8747,165.8268 380.494,173.8591 370.4077,173.8794 C364.6874,182.5716 358.6396,181.5731 353.2561,173.5342 C349.4978,180.4531 342.9404,181.4561 338.4716,174.2794 C333.5615,179.8488 328.7429,179.5275 324.4172,173.5671 C319.9447,180.9886 313.898,181.4978 309.318,173.6735 C300.4663,168.8267 300.274,163.2452 307.9352,157.0267 C302.1858,151.0302 302.2422,144.9619 310.3253,141.0325" fill="#FEF3C7" style="stroke:#181818;stroke-width:0.5;"/><text fill="#000000" font-family="Monospace" font-size="14" lengthAdjust="spacing" textLength="46.0318" x="315.23" y="161.2039">bundle</text></g><!--entity tool_ruby_setup_ruby--><g class="entity" data-qualified-name="tool_ruby_setup_ruby" data-source-line="10" id="ent0005"><path d="M279.8801,225.185 C282.4414,219.1922 287.85,220.2941 290.7206,224.8677 C294.9231,218.6742 298.9458,218.7927 303.5377,224.4465 C305.5915,218.704 309.8532,217.2628 314.0855,222.3186 C318.1266,215.5046 323.3065,215.3522 327.6384,222.0264 C330.736,217.1234 335.9947,217.0877 338.7118,222.4375 C342.4572,216.0906 346.5349,215.8087 350.6336,222.1044 C354.9924,216.4924 360.7593,217.7779 363.252,224.0808 C366.5878,217.5663 371.1496,216.8927 375.7624,222.7941 C381.056,217.4334 385.0072,218.993 388.2405,225.0465 C390.6996,219.5247 395.5417,218.7597 398.8332,224.2455 C406.4823,226.7093 410.3414,234.0754 403.156,240.4875 C411.1027,247.2878 409.3317,254.3842 399.8628,257.8887 C396.9226,265.1313 392.1112,264.1007 387.5765,259.5497 C383.33,265.0187 379.5158,266.0444 375.1313,259.6951 C372.9941,266.3565 367.0796,267.3951 363.2005,261.3277 C360.8522,267.4059 355.587,267.7853 351.6757,262.9832 C349.2859,269.6183 345.1431,269.6499 340.3354,265.5335 C336.1836,270.9753 330.5743,270.5592 328.3184,263.6838 C324.2916,269.8725 318.0566,269.3487 315.3007,262.4224 C311.5947,268.2134 306.7032,267.9082 303.9665,261.5204 C299.4284,268.1254 293.8036,267.4927 290.9939,259.937 C285.6967,264.8575 280.8512,264.7871 278.3126,257.151 C270.3614,253.1237 269.4795,246.6433 277.4291,241.7064 C269.258,235.2566 271.5759,229.1907 279.8801,225.185" fill="#FEF3C7" style="stroke:#181818;stroke-width:0.5;"/><text fill="#000000" font-family="Monospace" font-size="14" lengthAdjust="spacing" textLength="107.0016" x="284.74" y="245.2039">ruby/setup-ruby</text></g><g class="entity" data-qualified-name="toolingGraphSummary" data-source-line="15" id="ent0009"><path d="M6,46.0679 L6,91.4799 L207.2842,91.4799 L207.2842,56.0679 L197.2842,46.0679 L6,46.0679" fill="#FEFFDD" style="stroke:#181818;stroke-width:0.5;"/><path d="M197.2842,46.0679 L197.2842,56.0679 L207.2842,56.0679 L197.2842,46.0679" fill="#FEFFDD" style="stroke:#181818;stroke-width:1;"/><text fill="#000000" font-family="Monospace" font-size="13" lengthAdjust="spacing" textLength="180.2842" x="12" y="64.9649">Scanned&#160;1&#160;tooling&#160;entrypoint.</text><text fill="#000000" font-family="Monospace" font-size="13" lengthAdjust="spacing" textLength="171.7822" x="12" y="82.6709">Detected&#160;3&#160;third-party&#160;tools.</text></g><!--link source_github_workflows_ci_yml to tool_actions_checkout--><g class="link" data-entity-1="ent0002" data-entity-2="ent0003" data-link-type="dependency" data-source-line="11" id="lnk6"><path d="M198.42,143.5079 C244.31,143.5079 290.2,143.5079 290.2,143.5079 C290.2,143.5079 290.2,123.2079 290.2,102.4579" fill="none" id="source_github_workflows_ci_yml-to-tool_actions_checkout" style="stroke:#181818;stroke-width:1;"/><polygon fill="#181818" points="290.2,96.4579,286.2,105.4579,290.2,101.4579,294.2,105.4579,290.2,96.4579" style="stroke:#181818;stroke-width:1;"/></g><!--link source_github_workflows_ci_yml to tool_bundle--><g class="link" data-entity-1="ent0002" data-entity-2="ent0004" data-link-type="dependency" data-source-line="12" id="lnk7"><path d="M198.18,155.7779 C233.58,155.7779 266.15,155.7779 293.84,155.7779" fill="none" id="source_github_workflows_ci_yml-to-tool_bundle" style="stroke:#181818;stroke-width:1;"/><polygon fill="#181818" points="299.84,155.7779,290.84,151.7779,294.84,155.7779,290.84,159.7779,299.84,155.7779" style="stroke:#181818;stroke-width:1;"/></g><!--link source_github_workflows_ci_yml to tool_ruby_setup_ruby--><g class="link" data-entity-1="ent0002" data-entity-2="ent0005" data-link-type="dependency" data-source-line="13" id="lnk8"><path d="M198.25,168.0379 C239.97,168.0379 280.2,168.0379 280.2,168.0379 C280.2,168.0379 280.2,188.3379 280.2,209.0879" fill="none" id="source_github_workflows_ci_yml-to-tool_ruby_setup_ruby" style="stroke:#181818;stroke-width:1;"/><polygon fill="#181818" points="280.2,215.0879,284.2,206.0879,280.2,210.0879,276.2,206.0879,280.2,215.0879" style="stroke:#181818;stroke-width:1;"/></g><?plantuml-src ZL8zRuCm4Dtv5QTaXhJDqArB6weExPAEbP1Z3h0mTyW-A-BVrq18egXIiztfVVYTdiM8HT3ACxLPRQG9XymmV3DRGpLya63jb1WcdrYi18J1cReHA8r3FGA9RmtrogaEVADAFex2IbcFLqY9bGfMSYRvKXt29nFxNkbhZkQkPqAIlGmnr6YlgBRNb1WAPUWHs4d3oPa2grFupP5TMra--eqssT3P7zh6noKIiOpXsVeLA0-UWzDOpABYB2gqAQ88rhk7_2dV9TfoA66bfaEZPOEwvI2JnMXMd91YGM2Tx_Bjw_EYF0GgBLxuytxBSk4mR3nAwDDnlD37hPY0QJph_ecVfYz_nxjREEUyctwJCo4MN8w8t-7TgRxPXwvJRaZsMX75CXuN56BbRkZPa6J9szBL5gGnhanZyJBCpMK9KWcZzoy0?></g></svg>
