<?plantuml 1.2026.2?><svg xmlns="http://www.w3.org/2000/svg" xmlns:xlink="http://www.w3.org/1999/xlink" contentStyleType="text/css" data-diagram-type="DESCRIPTION" height="575px" preserveAspectRatio="none" style="width:496px;height:575px;background:#FFFFFF;" version="1.1" viewBox="0 0 496 575" width="496px" zoomAndPan="magnify"><title>casonk.github.io Tooling Integrations</title><defs/><g><g class="title" data-source-line="1"><text fill="#000000" font-family="Monospace" font-size="14" font-weight="bold" lengthAdjust="spacing" textLength="261.5436" x="110.4798" y="24.9659">casonk.github.io&#160;Tooling&#160;Integrations</text></g><!--entity source_github_workflows_ci_yml--><g class="entity" data-qualified-name="source_github_workflows_ci_yml" data-source-line="7" id="ent0002"><rect fill="#E0F2FE" height="58.1358" rx="2.5" ry="2.5" style="stroke:#181818;stroke-width:0.5;" width="182.6234" x="54.18" y="424.7079"/><text fill="#000000" font-family="Monospace" font-size="14" lengthAdjust="spacing" textLength="162.6234" x="64.18" y="449.6739">.github/workflows/ci.yml</text><text fill="#000000" font-family="Monospace" font-size="14" lengthAdjust="spacing" textLength="105.3356" x="64.18" y="468.7418">3&#160;detected&#160;tools</text></g><!--entity source_site_scripts_run_tachometer_profile_sh--><g class="entity" data-qualified-name="source_site_scripts_run_tachometer_profile_sh" data-source-line="8" id="ent0003"><rect fill="#E0F2FE" height="58.1358" rx="2.5" ry="2.5" style="stroke:#181818;stroke-width:0.5;" width="276.983" x="7" y="126.7079"/><text fill="#000000" font-family="Monospace" font-size="14" lengthAdjust="spacing" textLength="256.983" x="17" y="151.6739">_site/scripts/run_tachometer_profile.sh</text><text fill="#000000" font-family="Monospace" font-size="14" lengthAdjust="spacing" textLength="105.3356" x="17" y="170.7418">3&#160;detected&#160;tools</text></g><!--entity source_scripts_run_tachometer_profile_sh--><g class="entity" data-qualified-name="source_scripts_run_tachometer_profile_sh" data-source-line="9" id="ent0004"><rect fill="#E0F2FE" height="58.1358" rx="2.5" ry="2.5" style="stroke:#181818;stroke-width:0.5;" width="242.2912" x="24.35" y="219.7079"/><text fill="#000000" font-family="Monospace" font-size="14" lengthAdjust="spacing" textLength="222.2912" x="34.35" y="244.6739">scripts/run_tachometer_profile.sh</text><text fill="#000000" font-family="Monospace" font-size="14" lengthAdjust="spacing" textLength="105.3356" x="34.35" y="263.7418">3&#160;detected&#160;tools</text></g><!--entity tool_actions_checkout--><g class="entity" data-qualified-name="tool_actions_checkout" data-source-line="10" id="ent0005"><path d="M353.4121,353.6036 C357.2639,347.4446 362.0065,347.5851 365.736,353.7262 C369.0417,346.9632 374.0434,348.2122 378.082,352.9387 C382.7023,345.7913 386.9629,345.9161 391.6039,352.919 C395.8787,346.6356 399.7113,347.6236 403.8073,353.1045 C407.1388,348.4186 412.3524,348.5722 415.1326,353.7382 C417.8308,348.0805 424.0973,347.5886 427.6745,352.7161 C431.7541,346.6788 437.0519,346.7384 441.425,352.3702 C446.5996,346.9347 451.3612,347.4348 454.2116,354.7085 C457.1826,348.5845 462.6629,348.6686 465.7015,354.6443 C469.6703,348.8108 474.0544,349.5678 478.0644,354.5974 C487.7457,357.007 489.0559,363.1667 484.0582,370.955 C489.5031,379.4122 488.038,384.5155 478.0947,387.3885 C475.8471,393.0599 470.4873,393.5312 467.3114,388.3073 C463.7244,394.8175 457.5623,395.4068 452.9711,389.4636 C450.2376,395.3661 446.2671,396.9815 441.0371,392.2708 C437.7562,398.7747 433.2601,398.5988 429.1801,393.0573 C426.6517,400.4965 420.1343,400.9634 416.126,394.4411 C411.2227,400.8389 405.7636,398.7632 403.2765,392.0695 C399.3406,398.8475 393.4189,398.6921 389.8481,391.7131 C385.3134,397.2315 380.6251,395.7529 377.9515,389.7855 C374.0743,394.903 368.7153,394.5251 366.1714,388.3898 C361.7105,393.8529 355.4886,394.5887 352.2271,387.0986 C345.1291,383.0471 343.7277,375.0642 352.3087,371.0927 C344.0664,365.0645 345.0135,358.5819 353.4121,353.6036" fill="#FEF3C7" style="stroke:#181818;stroke-width:0.5;"/><text fill="#000000" font-family="Monospace" font-size="14" lengthAdjust="spacing" textLength="111.9156" x="358.98" y="375.2039">actions/checkout</text></g><!--entity tool_bundle--><g class="entity" data-qualified-name="tool_bundle" data-source-line="11" id="ent0006"><path d="M387.0153,439.0325 C391.4544,432.0366 395.8989,431.1438 401.1423,438.2254 C404.3779,429.3324 411.8696,429.8538 417.1087,436.1143 C422.4547,428.9097 428.2356,430.4871 432.0205,437.726 C435.8986,430.7939 440.7648,430.7672 445.1337,437.2461 C457.4081,436.9973 461.4279,444.9794 456.0284,455.3604 C461.5647,463.8268 457.184,471.8591 447.0977,471.8794 C441.3774,480.5716 435.3296,479.5731 429.9461,471.5342 C426.1878,478.4531 419.6304,479.4561 415.1616,472.2794 C410.2515,477.8488 405.4329,477.5275 401.1072,471.5671 C396.6347,478.9886 390.588,479.4978 386.008,471.6735 C377.1563,466.8267 376.964,461.2452 384.6252,455.0267 C378.8758,449.0302 378.9322,442.9619 387.0153,439.0325" fill="#FEF3C7" style="stroke:#181818;stroke-width:0.5;"/><text fill="#000000" font-family="Monospace" font-size="14" lengthAdjust="spacing" textLength="46.0318" x="391.92" y="459.2039">bundle</text></g><!--entity tool_ruby_setup_ruby--><g class="entity" data-qualified-name="tool_ruby_setup_ruby" data-source-line="12" id="ent0007"><path d="M356.5801,523.185 C359.1414,517.1922 364.55,518.2941 367.4206,522.8677 C371.6231,516.6742 375.6458,516.7927 380.2377,522.4465 C382.2915,516.704 386.5532,515.2628 390.7855,520.3186 C394.8266,513.5046 400.0065,513.3522 404.3384,520.0264 C407.436,515.1234 412.6947,515.0877 415.4118,520.4375 C419.1572,514.0906 423.2349,513.8087 427.3336,520.1044 C431.6924,514.4924 437.4593,515.7779 439.952,522.0808 C443.2878,515.5663 447.8496,514.8927 452.4624,520.7941 C457.756,515.4334 461.7072,516.993 464.9405,523.0465 C467.3996,517.5247 472.2417,516.7597 475.5332,522.2455 C483.1823,524.7093 487.0414,532.0754 479.856,538.4875 C487.8027,545.2878 486.0317,552.3842 476.5628,555.8887 C473.6226,563.1313 468.8112,562.1007 464.2765,557.5497 C460.03,563.0187 456.2158,564.0444 451.8313,557.6951 C449.6941,564.3565 443.7796,565.3951 439.9005,559.3277 C437.5522,565.4059 432.287,565.7853 428.3757,560.9832 C425.9859,567.6183 421.8431,567.6499 417.0354,563.5335 C412.8836,568.9753 407.2743,568.5592 405.0184,561.6838 C400.9916,567.8725 394.7566,567.3487 392.0007,560.4224 C388.2947,566.2134 383.4032,565.9082 380.6665,559.5204 C376.1284,566.1254 370.5036,565.4927 367.6939,557.937 C362.3967,562.8575 357.5512,562.7871 355.0126,555.151 C347.0614,551.1237 346.1795,544.6433 354.1291,539.7064 C345.958,533.2566 348.2759,527.1907 356.5801,523.185" fill="#FEF3C7" style="stroke:#181818;stroke-width:0.5;"/><text fill="#000000" font-family="Monospace" font-size="14" lengthAdjust="spacing" textLength="107.0016" x="361.44" y="543.2039">ruby/setup-ruby</text></g><!--entity tool_run--><g class="entity" data-qualified-name="tool_run" data-source-line="13" id="ent0008"><path d="M396.6102,102.8706 C401.4818,93.7293 409.7848,92.1296 416.8451,100.3143 C422.7087,92.5504 431.0335,94.2883 434.4327,102.9525 C444.0223,103.6613 449.7116,108.4144 444.2244,118.5737 C449.4585,128.0202 445.9565,133.44 435.583,134.3228 C435.3446,147.0475 429.0131,152.0421 417.0197,145.8709 C406.113,150.9036 398.9506,149.4176 398.2502,135.6703 C388.5893,134.8356 384.8011,126.744 390.1539,118.7327 C385.0985,110.6057 387.5147,105.2377 396.6102,102.8706" fill="#FEF3C7" style="stroke:#181818;stroke-width:0.5;"/><text fill="#000000" font-family="Monospace" font-size="14" lengthAdjust="spacing" textLength="23.0859" x="403.4" y="123.2039">run</text></g><!--entity tool_summarize--><g class="entity" data-qualified-name="tool_summarize" data-source-line="14" id="ent0009"><path d="M372.4762,185.7082 C377.6705,178.088 382.9079,179.6617 387.3354,186.4963 C390.9519,179.3452 396.6594,179.5795 400.7402,186.0389 C405.5742,178.5754 410.3409,177.3054 416.5459,184.5673 C420.6067,177.1997 427.7065,177.4657 431.3306,185.0007 C435.9151,178.1413 442.8065,178.4184 446.0224,186.3593 C449.6589,180.5447 456.359,179.9823 459.5217,186.8631 C468.8894,186.9338 472.9994,194.7506 467.9093,202.5512 C473.8539,211.1643 470.1813,217.1668 460.5864,218.7589 C456.8044,226.6105 449.2145,226.5184 444.2962,220.0518 C440.9899,228.1689 435.7083,227.6599 430.4495,222.0165 C427.6574,229.3974 420.7739,228.8845 416.7146,223.3659 C411.8856,228.9427 406.9155,229.9218 402.5781,222.8179 C397.0202,228.4858 390.6988,227.7947 387.6019,220.0665 C383.412,227.7863 376.9219,227.8264 373.0476,219.7753 C362.4876,218.9199 360.5551,209.6176 365.9971,202.3045 C360.6833,195.1206 361.7492,186.6298 372.4762,185.7082" fill="#FEF3C7" style="stroke:#181818;stroke-width:0.5;"/><text fill="#000000" font-family="Monospace" font-size="14" lengthAdjust="spacing" textLength="73.2617" x="378.31" y="207.2039">summarize</text></g><!--entity tool_tachometer--><g class="entity" data-qualified-name="tool_tachometer" data-source-line="15" id="ent0010"><path d="M371.2872,269.6907 C374.0607,264.6174 378.616,264.9775 381.3474,269.7338 C385.4284,263.5092 390.7757,264.9347 394.2326,270.4206 C397.5505,264.9344 400.8063,264.5078 404.5478,270.0235 C407.4386,263.1195 411.9921,263.0811 416.7258,268.1488 C420.5408,262.9114 424.9324,265.0105 427.2133,269.7599 C430.3461,264.6305 434.3749,264.416 437.896,269.3474 C441.7374,263.506 446.6407,264.6284 449.7076,270.1523 C452.776,264.4488 457.4169,265.7477 460.3923,270.2497 C468.6208,274.061 469.3021,281.0747 462.1396,286.5371 C470.16,291.5006 469.641,297.1823 462.3084,302.3101 C459.1261,307.712 454.8387,308.4527 450.9112,303.0998 C448.2529,309.7654 443.1921,310.0238 438.678,305.0502 C434.7125,310.4338 431.3946,309.6977 427.6771,304.7852 C425.2691,310.4725 420.0053,310.6148 417.0016,305.3666 C413.5925,310.1032 408.495,310.5201 405.3793,305.0332 C401.3547,308.8121 396.6451,309.0921 394.5126,302.959 C391.513,309.9778 385.3763,309.2166 381.3372,304.0863 C377.7931,308.5639 372.167,308.1996 369.8147,302.7087 C361.0079,301.5597 358.0525,293.3143 362.9287,286.3911 C358.2121,276.9882 359.6316,270.8994 371.2872,269.6907" fill="#FEF3C7" style="stroke:#181818;stroke-width:0.5;"/><text fill="#000000" font-family="Monospace" font-size="14" lengthAdjust="spacing" textLength="76.4677" x="376.71" y="291.2039">tachometer</text></g><g class="entity" data-qualified-name="toolingGraphSummary" data-source-line="26" id="ent0020"><path d="M41.74,46.0679 L41.74,91.4799 L249.2512,91.4799 L249.2512,56.0679 L239.2512,46.0679 L41.74,46.0679" fill="#FEFFDD" style="stroke:#181818;stroke-width:0.5;"/><path d="M239.2512,46.0679 L239.2512,56.0679 L249.2512,56.0679 L239.2512,46.0679" fill="#FEFFDD" style="stroke:#181818;stroke-width:1;"/><text fill="#000000" font-family="Monospace" font-size="13" lengthAdjust="spacing" textLength="186.5112" x="47.74" y="64.9649">Scanned&#160;3&#160;tooling&#160;entrypoints.</text><text fill="#000000" font-family="Monospace" font-size="13" lengthAdjust="spacing" textLength="171.7822" x="47.74" y="82.6709">Detected&#160;6&#160;third-party&#160;tools.</text></g><!--link source_github_workflows_ci_yml to tool_actions_checkout--><g class="link" data-entity-1="ent0002" data-entity-2="ent0005" data-link-type="dependency" data-source-line="16" id="lnk11"><path d="M237.14,441.5079 C298.05,441.5079 366.9,441.5079 366.9,441.5079 C366.9,441.5079 366.9,421.2079 366.9,400.4579" fill="none" id="source_github_workflows_ci_yml-to-tool_actions_checkout" style="stroke:#181818;stroke-width:1;"/><polygon fill="#181818" points="366.9,394.4579,362.9,403.4579,366.9,399.4579,370.9,403.4579,366.9,394.4579" style="stroke:#181818;stroke-width:1;"/></g><!--link source_github_workflows_ci_yml to tool_bundle--><g class="link" data-entity-1="ent0002" data-entity-2="ent0006" data-link-type="dependency" data-source-line="17" id="lnk12"><path d="M237.09,453.7779 C284.69,453.7779 334.32,453.7779 370.52,453.7779" fill="none" id="source_github_workflows_ci_yml-to-tool_bundle" style="stroke:#181818;stroke-width:1;"/><polygon fill="#181818" points="376.52,453.7779,367.52,449.7779,371.52,453.7779,367.52,457.7779,376.52,453.7779" style="stroke:#181818;stroke-width:1;"/></g><!--link source_github_workflows_ci_yml to tool_ruby_setup_ruby--><g class="link" data-entity-1="ent0002" data-entity-2="ent0007" data-link-type="dependency" data-source-line="18" id="lnk13"><path d="M237.3,466.0379 C294.35,466.0379 356.9,466.0379 356.9,466.0379 C356.9,466.0379 356.9,486.3379 356.9,507.0879" fill="none" id="source_github_workflows_ci_yml-to-tool_ruby_setup_ruby" style="stroke:#181818;stroke-width:1;"/><polygon fill="#181818" points="356.9,513.0879,360.9,504.0879,356.9,508.0879,352.9,504.0879,356.9,513.0879" style="stroke:#181818;stroke-width:1;"/></g><!--link source_site_scripts_run_tachometer_profile_sh to tool_run--><g class="link" data-entity-1="ent0003" data-entity-2="ent0008" data-link-type="dependency" data-source-line="19" id="lnk14"><path d="M284.16,131.9079 C323.88,131.9079 357.14,131.9079 382.12,131.9079" fill="none" id="source_site_scripts_run_tachometer_profile_sh-to-tool_run" style="stroke:#181818;stroke-width:1;"/><polygon fill="#181818" points="388.12,131.9079,379.12,127.9079,383.12,131.9079,379.12,135.9079,388.12,131.9079" style="stroke:#181818;stroke-width:1;"/></g><!--link source_site_scripts_run_tachometer_profile_sh to tool_summarize--><g class="link" data-entity-1="ent0003" data-entity-2="ent0009" data-link-type="dependency" data-source-line="20" id="lnk15"><path d="M284.16,181.0379 C312.27,181.0379 334.15,181.0379 356.91,181.0379" fill="none" id="source_site_scripts_run_tachometer_profile_sh-to-tool_summarize" style="stroke:#181818;stroke-width:1;"/><polygon fill="#181818" points="362.91,181.0379,353.91,177.0379,357.91,181.0379,353.91,185.0379,362.91,181.0379" style="stroke:#181818;stroke-width:1;"/></g><!--link source_site_scripts_run_tachometer_profile_sh to tool_tachometer--><g class="link" data-entity-1="ent0003" data-entity-2="ent0010" data-link-type="dependency" data-source-line="21" id="lnk16"><path d="M274.9,185.2279 C274.9,218.1079 274.9,266.7779 274.9,266.7779 C274.9,266.7779 316.02,266.7779 355.6,266.7779" fill="none" id="source_site_scripts_run_tachometer_profile_sh-to-tool_tachometer" style="stroke:#181818;stroke-width:1;"/><polygon fill="#181818" points="361.6,266.7779,352.6,262.7779,356.6,266.7779,352.6,270.7779,361.6,266.7779" style="stroke:#181818;stroke-width:1;"/></g><!--link source_scripts_run_tachometer_profile_sh to tool_run--><g class="link" data-entity-1="ent0004" data-entity-2="ent0008" data-link-type="dependency" data-source-line="22" id="lnk17"><path d="M266.99,237.9479 C293.54,237.9479 313.9,237.9479 313.9,237.9479 C313.9,237.9479 313.9,137.1079 313.9,137.1079 C313.9,137.1079 352.19,137.1079 382.13,137.1079" fill="none" id="source_scripts_run_tachometer_profile_sh-to-tool_run" style="stroke:#181818;stroke-width:1;"/><polygon fill="#181818" points="388.13,137.1079,379.13,133.1079,383.13,137.1079,379.13,141.1079,388.13,137.1079" style="stroke:#181818;stroke-width:1;"/></g><!--link source_scripts_run_tachometer_profile_sh to tool_summarize--><g class="link" data-entity-1="ent0004" data-entity-2="ent0009" data-link-type="dependency" data-source-line="23" id="lnk18"><path d="M266.8,249.5979 C338.3,249.5979 414.9,249.5979 414.9,249.5979 C414.9,249.5979 414.9,244.3779 414.9,232.8079" fill="none" id="source_scripts_run_tachometer_profile_sh-to-tool_summarize" style="stroke:#181818;stroke-width:1;"/><polygon fill="#181818" points="414.9,226.8079,410.9,235.8079,414.9,231.8079,418.9,235.8079,414.9,226.8079" style="stroke:#181818;stroke-width:1;"/></g><!--link source_scripts_run_tachometer_profile_sh to tool_tachometer--><g class="link" data-entity-1="ent0004" data-entity-2="ent0010" data-link-type="dependency" data-source-line="24" id="lnk19"><path d="M266.82,272.3079 C299.92,272.3079 328.12,272.3079 355.3,272.3079" fill="none" id="source_scripts_run_tachometer_profile_sh-to-tool_tachometer" style="stroke:#181818;stroke-width:1;"/><polygon fill="#181818" points="361.3,272.3079,352.3,268.3079,356.3,272.3079,352.3,276.3079,361.3,272.3079" style="stroke:#181818;stroke-width:1;"/></g><?plantuml-src fLJBhjCm4DtdAwpUTHD49TYnWGQnW4rP8bckCucjEZEHFLOLlXudRHug5VJsxcoVnnoDnsRB3eHMWV2KDvPDFEQMn4yYPx4Htv2XyOejOSWSr2oOXBUDOL5P3te0id2os2clMX6CgkWy26lb0goG2ceL7PU4_4Er8BuJKkYKNdCqjHqX81-uJw46UuMDMrDIAE2-0q6U3MKpHMokuOip-LFjw1mARVE-TRzmbufp8aALmfCB6w6221Iz1daHoLaajPL995xsxyhtvNvTG0RBK0JjRSUXy14bAsseJTvUTfvgwo0Fvj_r1WzvzP3tFMGmzyg_jV33DRMZM8cD6kysTT60Fb7aqMombLT4JeXuAVVbxlF7INcCM3bO-9VzBSl7Ory4uDXjX-L27tPo1CRbtpfSS_4M3x5jbRU_Lm7cerlkqeY5l9pDxF_CodRxwNvZ7XPUElGm_QP3sUjcQsM3pqhdZZvhiC3PmmDwD_XRCZyL5ubX6fRqqNtrgZE7qRhF3beXfjUtcr2HFZFVTsIHGvvzcLxd1y76-cgR_ZJkBsyrpm0hCPZ_0G00?></g></svg>
